<?xml version="1.0" encoding="UTF-8"?><svg id="blue_above" xmlns="http://www.w3.org/2000/svg" viewBox="0 0 75 75"><line x1="20.73" y1="12.64" x2="20.73" y2="2.67" style="fill:none; stroke:#0076bd; stroke-linecap:round; stroke-linejoin:round; stroke-width:2px;"/><line x1="54.15" y1="8.64" x2="54.15" y2="2.67" style="fill:none; stroke:#0076bd; stroke-linecap:round; stroke-linejoin:round; stroke-width:2px;"/><line x1="16.5" y1="8.4" x2="20.73" y2="12.64" style="fill:none; stroke:#0076bd; stroke-linecap:round; stroke-linejoin:round; stroke-width:2px;"/><line x1="24.97" y1="8.4" x2="20.73" y2="12.64" style="fill:none; stroke:#0076bd; stroke-linecap:round; stroke-linejoin:round; stroke-width:2px;"/><line x1="20.73" y1="2.67" x2="54.15" y2="2.67" style="fill:none; stroke:#0076bd; stroke-linecap:round; stroke-linejoin:round; stroke-width:2px;"/><circle cx="54.15" cy="12.42" r="1" style="fill:#0076bd;"/><line x1="54.15" y1="62.36" x2="54.15" y2="72.33" style="fill:none; stroke:#0076bd; stroke-linecap:round; stroke-linejoin:round; stroke-width:2px;"/><line x1="20.73" y1="66.36" x2="20.73" y2="72.33" style="fill:none; stroke:#0076bd; stroke-linecap:round; stroke-linejoin:round; stroke-width:2px;"/><line x1="58.38" y1="66.6" x2="54.15" y2="62.36" style="fill:none; stroke:#0076bd; stroke-linecap:round; stroke-linejoin:round; stroke-width:2px;"/><line x1="49.91" y1="66.6" x2="54.15" y2="62.36" style="fill:none; stroke:#0076bd; stroke-linecap:round; stroke-linejoin:round; stroke-width:2px;"/><line x1="54.15" y1="72.33" x2="20.73" y2="72.33" style="fill:none; stroke:#0076bd; stroke-linecap:round; stroke-linejoin:round; stroke-width:2px;"/><circle cx="20.73" cy="62.58" r="1" style="fill:#0076bd;"/><path d="m30.37,59.5H11.36c-1.92,0-3.48-1.56-3.48-3.48v-3.57c0-1.92,1.56-3.48,3.48-3.48h19.01c1.92,0,3.48,1.56,3.48,3.48v3.57c0,1.92-1.56,3.48-3.48,3.48Zm-19.01-8.53c-.82,0-1.48.67-1.48,1.48v3.57c0,.82.67,1.48,1.48,1.48h19.01c.82,0,1.48-.67,1.48-1.48v-3.57c0-.82-.67-1.48-1.48-1.48H11.36Z" style="fill:#333;"/><path d="m30.36,48.34H11.35c-1.92,0-3.48-1.56-3.48-3.48v-3.57c0-1.92,1.56-3.48,3.48-3.48h19.01c1.92,0,3.48,1.56,3.48,3.48v3.57c0,1.92-1.56,3.48-3.48,3.48Zm-19.01-8.53c-.82,0-1.48.67-1.48,1.48v3.57c0,.82.67,1.48,1.48,1.48h19.01c.82,0,1.48-.67,1.48-1.48v-3.57c0-.82-.67-1.48-1.48-1.48H11.35Z" style="fill:#333;"/><path d="m30.35,26.03H11.35c-1.92,0-3.48-1.56-3.48-3.48v-3.57c0-1.92,1.56-3.48,3.48-3.48h19.01c1.92,0,3.48,1.56,3.48,3.48v3.57c0,1.92-1.56,3.48-3.48,3.48Zm-19.01-8.53c-.82,0-1.48.67-1.48,1.48v3.57c0,.82.67,1.48,1.48,1.48h19.01c.82,0,1.48-.67,1.48-1.48v-3.57c0-.82-.67-1.48-1.48-1.48H11.35Z" style="fill:#333;"/><path d="m30.34,37.19H11.34c-1.92,0-3.48-1.56-3.48-3.48v-3.57c0-1.92,1.56-3.48,3.48-3.48h19.01c1.92,0,3.48,1.56,3.48,3.48v3.57c0,1.92-1.56,3.48-3.48,3.48Zm-19.01-8.53c-.82,0-1.48.67-1.48,1.48v3.57c0,.82.67,1.48,1.48,1.48h19.01c.82,0,1.48-.67,1.48-1.48v-3.57c0-.82-.67-1.48-1.48-1.48H11.34Z" style="fill:#333;"/><path d="m63.66,59.5h-19.01c-1.92,0-3.48-1.56-3.48-3.48v-3.57c0-1.92,1.56-3.48,3.48-3.48h19.01c1.92,0,3.48,1.56,3.48,3.48v3.57c0,1.92-1.56,3.48-3.48,3.48Zm-19.01-8.53c-.82,0-1.48.67-1.48,1.48v3.57c0,.82.67,1.48,1.48,1.48h19.01c.82,0,1.48-.67,1.48-1.48v-3.57c0-.82-.67-1.48-1.48-1.48h-19.01Z" style="fill:#333;"/><path d="m63.65,48.34h-19.01c-1.92,0-3.48-1.56-3.48-3.48v-3.57c0-1.92,1.56-3.48,3.48-3.48h19.01c1.92,0,3.48,1.56,3.48,3.48v3.57c0,1.92-1.56,3.48-3.48,3.48Zm-19.01-8.53c-.82,0-1.48.67-1.48,1.48v3.57c0,.82.67,1.48,1.48,1.48h19.01c.82,0,1.48-.67,1.48-1.48v-3.57c0-.82-.67-1.48-1.48-1.48h-19.01Z" style="fill:#333;"/><path d="m63.65,26.03h-19.01c-1.92,0-3.48-1.56-3.48-3.48v-3.57c0-1.92,1.56-3.48,3.48-3.48h19.01c1.92,0,3.48,1.56,3.48,3.48v3.57c0,1.92-1.56,3.48-3.48,3.48Zm-19.01-8.53c-.82,0-1.48.67-1.48,1.48v3.57c0,.82.67,1.48,1.48,1.48h19.01c.82,0,1.48-.67,1.48-1.48v-3.57c0-.82-.67-1.48-1.48-1.48h-19.01Z" style="fill:#333;"/><path d="m63.64,37.19h-19.01c-1.92,0-3.48-1.56-3.48-3.48v-3.57c0-1.92,1.56-3.48,3.48-3.48h19.01c1.92,0,3.48,1.56,3.48,3.48v3.57c0,1.92-1.56,3.48-3.48,3.48Zm-19.01-8.53c-.82,0-1.48.67-1.48,1.48v3.57c0,.82.67,1.48,1.48,1.48h19.01c.82,0,1.48-.67,1.48-1.48v-3.57c0-.82-.67-1.48-1.48-1.48h-19.01Z" style="fill:#333;"/></svg>