<!--?xml version="1.0" encoding="UTF-8"?-->
<svg id="outlines" xmlns="http://www.w3.org/2000/svg" viewBox="0 0 75 75" style="width:100px; "
    role="img">
    <path
        d="m66.362,55.313v-11.287c3.367-.387,5.992-3.251,5.992-6.72,0-3.496-2.666-6.382-6.071-6.732v-3.822c0-.552-.447-1-1-1h-21.799v-6.109c0-.552-.447-1-1-1s-1,.448-1,1v6.109h-19.266c-.553,0-1,.448-1,1v3.881c-3.219.52-5.688,3.31-5.688,6.673,0,3.391,2.51,6.199,5.768,6.685v6.29h-11.769c-.49,0-.887.397-.887.887v4.085c-3.37.384-5.997,3.25-5.997,6.72,0,3.731,3.036,6.768,6.768,6.768s6.768-3.036,6.768-6.768c0-3.39-2.508-6.198-5.765-6.685v-3.234h23.927v3.216c-3.313.437-5.881,3.272-5.881,6.703,0,3.731,3.036,6.768,6.768,6.768s6.768-3.036,6.768-6.768c0-3.43-2.568-6.266-5.881-6.703v-4.103c0-.49-.396-.887-.887-.887h-11.932v-6.29c3.258-.486,5.768-3.294,5.768-6.685,0-3.419-2.551-6.246-5.848-6.698v-2.856h41.064v2.915c-3.109.61-5.464,3.353-5.464,6.639,0,3.313,2.395,6.072,5.543,6.651v11.307c-3.337.415-5.93,3.263-5.93,6.71,0,3.731,3.036,6.768,6.768,6.768s6.768-3.036,6.768-6.768c0-3.334-2.427-6.107-5.605-6.66Zm-52.181,6.66c0,2.629-2.139,4.768-4.768,4.768s-4.768-2.139-4.768-4.768,2.139-4.768,4.768-4.768,4.768,2.139,4.768,4.768Zm25.816,0c0,2.629-2.139,4.768-4.768,4.768s-4.768-2.139-4.768-4.768,2.139-4.768,4.768-4.768,4.768,2.139,4.768,4.768Zm-12.932-24.667c0,2.629-2.139,4.768-4.768,4.768s-4.768-2.139-4.768-4.768,2.139-4.768,4.768-4.768,4.768,2.139,4.768,4.768Zm33.753,0c0-2.629,2.139-4.768,4.768-4.768s4.768,2.139,4.768,4.768-2.139,4.768-4.768,4.768-4.768-2.139-4.768-4.768Zm4.381,29.435c-2.629,0-4.768-2.139-4.768-4.768s2.139-4.768,4.768-4.768,4.768,2.139,4.768,4.768-2.139,4.768-4.768,4.768Z"
        style="width:100px; fill: #231f20; stroke-width: 0px;"></path>
    <path d="m42.548,20.259c-3.859,0-7-3.14-7-7s3.141-7,7-7,7,3.14,7,7-3.141,7-7,7Z"
        style="width:100px; fill: #2677bd; stroke-width: 0px;"></path>
    <title>Alignment throughout your organization</title>
</svg>