<?xml version="1.0" encoding="UTF-8"?>
<svg id="outlines" xmlns="http://www.w3.org/2000/svg" viewBox="0 0 75 75">
  <path d="m44.02,65.14h-13.13c-2.07,0-3.76-1.69-3.76-3.76v-9.17c0-2.07,1.69-3.76,3.76-3.76h13.13c2.07,0,3.76,1.69,3.76,3.76v9.17c0,2.07-1.69,3.76-3.76,3.76Zm-13.13-14.69c-.97,0-1.76.79-1.76,1.76v9.17c0,.97.79,1.76,1.76,1.76h13.13c.97,0,1.76-.79,1.76-1.76v-9.17c0-.97-.79-1.76-1.76-1.76h-13.13Z" style="fill: #231f20;"/>
  <path d="m70.39,65.14h-13.13c-2.07,0-3.76-1.69-3.76-3.76v-9.17c0-2.07,1.69-3.76,3.76-3.76h13.13c2.07,0,3.76,1.69,3.76,3.76v9.17c0,2.07-1.69,3.76-3.76,3.76Zm-13.13-14.69c-.97,0-1.76.79-1.76,1.76v9.17c0,.97.79,1.76,1.76,1.76h13.13c.97,0,1.76-.79,1.76-1.76v-9.17c0-.97-.79-1.76-1.76-1.76h-13.13Z" style="fill: #231f20;"/>
  <path d="m17.74,65.14H4.61c-2.07,0-3.76-1.69-3.76-3.76v-9.17c0-2.07,1.69-3.76,3.76-3.76h13.13c2.07,0,3.76,1.69,3.76,3.76v9.17c0,2.07-1.69,3.76-3.76,3.76Zm-13.13-14.69c-.97,0-1.76.79-1.76,1.76v9.17c0,.97.79,1.76,1.76,1.76h13.13c.97,0,1.76-.79,1.76-1.76v-9.17c0-.97-.79-1.76-1.76-1.76H4.61Z" style="fill: #231f20;"/>
  <line x1="37.33" y1="41.32" x2="37.33" y2="49.1" style="fill: none; stroke: #231f20; stroke-miterlimit: 10; stroke-width: 2px;"/>
  <line x1="20.53" y1="56.27" x2="27.88" y2="56.27" style="fill: none; stroke: #231f20; stroke-miterlimit: 10; stroke-width: 2px;"/>
  <line x1="47.13" y1="56.27" x2="54.48" y2="56.27" style="fill: none; stroke: #231f20; stroke-miterlimit: 10; stroke-width: 2px;"/>
  <path d="m55.43,10.86H19.23c-1.75,0-3.19,1.43-3.19,3.19v24.26c0,1.75,1.43,3.19,3.19,3.19h36.21c1.75,0,3.19-1.43,3.19-3.19V14.05c0-1.75-1.43-3.19-3.19-3.19Zm-30.02,25.16c0,.83-.67,1.5-1.5,1.5s-1.5-.67-1.5-1.5v-5.18c0-.83.67-1.5,1.5-1.5s1.5.67,1.5,1.5v5.18Zm5.26,0c0,.83-.67,1.5-1.5,1.5s-1.5-.67-1.5-1.5v-9.74c0-.83.67-1.5,1.5-1.5s1.5.67,1.5,1.5v9.74Zm5.26,0c0,.83-.67,1.5-1.5,1.5s-1.5-.67-1.5-1.5v-12.71c0-.83.67-1.5,1.5-1.5s1.5.67,1.5,1.5v12.71Zm5.26,0c0,.83-.67,1.5-1.5,1.5s-1.5-.67-1.5-1.5v-19.69c0-.83.67-1.5,1.5-1.5s1.5.67,1.5,1.5v19.69Zm5.26,0c0,.83-.67,1.5-1.5,1.5s-1.5-.67-1.5-1.5v-9.74c0-.83.67-1.5,1.5-1.5s1.5.67,1.5,1.5v9.74Zm5.26,0c0,.83-.67,1.5-1.5,1.5s-1.5-.67-1.5-1.5v-5.18c0-.83.67-1.5,1.5-1.5s1.5.67,1.5,1.5v5.18Z" style="fill: #0076bd;"/>
</svg>