<?xml version="1.0" encoding="UTF-8"?>
<svg id="Layer_2" data-name="Layer 2" xmlns="http://www.w3.org/2000/svg" viewBox="0 0 49.05 49.05">
  <defs>
    <style>
      .cls-1 {
        fill: #2677bd;
      }
    </style>
  </defs>
  <g id="blue_above" data-name="blue above">
    <path class="cls-1" d="M24.52,49.05C11,49.05,0,38.05,0,24.52S11,0,24.52,0s24.52,11,24.52,24.52-11,24.52-24.52,24.52ZM24.52,5C13.76,5,5,13.76,5,24.52s8.76,19.52,19.52,19.52,19.52-8.76,19.52-19.52S35.29,5,24.52,5Z"/>
    <path class="cls-1" d="M19.07,37.79c-.77,0-1.54-.29-2.12-.88l-6.06-6.06c-1.17-1.17-1.17-3.07,0-4.24,1.17-1.17,3.07-1.17,4.24,0l3.94,3.94,13.72-13.72c1.17-1.17,3.07-1.17,4.24,0,1.17,1.17,1.17,3.07,0,4.24l-15.85,15.85c-.59.59-1.35.88-2.12.88Z"/>
  </g>
</svg>