<?xml version="1.0" encoding="UTF-8"?><svg id="Layer_2" xmlns="http://www.w3.org/2000/svg" viewBox="0 0 60.831 65.698"><defs><style>.cls-1{fill:#fff;stroke-width:0px;}</style></defs><g id="outlines"><path class="cls-1" d="M11.13,30.167c-3.859,0-7-3.14-7-7s3.141-7,7-7,7,3.14,7,7-3.141,7-7,7ZM11.13,18.167c-2.757,0-5,2.243-5,5s2.243,5,5,5,5-2.243,5-5-2.243-5-5-5Z"/><path class="cls-1" d="M16.368,56.269H1c-.553,0-1-.448-1-1v-16.521c0-2.833,2.306-5.138,5.139-5.138h11.908c2.833,0,5.139,2.305,5.139,5.138v1.968c0,.552-.447,1-1,1s-1-.448-1-1v-1.968c0-1.73-1.408-3.138-3.139-3.138H5.139c-1.73,0-3.139,1.408-3.139,3.138v15.521h14.368c.553,0,1,.448,1,1s-.447,1-1,1Z"/><path class="cls-1" d="M49.775,30.087c-3.859,0-7-3.14-7-7s3.141-7,7-7,7,3.14,7,7-3.141,7-7,7ZM49.775,18.087c-2.757,0-5,2.243-5,5s2.243,5,5,5,5-2.243,5-5-2.243-5-5-5Z"/><path class="cls-1" d="M59.831,56.189h-15.056c-.553,0-1-.448-1-1s.447-1,1-1h14.056v-15.521c0-1.73-1.408-3.138-3.139-3.138h-11.908c-1.73,0-3.139,1.408-3.139,3.138v1.996c0,.552-.447,1-1,1s-1-.448-1-1v-1.996c0-2.833,2.306-5.138,5.139-5.138h11.908c2.833,0,5.139,2.305,5.139,5.138v16.521c0,.552-.447,1-1,1Z"/><path class="cls-1" d="M30.545,39.596c-3.859,0-7-3.14-7-7s3.141-7,7-7,7,3.14,7,7-3.141,7-7,7ZM30.545,27.596c-2.757,0-5,2.243-5,5s2.243,5,5,5,5-2.243,5-5-2.243-5-5-5Z"/><path class="cls-1" d="M40.6,65.698h-20.185c-.553,0-1-.448-1-1v-16.52c0-2.833,2.305-5.138,5.138-5.138h11.909c2.833,0,5.138,2.305,5.138,5.138v16.52c0,.552-.447,1-1,1ZM21.415,63.698h18.185v-15.52c0-1.73-1.407-3.138-3.138-3.138h-11.909c-1.73,0-3.138,1.408-3.138,3.138v15.52Z"/><path class="cls-1" d="M40.422,0h-19.754c-.956,0-1.739.782-1.739,1.739v13.234c0,.956.782,1.739,1.739,1.739h19.754c.956,0,1.739-.782,1.739-1.739V1.739c0-.956-.782-1.739-1.739-1.739ZM24.045,13.726c0,.452-.367.818-.818.818s-.818-.366-.818-.818v-2.827c0-.452.367-.818.818-.818s.818.366.818.818v2.827ZM26.915,13.726c0,.452-.367.818-.818.818s-.818-.366-.818-.818v-5.314c0-.452.367-.818.818-.818s.818.366.818.818v5.314ZM29.784,13.726c0,.452-.367.818-.818.818s-.818-.366-.818-.818v-6.934c0-.452.367-.818.818-.818s.818.366.818.818v6.934ZM32.653,13.726c0,.452-.367.818-.818.818s-.818-.366-.818-.818V2.985c0-.452.367-.818.818-.818s.818.366.818.818v10.741ZM35.522,13.726c0,.452-.367.818-.818.818s-.818-.366-.818-.818v-5.314c0-.452.367-.818.818-.818s.818.366.818.818v5.314ZM38.392,13.726c0,.452-.367.818-.818.818s-.818-.366-.818-.818v-2.827c0-.452.367-.818.818-.818s.818.366.818.818v2.827Z"/></g></svg>