<svg xmlns="http://www.w3.org/2000/svg" width="69.531" height="42.623" viewBox="0 0 69.531 42.623">
    <g transform="translate(-487.197 -214.117)">
        <path
            d="M491.484,246.228l-.065-.008a4.786,4.786,0,0,1-4.189-5.3l2.639-22.583a4.776,4.776,0,0,1,5.3-4.189l.06.007,6.17,1.492a4.787,4.787,0,0,1,4.126,5.29l-.01.089-.026.085-6.36,20.977a4.776,4.776,0,0,1-5.217,4.1Zm3.129-30.11a2.776,2.776,0,0,0-2.758,2.454l-2.639,22.584a2.786,2.786,0,0,0,2.375,3.071l2.417-.035.065.008a2.776,2.776,0,0,0,3.08-2.435l.01-.089.026-.085,6.356-20.965a2.787,2.787,0,0,0-2.443-3l-.06-.007-6.163-1.49C494.791,216.122,494.7,216.117,494.613,216.117Z"
            fill="#fff" />
        <path
            d="M548.188,243.427a3.354,3.354,0,0,1-2.8-1.48,10.919,10.919,0,0,1-1.254-2.578c-.166-.433-.323-.842-.5-1.216l-.019-.045-5.095-12.624-.015-.056a4.781,4.781,0,0,1,3.341-5.87l.058-.016.06-.009,6.3-.934a6.426,6.426,0,0,1,.8-.05,4.855,4.855,0,0,1,4.931,3.419l.014.05.008.051,2.583,15.489a5.469,5.469,0,0,1-.7,4.228,3.482,3.482,0,0,1-2.478,1.4l-.07.006-5,.231C548.294,243.426,548.241,243.427,548.188,243.427Zm-2.727-6.089c.2.427.369.878.536,1.314.724,1.886,1.176,2.774,2.191,2.774l.078,0,4.955-.229a1.482,1.482,0,0,0,1.065-.592,3.578,3.578,0,0,0,.344-2.681l0-.024-2.576-15.446a2.865,2.865,0,0,0-2.99-1.9,4.415,4.415,0,0,0-.54.033l-6.2.92a2.779,2.779,0,0,0-1.9,3.345Z"
            fill="#fff" />
        <path
            d="M539.048,246.43a4.248,4.248,0,0,1-2.676-.943l-2.075-1.668a1,1,0,1,1,1.253-1.559l2.075,1.668a2.29,2.29,0,0,0,2.87-3.57q-.031-.025-.059-.052l-4.853-4.573-11.334-9.779c-.766.226-2.24.67-3.433,1.083-.6,1.139-2.4,4.342-4.2,5.4a6.524,6.524,0,0,1-3.015,1.045,3.734,3.734,0,0,1-2.845-1.157,4.308,4.308,0,0,1-1.278-3.138q0-.048.006-.095a17.245,17.245,0,0,1,2.379-6.5c1.858-2.983,5.5-6.511,12.329-6.379,1.357.026,5.787,1.652,6.661,1.977a67.313,67.313,0,0,1,8.931,3.978,1,1,0,0,1-.983,1.742,65.294,65.294,0,0,0-8.646-3.845,34.046,34.046,0,0,0-6-1.852,12.564,12.564,0,0,0-6.8,1.632,11.339,11.339,0,0,0-3.8,3.8,15.423,15.423,0,0,0-2.084,5.626,2.267,2.267,0,0,0,.681,1.626c.971.955,2.039.636,3.447-.188,1.183-.693,2.844-3.392,3.613-4.93a1,1,0,0,1,.557-.494c1.765-.634,4.336-1.373,4.444-1.4a1,1,0,0,1,.929.2l11.762,10.148.033.029,4.842,4.563a4.286,4.286,0,0,1-2.257,7.579A4.4,4.4,0,0,1,539.048,246.43Z"
            fill="#fff" />
        <path
            d="M520.513,256.74a4.271,4.271,0,0,1-2.684-.945l-19.511-15.551a1,1,0,0,1,1.247-1.564l19.514,15.554a2.3,2.3,0,0,0,3.223-.347,2.218,2.218,0,0,0,.473-1.666,2.315,2.315,0,0,0-.646-1.351l-2.746-2.25-2.357-1.914a1,1,0,0,1,1.261-1.553l4.887,3.969q.155.124.3.26l1.861,1.525,2.07,1.665a2.283,2.283,0,1,0,2.863-3.557l-4.917-3.973a1,1,0,0,1,1.254-1.558l1.931,1.548,0,0,4.409,3.578,2.071,1.665a2.291,2.291,0,0,0,2.871-3.571l-4.923-3.958a1,1,0,0,1,1.251-1.561l1.334,1.066a1.015,1.015,0,0,1,.078.069l3.513,2.825a4.291,4.291,0,0,1-5.377,6.688l-.672-.54a4.239,4.239,0,0,1-.91,2.177,4.3,4.3,0,0,1-6.033.656l-1.388-1.116a4.19,4.19,0,0,1-.9,2.124A4.285,4.285,0,0,1,520.513,256.74Z"
            fill="#fff" />
        <path d="M12.432,1H0A1,1,0,0,1-1,0,1,1,0,0,1,0-1H12.432a1,1,0,0,1,1,1A1,1,0,0,1,12.432,1Z"
            transform="translate(504.742 218.747)" fill="#fff" />
        <path
            d="M542.539,243.335a1,1,0,0,1-.448-1.895h0c.186-.095,1.48-.869,2.624-1.563a1,1,0,0,1,1.037,1.71c-.568.345-2.447,1.482-2.766,1.641A1,1,0,0,1,542.539,243.335Z"
            fill="#fff" />
    </g>
</svg>