<!--?xml version="1.0" encoding="UTF-8"?-->
<svg id="labels" xmlns="http://www.w3.org/2000/svg" viewBox="0 0 75 75" style="width:100px; "
    role="img">
    <path
        d="M61.5,59.534l-7.045-13.026c-.07.015-.131.051-.204.056-.504.034-1.185.158-1.974.301-1.426.259-3.168.575-5.037.575-1.261,0-2.58-.144-3.901-.547-2.288-.698-4.13-1.714-5.757-2.61-2.022-1.114-3.768-2.076-5.855-2.163-5.051-.214-10.194,2.835-10.246,2.865-.044.026-.094.028-.14.049l-7.842,14.5c-.304.713-.473,1.498-.473,2.323,0,3.271,2.652,5.924,5.924,5.924h37.097c3.272,0,5.924-2.652,5.924-5.924,0-.825-.168-1.61-.473-2.323ZM37.5,53.551c-1.157,0-2.096-.938-2.096-2.096s.938-2.096,2.096-2.096,2.095.938,2.095,2.096-.938,2.096-2.095,2.096ZM44.777,59.022c-1.596,0-2.89-1.294-2.89-2.89s1.294-2.89,2.89-2.89,2.89,1.294,2.89,2.89-1.294,2.89-2.89,2.89Z"
        class="transparent" style="width:100px; fill: #2677bd; stroke-width: 0px;"></path>
    <g>
        <path
            d="M32,6.676l.022,19.395L13.615,60.102c-.303.711-.471,1.494-.471,2.316,0,3.262,2.644,5.906,5.906,5.906h36.982c3.262,0,5.906-2.644,5.906-5.906,0-.822-.168-1.605-.471-2.316l-18.407-34.03.022-19.395"
            class="transparent"
            style="width:100px; fill: none; stroke: #333; stroke-linecap: round; stroke-linejoin: round; stroke-width: 2px;"></path>
        <line x1="28.586" y1="6.676" x2="46.496" y2="6.676" class="transparent"
            style="width:100px; fill: none; stroke: #333; stroke-linecap: round; stroke-linejoin: round; stroke-width: 2px;"></line>
    </g>
    <title>Chemical</title>
</svg>