<?xml version="1.0" standalone="no"?>
<!DOCTYPE svg PUBLIC "-//W3C//DTD SVG 20010904//EN"
 "http://www.w3.org/TR/2001/REC-SVG-20010904/DTD/svg10.dtd">
<svg version="1.0" xmlns="http://www.w3.org/2000/svg"
 width="300.000000pt" height="300.000000pt" viewBox="0 0 300.000000 300.000000"
 preserveAspectRatio="xMidYMid meet">
<metadata>
Created by potrace 1.10, written by Peter Selinger 2001-2011
</metadata>
<g transform="translate(0.000000,300.000000) scale(0.100000,-0.100000)"
fill="#000000" stroke="none">
<path d="M1239 2975 c-113 -19 -271 -70 -384 -125 -160 -77 -276 -161 -410
-295 -179 -179 -291 -358 -365 -584 -44 -135 -73 -290 -68 -367 l3 -49 11 40
c6 22 21 90 32 151 60 317 189 563 411 784 218 218 470 352 756 404 162 30
200 38 215 47 23 13 -113 9 -201 -6z"/>
<path d="M1560 2981 c15 -9 70 -21 190 -41 341 -59 659 -245 880 -515 169
-206 267 -428 319 -718 27 -151 40 -182 40 -102 2 142 -64 397 -144 555 -106
212 -313 451 -495 572 -190 126 -397 211 -593 243 -101 16 -222 20 -197 6z"/>
<path d="M818 2181 c-103 -103 -128 -134 -128 -156 0 -24 42 -70 247 -277
l247 -248 -247 -248 c-204 -205 -247 -254 -247 -276 0 -23 26 -54 128 -157
105 -105 133 -129 157 -129 24 0 68 40 277 247 l248 247 248 -247 c210 -209
252 -247 277 -247 24 0 52 23 157 128 105 104 128 133 128 157 0 24 -39 68
-247 277 l-247 248 247 249 c203 204 247 253 247 276 0 22 -26 54 -128 156
-105 106 -132 129 -156 129 -25 0 -68 -38 -277 -247 l-249 -247 -248 247
c-210 208 -254 247 -278 247 -24 0 -52 -23 -156 -129z m945 -153 l262 262 133
-132 132 -133 -262 -262 -263 -263 263 -263 262 -262 -132 -133 -133 -132
-262 262 -263 263 -263 -263 -262 -262 -133 132 -132 133 262 262 263 263
-263 263 -262 262 132 133 133 132 262 -262 263 -263 263 263z"/>
<path d="M11 1390 c-1 -88 26 -230 69 -361 74 -226 186 -406 365 -584 130
-130 238 -209 395 -288 167 -84 410 -148 550 -146 l55 1 -60 18 c-33 10 -95
23 -137 29 -99 16 -260 67 -373 121 -151 71 -278 162 -405 289 -225 225 -361
488 -416 801 -21 123 -21 123 -32 150 -9 22 -11 17 -11 -30z"/>
<path d="M2973 1410 c-6 -19 -17 -69 -23 -110 -50 -322 -186 -596 -405 -816
-112 -112 -157 -150 -263 -218 -154 -100 -334 -169 -536 -208 -61 -11 -129
-25 -151 -32 l-40 -11 40 -3 c117 -11 378 55 550 138 161 78 277 161 410 295
179 179 291 358 365 584 44 134 73 290 68 367 l-3 49 -12 -35z"/>
</g>
</svg>
