<?xml version="1.0" encoding="UTF-8"?>
<svg id="blue_above" data-name="blue above" xmlns="http://www.w3.org/2000/svg" viewBox="0 0 75 75">
  <circle cx="37.99" cy="38.44" r="28.15" transform="translate(-5.67 6.58) rotate(-9.22)" style="fill: none; stroke: #333; stroke-dasharray: 0 0 9.82 7.86; stroke-linecap: round; stroke-linejoin: round; stroke-width: 2px;"/>
  <path d="m6.19,13.16l5.58,5.33h26.56c5.5,0,9.96,4.46,9.96,9.96h0c0,5.5-4.46,9.96-9.96,9.96H15.53c-5.76,0-10.43-4.67-10.43-10.43v-15.91l1.1,1.1Z" style="fill: #bcbec0;"/>
  <g>
    <line x1="21.68" y1="25.23" x2="38.6" y2="25.23" style="fill: none; stroke: #333; stroke-linecap: round; stroke-linejoin: round; stroke-width: 2px;"/>
    <line x1="21.68" y1="31.29" x2="27.08" y2="31.29" style="fill: none; stroke: #333; stroke-linecap: round; stroke-linejoin: round; stroke-width: 2px;"/>
  </g>
  <path d="m59.47,38.4h-22.81c-5.5,0-9.96,4.46-9.96,9.96s4.46,9.96,9.96,9.96h26.56l5.58,5.33,1.1,1.1v-15.91c0-5.76-4.67-10.43-10.43-10.43Zm-18.32,14.02h-5.4c-.55,0-1-.45-1-1s.45-1,1-1h5.4c.55,0,1,.45,1,1s-.45,1-1,1Zm11.52-6.06h-16.92c-.55,0-1-.45-1-1s.45-1,1-1h16.92c.55,0,1,.45,1,1s-.45,1-1,1Z" style="fill: #0076bd;"/>
</svg>