<svg xmlns="http://www.w3.org/2000/svg" width="64.828" height="63.286" viewBox="0 0 64.828 63.286">
    <g transform="translate(-5820.401 -4529.202)">
        <path
            d="M5884.939,4548.677a.793.793,0,0,1-.414-1.471,3.7,3.7,0,0,0,1.972-3.084,3.512,3.512,0,0,0-1.484-2.747,6.231,6.231,0,0,0-3.832-1.229,5.736,5.736,0,0,0-4.716,2.15.794.794,0,0,1-1.3-.91,7.335,7.335,0,0,1,6.018-2.828,7.823,7.823,0,0,1,4.809,1.564,5.062,5.062,0,0,1,2.1,4,5.238,5.238,0,0,1-2.734,4.439A.785.785,0,0,1,5884.939,4548.677Z"
            transform="translate(-5.077 -0.87)" fill="#fff" />
        <path
            d="M5868.8,4587.177a.8.8,0,0,1-.237-.036,25.737,25.737,0,0,1-7.209-3.9.794.794,0,0,1,.966-1.261,25.2,25.2,0,0,0,6.112,3.426,18.525,18.525,0,0,0,1.436-4.07.794.794,0,1,1,1.545.365,17.505,17.505,0,0,1-1.946,5.11A.793.793,0,0,1,5868.8,4587.177Z"
            transform="translate(-3.778 -4.789)" fill="#fff" />
        <path
            d="M5886.833,4578.083h-.019l-5.561-.132a.794.794,0,0,1,.019-1.587h.019l5.131.122a15.8,15.8,0,0,0,1.27-4.406c.489-2.574.787-5.294.893-6.343a.794.794,0,1,1,1.579.158c-.107,1.071-.412,3.845-.912,6.481-.543,2.861-1.137,4.637-1.817,5.43A.792.792,0,0,1,5886.833,4578.083Z"
            transform="translate(-5.585 -3.33)" fill="#fff" />
        <path
            d="M5871.481,4581.127h-.458a12.866,12.866,0,0,1-6.853-1.976,13.053,13.053,0,0,1-4.688-5.128.794.794,0,0,1,1.415-.72,11.473,11.473,0,0,0,4.118,4.5,11.283,11.283,0,0,0,6.009,1.732h.458a11.389,11.389,0,0,0,11.047-8.778.793.793,0,1,1,1.545.361,13.014,13.014,0,0,1-8.234,9.245A12.808,12.808,0,0,1,5871.481,4581.127Z"
            transform="translate(-3.624 -3.806)" fill="#fff" />
        <circle cx="0.879" cy="0.879" r="0.879" transform="translate(5870.663 4559.692)" fill="#fff" />
        <path
            d="M.824-.589A1.413,1.413,0,1,1-.589.824,1.415,1.415,0,0,1,.824-.589Zm0,1.757A.344.344,0,1,0,.48.824.345.345,0,0,0,.824,1.168Z"
            transform="translate(5870.718 4559.747)" fill="#fff" />
        <path
            d="M5852.153,4556.77a.8.8,0,0,1-.2-.025.794.794,0,0,1-.569-.968,19.156,19.156,0,0,1,3.617-7.5,20.219,20.219,0,0,1,5.479-4.464,19.957,19.957,0,0,1,8.009-2.586,16,16,0,0,1,6.137.633,17.588,17.588,0,0,1,6.185,3.461.676.676,0,0,1,.058.055l.613.635a.794.794,0,1,1-1.142,1.1l-.585-.606a14.894,14.894,0,0,0-9.783-3.758c-.444,0-.891.02-1.343.059a19.373,19.373,0,0,0-12.406,6.482,17.6,17.6,0,0,0-3.3,6.885A.8.8,0,0,1,5852.153,4556.77Z"
            transform="translate(-2.878 -1.112)" fill="#fff" />
        <path
            d="M5859.121,4567.919a.794.794,0,0,1-.09-1.582,29.824,29.824,0,0,0,5.807-1.238,20.283,20.283,0,0,0,5.707-2.853,26.991,26.991,0,0,0,6.479-6.955.794.794,0,1,1,1.324.876,28.576,28.576,0,0,1-6.865,7.359,21.837,21.837,0,0,1-6.152,3.082,31.407,31.407,0,0,1-6.117,1.306A.834.834,0,0,1,5859.121,4567.919Z"
            transform="translate(-3.525 -2.392)" fill="#fff" />
        <path
            d="M5882.841,4545.54a.8.8,0,0,1,.479.16,20.823,20.823,0,0,1,3.179,3.164,17.967,17.967,0,0,1,3.984,8.416,17.287,17.287,0,0,1-1.267,9.086,19.178,19.178,0,0,1-2.083,3.834.793.793,0,0,1-1.1.172,19.256,19.256,0,0,1-3.172-3.023,16.965,16.965,0,0,1-3.975-8.281,18.061,18.061,0,0,1,1.245-9.22,20.789,20.789,0,0,1,2.058-3.972.8.8,0,0,1,.526-.326A.735.735,0,0,1,5882.841,4545.54Zm3.473,23.026a19.543,19.543,0,0,0,1.452-2.849,15.692,15.692,0,0,0,1.148-8.2c-.764-4.959-4.378-8.646-5.887-10a21.228,21.228,0,0,0-1.433,2.945,16.462,16.462,0,0,0-1.137,8.353,15.536,15.536,0,0,0,3.588,7.462A19.543,19.543,0,0,0,5886.314,4568.566Z"
            transform="translate(-5.421 -1.519)" fill="#fff" />
        <path
            d="M5825.733,4587.176a4.446,4.446,0,1,1,1.706-8.553.794.794,0,1,1-.61,1.465,2.859,2.859,0,1,0,.1,5.241.794.794,0,1,1,.663,1.442A4.407,4.407,0,0,1,5825.733,4587.176Z"
            transform="translate(-0.082 -4.562)" fill="#fff" />
        <path
            d="M5857.426,4587.176a4.406,4.406,0,0,1-1.9-.424.794.794,0,0,1,.678-1.435,2.859,2.859,0,1,0-.125-5.111.794.794,0,1,1-.746-1.4,4.447,4.447,0,1,1,2.091,8.372Z"
            transform="translate(-3.209 -4.562)" fill="#fff" />
        <path
            d="M5841.352,4596.446h-1.716a12.588,12.588,0,0,1-12.554-12.554v-7.735a7.939,7.939,0,0,1,1.054-3.95.794.794,0,1,1,1.376.791,6.344,6.344,0,0,0-.843,3.159v7.735a11,11,0,0,0,10.966,10.967h1.716a10.989,10.989,0,0,0,10.954-10.954v-7.748a6.337,6.337,0,0,0-.856-3.181.794.794,0,1,1,1.373-.8,7.934,7.934,0,0,1,1.07,3.978v7.748a12.575,12.575,0,0,1-12.541,12.541Z"
            transform="translate(-0.621 -3.958)" fill="#fff" />
        <circle cx="0.896" cy="0.896" r="0.896" transform="translate(5835.927 4573.5)" fill="#fff" />
        <path
            d="M.841-.589A1.43,1.43,0,1,1-.589.841,1.432,1.432,0,0,1,.841-.589Zm0,1.792A.361.361,0,1,0,.48.841.362.362,0,0,0,.841,1.2Z"
            transform="translate(5835.982 4573.555)" fill="#fff" />
        <circle cx="0.896" cy="0.896" r="0.896" transform="translate(5842.967 4573.5)" fill="#fff" />
        <path
            d="M.841-.589A1.43,1.43,0,1,1-.589.841,1.432,1.432,0,0,1,.841-.589Zm0,1.792A.361.361,0,1,0,.48.841.362.362,0,0,0,.841,1.2Z"
            transform="translate(5843.022 4573.555)" fill="#fff" />
        <path
            d="M5823.533,4578.007a.794.794,0,0,1-.736-.5c-.1-.243-2.4-5.982-2.4-10.023a.818.818,0,0,1,.713-.822.781.781,0,0,1,.082,0,.755.755,0,0,1,.761.6,1.737,1.737,0,0,0,.91.772,25.181,25.181,0,0,1,.877-7.9.815.815,0,0,1,.93-.566.763.763,0,0,1,.621.827c.012.112.125.759,1.2,1.443a30.476,30.476,0,0,1,5.158-7.367.81.81,0,0,1,1.083-.057.77.77,0,0,1,.153,1.032,2,2,0,0,0,.126,1.6,30.8,30.8,0,0,1,8.487-3.6.813.813,0,0,1,.947.53.771.771,0,0,1-.422.955,1.862,1.862,0,0,0-.7,1.181,30.737,30.737,0,0,1,9.155.565.813.813,0,0,1,.612.9.772.772,0,0,1-.759.668h-.044a2.022,2.022,0,0,0-1.324.973,30.089,30.089,0,0,1,8.074,3.385.813.813,0,0,1,.29,1.046.771.771,0,0,1-.975.373,1.99,1.99,0,0,0-1.536.47,30.689,30.689,0,0,1,3.742,8.341.812.812,0,0,1-.508.958.77.77,0,0,1-.964-.4,2.162,2.162,0,0,0-1.734-.745,9.276,9.276,0,0,0-1.268,3.765.793.793,0,0,1-.79.726l-.069,0a.794.794,0,0,1-.723-.859,10.83,10.83,0,0,1,1.776-4.9.8.8,0,0,1,.631-.331h.119a5.562,5.562,0,0,1,1.379.162,33.683,33.683,0,0,0-3.117-6.158.794.794,0,0,1-.128-1.235,5.606,5.606,0,0,1,1.2-.912,33.826,33.826,0,0,0-6.7-2.379.794.794,0,0,1-.595-.977l.083-.312a.807.807,0,0,1,.059-.155,5.633,5.633,0,0,1,.838-1.25,33.627,33.627,0,0,0-7.061-.091l-.36.092a.793.793,0,0,1-.99-.773,5.653,5.653,0,0,1,.194-1.494,33.741,33.741,0,0,0-6.406,3.092.812.812,0,0,1-.169.083l-.321.112a.8.8,0,0,1-.934-.33,5.624,5.624,0,0,1-.633-1.367,33.817,33.817,0,0,0-3.769,6.033.792.792,0,0,1-.95.424l-.483-.147a.8.8,0,0,1-.154-.065,5.916,5.916,0,0,1-1.216-.875,28.289,28.289,0,0,0-.293,6.369.781.781,0,0,1,0,.083l0,.169a.793.793,0,0,1-.949.761,5.951,5.951,0,0,1-1.4-.451,39.48,39.48,0,0,0,2.117,7.463.794.794,0,0,1-.736,1.091Z"
            transform="translate(0 -2.252)" fill="#fff" />
        <path
            d="M5840.033,4574.542a49.508,49.508,0,0,1-5.1-.253,27.527,27.527,0,0,1-6.132-1.2.794.794,0,0,1,.548-1.49h0a26.79,26.79,0,0,0,5.826,1.122,58.877,58.877,0,0,0,16.747-.938.794.794,0,0,1,.294,1.56,68.281,68.281,0,0,1-9.96,1.159Q5841.13,4574.542,5840.033,4574.542Z"
            transform="translate(-0.732 -3.936)" fill="#fff" />
        <g transform="translate(5828.231 4529.202)">
            <path
                d="M-.081,4.636a.794.794,0,0,1-.794-.794V-.081A.794.794,0,0,1-.081-.875a.794.794,0,0,1,.794.794V3.842A.794.794,0,0,1-.081,4.636Z"
                transform="translate(5.118 15.886)" fill="#fff" />
            <path
                d="M-.081,8.088a.794.794,0,0,1-.794-.794V-.081A.794.794,0,0,1-.081-.875a.794.794,0,0,1,.794.794V7.294A.794.794,0,0,1-.081,8.088Z"
                transform="translate(9.093 12.434)" fill="#fff" />
            <path
                d="M-.081,8.088a.794.794,0,0,1-.794-.794V-.081A.794.794,0,0,1-.081-.875a.794.794,0,0,1,.794.794V7.294A.794.794,0,0,1-.081,8.088Z"
                transform="translate(21.02 12.434)" fill="#fff" />
            <path
                d="M-.081,10.338a.794.794,0,0,1-.794-.794V-.081A.794.794,0,0,1-.081-.875a.794.794,0,0,1,.794.794V9.544A.794.794,0,0,1-.081,10.338Z"
                transform="translate(13.069 10.185)" fill="#fff" />
            <path
                d="M-.081,15.621a.794.794,0,0,1-.794-.794V-.081A.794.794,0,0,1-.081-.875a.794.794,0,0,1,.794.794V14.827A.794.794,0,0,1-.081,15.621Z"
                transform="translate(17.045 4.901)" fill="#fff" />
            <path
                d="M5832.622,4553.048a.792.792,0,0,1-.635-.316,14.693,14.693,0,1,1,26.427-9.253.794.794,0,0,1-.771.815h-.022a.793.793,0,0,1-.793-.771,13.106,13.106,0,1,0-23.572,8.253.794.794,0,0,1-.633,1.271Z"
                transform="translate(-5829.034 -4529.202)" fill="#fff" />
        </g>
    </g>
</svg>