<svg xmlns="http://www.w3.org/2000/svg" id="copyicon" viewBox="0 0 22 22">
  <path fill="currentcolor" d="M11,0C4.9,0,0,4.9,0,11s4.9,11,11,11s11-5,11-11S17,0,11,0z M11.9,16.8l-0.8,0.8c-1.9,1.6-4.6,1.5-6.4-0.3c-1.5-1.8-1.5-4.3,0-6.1L6.9,9c1.8-1.8,4.6-1.8,6.4,0c0.3,0.3,0.3,1,0,1.3s-1,0.3-1.3,0l0,0c-1-1-2.6-1-3.6,0l0,0l-2.2,2.2c-1,1.1-0.9,2.8,0.2,3.7c1,0.9,2.5,0.9,3.5,0l0.7-0.7c0.3-0.3,1-0.3,1.3,0S12.2,16.5,11.9,16.8z M17.6,11.1l-2.2,2.2c-1.8,1.8-4.6,1.8-6.4,0l0,0c-0.3-0.3-0.3-1,0-1.3s1-0.3,1.3,0l0,0c1,1,2.6,1,3.7,0l2.2-2.2c1-1.1,0.9-2.8-0.2-3.7c-1-0.9-2.5-0.9-3.5,0l-0.7,0.8c-0.3,0.3-1,0.3-1.3,0c-0.3-0.3-0.3-1,0-1.3l0,0l0.7-0.8C13,3,15.8,3,17.6,4.7S19.4,9.4,17.6,11.1L17.6,11.1z"></path>
</svg>