<?xml version="1.0" encoding="UTF-8"?>
<svg id="Layer_2" xmlns="http://www.w3.org/2000/svg" version="1.1" viewBox="0 0 608.5 621.7">
  <!-- Generator: Adobe Illustrator 30.0.0, SVG Export Plug-In . SVG Version: 2.1.1 Build 123)  -->
  <defs>
    <style>
      .st0 {
        fill: #f04b4b;
      }

      .st1 {
        fill: #95609e;
      }
    </style>
  </defs>
  <g id="web_americas">
    <g id="globe">
      <g id="Layer_2-2">
        <g>
          <path class="st0" d="M288.9,544.2c-62.5,0-121.3-24.4-165.6-68.6-44.2-44.2-68.6-103-68.6-165.6s24.4-121.3,68.6-165.6c44.2-44.2,103-68.6,165.6-68.6s121.3,24.4,165.6,68.6c44.2,44.2,68.6,103,68.6,165.6s-24.4,121.3-68.6,165.6c-44.2,44.2-103,68.6-165.6,68.6ZM288.9,77.5c-62.1,0-120.5,24.2-164.4,68.1s-68.1,102.3-68.1,164.4,24.2,120.5,68.1,164.4c43.9,43.9,102.3,68.1,164.4,68.1s120.5-24.2,164.4-68.1c43.9-43.9,68.1-102.3,68.1-164.4s-24.2-120.5-68.1-164.4-102.3-68.1-164.4-68.1h0Z"/>
          <path class="st0" d="M288.9,545.2c-62.8,0-121.9-24.5-166.3-68.9-44.4-44.4-68.9-103.5-68.9-166.3s24.5-121.9,68.9-166.3c44.4-44.4,103.5-68.9,166.3-68.9s121.9,24.5,166.3,68.9c44.4,44.4,68.9,103.5,68.9,166.3s-24.5,121.9-68.9,166.3c-44.4,44.4-103.5,68.9-166.3,68.9ZM288.9,78.5c-61.8,0-120,24.1-163.7,67.8s-67.8,101.9-67.8,163.7,24.1,120,67.8,163.7c43.7,43.7,101.9,67.8,163.7,67.8s120-24.1,163.7-67.8c43.7-43.7,67.8-101.9,67.8-163.7s-24.1-120-67.8-163.7c-43.7-43.7-101.9-67.8-163.7-67.8Z"/>
        </g>
        <g>
          <rect class="st0" x="84.2" y="197.3" width="410.6" height="1.6"/>
          <rect class="st0" x="83.2" y="196.3" width="412.6" height="3.6"/>
        </g>
        <g>
          <rect class="st0" x="55.6" y="309.2" width="466.6" height="1.6"/>
          <rect class="st0" x="54.6" y="308.2" width="468.6" height="3.6"/>
        </g>
        <g>
          <rect class="st0" x="84.2" y="421.2" width="410.6" height="1.6"/>
          <rect class="st0" x="83.2" y="420.2" width="412.6" height="3.6"/>
        </g>
        <g>
          <path class="st0" d="M288.9,544.2c-10.2,0-19.9-6.3-28.7-18.7-8.3-11.7-15.7-28.6-21.9-50.2-12.3-43-19.1-101.7-19.1-165.2s6.8-122.2,19.1-165.2c6.2-21.6,13.6-38.5,21.9-50.2,8.8-12.4,18.5-18.7,28.7-18.7,20.1,0,37.5,23.8,50.2,68.9,12.1,42.8,18.7,101.5,18.7,165.2s-6.6,122.4-18.7,165.2c-12.7,45.1-30.1,68.9-50.2,68.9h0ZM288.9,77.5c-19.1,0-36.5,24.1-49,67.7-12.3,42.9-19.1,101.4-19.1,164.8s6.8,121.9,19.1,164.8c12.5,43.7,29.9,67.7,49,67.7s36.3-24.1,48.6-67.7c12-42.7,18.6-101.2,18.6-164.8s-6.6-122.1-18.6-164.8c-12.3-43.7-29.6-67.7-48.6-67.7h0Z"/>
          <path class="st0" d="M288.9,545.2h-1c-10.2-.4-19.8-6.8-28.5-19.1-8.4-11.8-15.8-28.8-22-50.6-12.4-43.1-19.2-101.9-19.2-165.5s6.8-122.4,19.2-165.5c6.2-21.7,13.6-38.7,22-50.6,9-12.7,18.9-19.1,29.5-19.1,20.6,0,38.3,24.1,51.1,69.7,12.1,42.9,18.7,101.7,18.7,165.5s-6.7,122.6-18.7,165.5c-12.8,45.6-30.5,69.7-51.1,69.7ZM288.9,78.5c-18.6,0-35.7,23.8-48.1,67-12.3,42.8-19,101.2-19,164.5s6.8,121.7,19,164.5c12.4,43.2,29.5,67,48.1,67s35.5-23.8,47.6-67c12-42.6,18.6-101,18.6-164.5s-6.6-121.9-18.6-164.5c-12.2-43.2-29.1-67-47.6-67Z"/>
        </g>
        <g>
          <path class="st0" d="M287.8,544.2c-21.7,0-54-27.6-80.3-68.7-18.3-28.6-49-88.2-49-165.4s30.7-136.8,49-165.4c26.3-41.1,58.6-68.7,80.3-68.7s54,27.6,80.3,68.7c18.3,28.6,49,88.2,49,165.4s-30.7,136.8-49,165.4c-26.3,41.1-58.6,68.7-80.3,68.7ZM287.8,77.5c-20.9,0-53.3,27.9-78.9,68-18.2,28.5-48.8,87.7-48.8,164.5s30.6,136.1,48.8,164.5c25.6,40,58.1,68,78.9,68s53.3-27.9,78.9-68c18.2-28.5,48.8-87.7,48.8-164.5s-30.6-136.1-48.8-164.5c-25.6-40-58.1-68-78.9-68h0Z"/>
          <path class="st0" d="M287.8,545.2c-22.1,0-54.7-27.8-81.1-69.2-18.4-28.7-49.2-88.5-49.2-166s30.8-137.2,49.2-166c26.5-41.4,59.1-69.2,81.1-69.2s54.7,27.8,81.1,69.2c18.4,28.7,49.2,88.5,49.2,166s-30.8,137.2-49.2,166c-26.5,41.4-59.1,69.2-81.1,69.2ZM287.8,78.5c-20.5,0-52.7,27.8-78.1,67.5-18.2,28.4-48.6,87.4-48.6,164s30.5,135.6,48.6,164c25.4,39.7,57.5,67.5,78.1,67.5s52.7-27.8,78.1-67.5c18.2-28.4,48.6-87.4,48.6-164s-30.5-135.6-48.6-164c-25.4-39.7-57.5-67.5-78.1-67.5h0Z"/>
        </g>
        <g>
          <path class="st0" d="M289.5,544.2c-23.1,0-70.1-21.5-108.5-57.4-35.4-33.1-77.5-90.6-77.5-176.7s42.2-149.5,77.5-181.2c42.9-38.5,89.3-52.9,108.5-52.9s68.7,22.2,107.1,59.5c34.7,33.6,76.1,91.2,76.1,174.6s-41.4,140.8-76.1,174.5c-38.5,37.3-84.7,59.6-107.1,59.6h0ZM289.5,77.5c-18.9,0-64.9,14.2-107.4,52.5-35.1,31.6-77,88.4-77,180s41.9,142.7,77,175.5c42,39.3,88.1,57,107.4,57s63.9-18.4,106-59.2c34.5-33.4,75.6-90.6,75.6-173.3s-41.1-140.1-75.6-173.5c-42-40.7-87.3-59-106-59h0Z"/>
          <path class="st0" d="M289.5,545.2h0c-23.3,0-70.6-21.6-109.2-57.7-35.5-33.2-77.8-90.9-77.8-177.4s42.3-150.1,77.9-182c43.1-38.7,89.8-53.1,109.2-53.1s69.2,22.4,107.8,59.8c34.9,33.7,76.4,91.6,76.4,175.4s-41.5,141.4-76.4,175.2c-38.7,37.5-85.2,59.9-107.8,59.9ZM289.5,78.5c-18.8,0-64.4,14.2-106.7,52.2-35,31.4-76.7,88-76.7,179.3s41.7,142.1,76.7,174.8c41.8,39.1,87.6,56.7,106.7,56.7s63.4-18.3,105.3-58.9c34.3-33.3,75.3-90.3,75.3-172.6s-40.9-139.5-75.3-172.8c-41.8-40.5-86.8-58.7-105.3-58.7Z"/>
        </g>
      </g>
      <g>
        <rect class="st0" x="288.7" y="76.7" width="1.6" height="466.6"/>
        <rect class="st0" x="287.7" y="75.7" width="3.6" height="468.6"/>
      </g>
    </g>
    <g id="latam">
      <g id="Generative_Object">
        <path class="st0" d="M338.5,520.8c2,.2,4.8,3.9,2,5.2-4.2,2-6.8-2.1-7.2-2-.5.2,1,6-6.9-1,.3-2.7,4.8.5,6.2.3.6,0,4.6-2.7,5.9-2.6h0Z"/>
        <path class="st0" d="M331.4,509c1.1.1.8,4.2-1.3,3.9-2.4-.3.8-4,1.3-3.9h0Z"/>
        <path class="st0" d="M337.9,527.3l3.6.3c0,.2-4.4,1.5-3.6-.3Z"/>
        <path class="st0" d="M423.5,449.6c1.8.2.3,2-1.3,2-1.2-.8,1.2-2,1.3-2Z"/>
        <path class="st0" d="M412,366.6c-1.2-2.8-2.2-6.8-2.6-9.8,6.9,4.4,7.9,5.1,3.9,13.4.6-1.8-.9-2.6-1.3-3.6h0Z"/>
        <path class="st0" d="M436.5,364c2.5,0-1.7,2.2-2.3,1.6-.3-.8,2.1-1.6,2.3-1.6Z"/>
        <path class="st0" d="M318,356.1c-.4,0-.9,0-1.3,0-1.2-.2-7.4-.1-7.8-1.6-.8-2.6,4.9-1.5,5.6-1.6,2.7-.7,8.4-5.8,3.6,3.3h0Z"/>
        <path class="st0" d="M303.3,327.4c1.6-.1,5.4,3.6,4.9,4.9-.7,2-5.8,1.2-6.9,1.6-.8.3-3.7,3.2-4.6,3.3-1.3.1-12.2-5.1-14.7-5.6-2-4.6,11.2-4.5,10.1.3l2.3-2.3-1,2.9c1.8,2.5,1.6-2.6,3.3-3.3.8-.3,3,.3,3.9,0,.8-.3,2.5-1.9,2.6-2h0Z"/>
        <path class="st0" d="M299.3,343.1c6.1-1.4,16.4,5.1,8.5,9.8-.2-4.4-1.3-1.2-3.6-4.2,0-.1,1.4-2.8-.3-2.9-.7,0-4.7,8.2-4.6-2.6h0Z"/>
        <path class="st0" d="M307.8,333.9c2.9.7-4.7,8.5-5.2,8.5-.9,0-1.5-4.4-4.2-4.9,2.3-3.4,5.3-1.4,6.9-1.6.2,0,1.6-2.2,2.6-2h0Z"/>
        <path class="st0" d="M322.2,315.6c1.5-.2,5.1,3.2,4.9,3.6-4-.5-4-1.1-7.5,1.6-4-1.3,2.2-5.2,2.6-5.2h0Z"/>
        <path class="st0" d="M303.9,324.1c2-.7,4.7,1.2,4.2,2.9-.6,2.5-7.7-1.7-4.2-2.9Z"/>
        <path class="st0" d="M361.7,315.6c2.9-.1,5.4,0,5.9,2.6l-8.5-2.3c.3-.6,1.9-.3,2.6-.3h0Z"/>
        <path class="st0" d="M310.8,313.7c3.3,0,2.8,1.3,1,3.3l-2.3-2.6c0-.9.7-.6,1.3-.7h0Z"/>
        <path class="st0" d="M312.4,348.9c1.6-.5,2.3,2.9.7,3.3-2.1.5-1.5-3-.7-3.3Z"/>
        <polygon class="st0" points="334.6 336.5 334.9 337.5 334 337.8 333.6 337.5 334.6 336.5"/>
        <path class="st0" d="M373.5,417.5c-6.7,6.1-10.9.3-.7-2.6,1.7-.5,1.3-1.4,2.6,1-.3,1.5-1.8,1.5-2,1.6Z"/>
        <polygon class="st0" points="390.8 349.6 388.9 356.8 384 353.8 390.8 349.6"/>
        <path class="st0" d="M355.5,434.5c1.4-1,4.3,2.7,2,3.3-1.2.3-3.2-2.4-2-3.3Z"/>
        <path class="st0" d="M343.8,414.3c.5-.2,1.8.8,2.3,1-1.2,1.1-3.8-.1-2.3-1Z"/>
        <path class="st0" d="M344.1,352.2l1-2c-.9.6-.9.9-1,2-2,7,6,4.7,8.8,5.2.9.2,1.4,2.5,2.6,2.6,1,0,3.2-3.2,4.6-3.3.5,0,6.1,3.4,6.2,4.2.1,1.1-1.3,1.7-1.3,2,.7,5.6,1.3,8.6,3.9,13.7l-14.4-1.3c-.6,2,2.9-.6,3.3,1.3.2.9-3.9,14.9-4.2,17.3-.9-2.8-4.7-1.6-6.5-2.6-.3-.2-1.1-3-4.6-4.6-.8-.4-3.7.4-4.6,0-1.1-.5-3-6.5-5.2-7.8-3.5-2.1-3.2,2.5-4.6,2.6-.4,0-4.9-4.7-6.2-4.9-1-3.1,4.3.4,4.6-.7l-5.9-2.6c5.7-.7,8.3-13.8,7.2-18.3-.5-1.9-5.4-2.1,0-5.2-2.9.5-15.4,2.8-12.1-2.3,4.5-3.2,13.6,2.8,14.4,2.6.7-.2,4.9-9.2,7.8-11.1,3.1-2,9.7-3.2,13.1-1.3l1-1-1.6-2.9c4.4,5.7,8.6,3.9,14.4,4.6.2,0,2,1.9,2.6,2,6.5.4,7.7-2.7,10.5-3.3,3.6-.7,4.9,4.4,5.2,4.6.8.5,8.6.2,8.2,4.9-.4,4.7-10.8,5-10.5,10.5,5.8-5.9,12.2,6.1,10.5,11.8,8.5-7.8,8.1,6.9-.3,4.2-4.7-1.4-1.9-12.2-3.9-13.1-2.9-.7-2.1,2.5-4.6,3.9-2.4,1.4-12.9,3-15,2-2.6-1.2,1.6-4.5-2-7.8-5.4-5.1-8.5,0-9.1,0-1.6.1-1.7-2-2-2-2.7,0-10.4,2.1-10.1-3.9h0Z"/>
        <path class="st0" d="M347,340.5c2,1.3-1.8,4.9-3.3,5.2l3.3-5.2Z"/>
        <path class="st0" d="M384.3,345.7c1.6,1.1,1.1,2.4-.7,2.6l.7-2.6Z"/>
        <path class="st0" d="M327.4,376.4c.8-.6.9,2.5,0,2-.5-.3-.6-1.6,0-2Z"/>
        <path class="st0" d="M344.1,352.2c0-1,.1-1.3,1-2l-1,2Z"/>
        <polygon class="st0" points="350.3 341.8 350.6 342.7 349.6 343.1 349.3 342.7 350.3 341.8"/>
        <path class="st0" d="M261.1,282c-.3,1-.9,19.3-.7,20.3.3,1.4,2.5,2.1,2.6,2.6.3,1.2-.8.7.7,4.2.3.7-.3,1.8.7,3.3,1.1,1.6,9.9,4.8,11.4,4.6,5.1-.7,9.3-18.6,19.3-15,0,.4,0,.9,0,1.3-.1,4.3-2.1,5.9-2,8.2,0,.2,2,3.5,2,3.9,0,1-8.6,10.8-1,10.1.5,0,8.2-5.8,8.2.3,0,4.3-18,3-18.9,0-1.6-5.6,3.7-6.5,4.6-7.8.2-.3,2.2-6.6,1.6-7.5-2.4,8-4.1,7.5-11.4,9.5l5.2.7c-2.7,15.6-3.8,6.4-7.5,6.2-.5,0-3.3,2.2-6.9,2.6-1.5-2.1-6-1.7-7.5-2.6-1.4-.9-2.7-4.2-3.3-4.6-1.6-.9-4.2-.4-4.6-.7-2.5-1.5-12-7.2-13.7-8.5-7.5-5.7-1.5-6.4-1.6-6.9,0-.3-2.5-.4-3.3-2-.5-1.1,1-2,.7-2.6-1-1.9-4.4-5.3-5.9-7.5-.9-1.3-4.6-5.2-4.6-5.6,0-.2,1.9-.6,2-1.3.4-5.5-4.7-5-7.2-8.5-.5-.7-5.5-17-7.8-11.1-1.1,2.9,10.4,25.1,11.1,30.1-2.5,2.4-3.3-3.6-3.9-4.6-3.5-5.2-7.3-11.6-9.8-17.3-2.2-5.1-3-10.8-6.5-15.4-.9-9.3,17.5,6,19.9,6.9,4.4,1.5,8.1.4,9.8.7,3.1.4,2.4,10.6,7.2,8.1,5-17.3,11.1,12.2,17.3,9.2l3.9-3.3h0Z"/>
        <path class="st0" d="M329.7,310.4c-2.6-.2-3.6-1.7-4.9-2-2.5-.5-4.3,1.3-4.6,1.3-.4,0-1.3-6.1-4.6-7.2-.2,0-.9,1.5-2,1.3-2.8-.5-4.7-1.7-7.8-1.3-1.6.2-6.9,3.5-8.2,3.3.8-4.9,11.6-6.8,15.4-6.5,8.6.6,11.2,9.1,19.6,7.8l-2.9,3.3h0Z"/>
        <path class="st0" d="M349.3,440.4c-4.2-2.5-13.1-7.8-16.3-11.1-5.3-5.4-11.4-17.3-15-23.8-.7-1.3-4.5-4.9-4.6-5.2-1.4-6.1,8.3-10.6,8.5-4.6,0,.5-3.9,5.7,2.3,3.6,1.1-.4,8.6-8.2,11.4-9.8,1.3-.7,3.1-2.5,5.6-2,3.4.8,4.3,5,4.6,5.2.3.2,6-.4,6.9,1.6,2.7,6.2-14.8,3-12.4,17,1.2,7,5.4,4.5,8.2,6.2,1.3.7.8,3,2.6,3.9,1.4.7,6.4-1,6.9,4.2.4,4-3.2,4.9-3.3,5.2-1.4,4.6,4.6,13.6-5.2,9.5h0Z"/>
        <path class="st0" d="M373.5,418.9c.9,5.5,2.8,5.9,6.2,9.8,1.1.2.9-.6,1-.7,0,0-.2-1.4.3-1.3,1.7,3.2,4.2,7.6,7.2,10.5,1.2,1.1,5.6-.4,3.6,6.2-1.1,3.8-8.9-1-12.1-.3-6.1,1.3,2.9,12.6-11.1,11.1-.3,0-6.2-1.8-6.5-2-3.4-1.9-2.7-5.2-9.5-7.8-.7-.3-7.2.6-3.3-3.9.7.4,2.2,3.3,4.2,2.6,1.6-.5,3.6-5.6,6.9-5.6-6.7-8.1-2.7-4-2-8.5.8-5.2-3.5-8.2-2.3-9.5,1.5.2,5.4-3.9,5.9-3.9,3.3,0,3.8,10.3,11.4,3.3h0Z"/>
        <path class="st0" d="M335.6,388.8c-4.9,2.2-8.4,6-12.1,9.8-.7-2.4-2-6.3-3.6-8.2s-4.9-1.8-5.2-3.3c-.5-2.2,6.2-5.9,2-5.6.2-.2-1.5-4.7,2.6-1l1-4.9c2.5,3.4,8.6,10.9,11.1,3.9,2.5,2.3,5.6,5.8,4.2,9.1h0Z"/>
        <path class="st0" d="M411.4,367.2c.3,1.1,2,2.2.3,3.3l-7.5,2.3c3.7-1.1,10.6.2,11.8-3.9.6-1.9-.7-9.3,2.3-9.5,6,4.6,6.3,12.4,3.6,19.3,4-.9,11.8,1,11.8,5.9,0,1.2-3,3-1.6,3.6.9.4,3.1-1.9,3.3-2,3.3-.2,18.4,1.1,21.6,2,.5.1,2,2.4,2.6,2.6,2,.8,4-2,5.6,1,1,11.4-9.3,17.3-13.1,24.8-3.8,7.6-3.1,15.1-9.1,23.2-6.6,8.8-10.1,8.1-20.6,9.1-4.4,12.8-13.8,24.1-24.8,32-1.4,1-5.1,1.4-5.9,2-1.2.8-.8,7.9-8.2,1.6l6.2-2.3-8.2-.3,14.4-13.7c-.5-1.7-4.5,1.9-4.9,2.3-2.5,2.1-16.4,14.9-8.2,14-2.7,5.8.3,1.6,4.9,2.9,1.5,1.2.8.9,0,2-6.4,8-19.1,3.2-25.8,9.5-.2.2.6,2.6-2.3,4.9-1.3,1.1-6.9,1.8-7.2,2-.4.2-6.8,6.4-6.9,6.9,0,.2,2,1.7,2,2,0,.8-13.8,7.4-14.7,7.5-.9.1-5-.4-4.9-1.6,2.4-1,6-2.2,5.6-5.6-2,2.5-4.1,4.4-7.5,4.9,4.8-5.4,7.4-5.9,7.5-14l-3.9,3.9-1-1.6c1-4.6,5.4-7,7.2-10.5,0-.1-1.4-1.8-.7-3.3,5.1-10.3,10.6-19.9,13.7-31.4,1.5-5.6.8-14.1,3.9-18,15.4,9.1,2.2,9.2,1.3,14-.5,2.5,1.3,4.3,1.3,4.6-.3,2.2-7.2,10.8-8.5,14.4-1.7,4.6-1.7,11.2-3.3,15.4-6.3-1.4-8.4,6.9-2.3,8.5,0-1.7-3-2.3-2.3-4.6,7.7,2.4,6.7-13.8,9.1-19.9.8-2.1,7.7-11.1,7.8-11.8.5-2.2-1.4-5-.7-7.2.2-.4,7.1-5.5,7.5-5.6,2.5-.4,4.5,2.5,5.9,2.6,4.8.4,9-2.3,14.4,2,5.8,4.6.7,7.3-.7,13.1,4.7-6.4,9-2.5,13.7-4.6,1.3-.6,9.3-9.5,7.2-10.5-4.8,7.7-7.8,11.8-18,9.5,5.1-7.2-3.7-8-7.8-11.8-.3-1.5,5.6-7.6,6.9-8.2.6-.3,9.9,3.4,10.5,3.9,2,1.6,2.8,9.3,9.5,4.9-9.2-.1-5.6-3.1-8.8-6.2-.7-.7-4.2-.8-4.2-1-.1-.4,3.1-4.2,2-7.8-1.3-4.2-3.7-.7-5.9-3.9,7.6-2.6-3.4-10.8-7.8-8.8-1.3-1.6-4.4-3-4.6-5.6-.2-2.4,4.5-8.5-2.6-6.2-2.2.7-3.5,3-6.2,2.6-.3,0-3.5-2.8-4.6-2.6-.4,0-4.5,4.6-6.5,5.2-2.3.8-.1-3.5-3.3,1.3-.5-7.3-10.1-6.5-10.8-10.8-1.5-9.9,10.5-7.9,13.7-14.4,1.4-2.8,2.4-16.5,3.9-17.6,4.1-3.3,17.9,7.2,7.8-10.5,6.7-1,15.8.8,19.9-6.2,1.7,1.1-1.6,15.6,8.5,13.1,3.5-.9,3.9-8.3,7.8-1.3,4.5-5.1,1-10.8,1.6-16.7-3.4,1.3,4,18.2-4.9,12.7-2.2-1.3-1.4-3.5-2-3.9-.2-.1-3.7.6-4.6,0-2.1-1.4-3.6-11.4,0-13.1,2.5-.1.7,3.8,3.3,5.2,3.8,2.1,8.4-7.8,12.7,1.6.6,1.4,2.5,7.6,2.6,8.2h0Z"/>
        <path class="st0" d="M379.4,426c.5.6.5,1.9,1.3,2,0,0,.1.9-1,.7-3.4-3.9-5.3-4.3-6.2-9.8,0,0,1-.4,0-1.3.1-.1,1.6-.2,2-1.6-1.3-2.4-.9-1.5-2.6-1l-.7-.7c7.2-2.3,2.5,3.8,2.6,6.2.2,2.5,3.3,4,4.6,5.6h0Z"/>
        <path class="st0" d="M343.4,493.3c-.2.4-.4.9-.7,1.3-1.3-.8-4.8,0-3.3,2-.2.1-.4-.2-.7.7-.7,2.3,2.3,2.8,2.3,4.6-6.1-1.6-4.1-9.9,2.3-8.5h0Z"/>
        <path class="st0" d="M339.2,505.1l-5.2,7.8c-1.3-.4,3.3-7.9,5.2-7.8Z"/>
        <path class="st0" d="M396,362c1.4-.7,1.8,2.1.7,2-.1,0-1.1-1.8-.7-2Z"/>
        <polygon class="st0" points="335.9 500.5 336.3 501.5 335.3 501.8 334.9 501.5 335.9 500.5"/>
        <path class="st0" d="M338.9,497.3c.3-.9.5-.5.7-.7,1.2-.8,1.1,1.3,3.3-2,.2-.4.5-.9.7-1.3,1.6-4.1,1.6-10.8,3.3-15.4,1.3-3.5,8.2-12.1,8.5-14.4,0-.2-1.8-2.1-1.3-4.6.9-4.8,14.1-5-1.3-14v-.7c6.7,2.6,6,6,9.5,7.8.3.2,6.2,1.9,6.5,2,14,1.5,5-9.8,11.1-11.1,3.2-.7,10.9,4.1,12.1.3,2-6.6-2.4-5.1-3.6-6.2-3-2.9-5.4-7.3-7.2-10.5-.5-.1-.3,1.3-.3,1.3-.8,0-.8-1.4-1.3-2,4.4-2,15.5,6.2,7.8,8.8,2.2,3.2,4.6-.3,5.9,3.9,1.1,3.6-2.1,7.4-2,7.8,0,.2,3.6.3,4.2,1,3.2,3.1-.4,6.1,8.8,6.2-6.6,4.4-7.5-3.3-9.5-4.9-.6-.5-9.9-4.2-10.5-3.9-1.2.6-7.2,6.7-6.9,8.2,4.1,3.8,12.9,4.5,7.8,11.8,10.1,2.4,13.1-1.8,18-9.5,2.2,1-5.9,9.9-7.2,10.5-4.7,2.1-9-1.8-13.7,4.6,1.3-5.8,6.5-8.4.7-13.1-5.3-4.3-9.6-1.5-14.4-2-1.4-.1-3.4-3.1-5.9-2.6-.5,0-7.4,5.1-7.5,5.6-.8,2.2,1.1,5,.7,7.2-.1.7-7,9.7-7.8,11.8-2.5,6.2-1.5,22.3-9.1,19.9h0Z"/>
        <path class="st0" d="M383,428c3-.8,8.9,5.1,3.9,5.2l-3.9-5.2Z"/>
        <path class="st0" d="M379.7,444.3c4.9-1.7,1.5,3.6-1.3,4.6-2.1-.6.8-4.4,1.3-4.6Z"/>
        <path class="st0" d="M342.8,494.6c-2.2,3.3-2.1,1.2-3.3,2-1.5-1.9,2-2.7,3.3-2Z"/>
        <path class="st0" d="M333,296c0,.4-1.6,1.8,1.3,2-9.2,5.8-9.4-11.5-13.4-3.3-4.9-1.4-.3-2.7-.3-2.9,0-.5-3.1-3.3-.3-3.6,4.5,2.4,7.5,8.8,12.7,7.8h0Z"/>
        <path class="st0" d="M343.4,316.9c-6.2,1.7-5.8,3.2-12.7.7,2-3.9,12.9.7,10.1-6.2-1.3-3.4-4.5-.3-4.9-.3-.5,0-.9-1.3-1-1.3,1.6-6.7,4.8-.2,6.9,0,1.9.2,3.6-2,6.5-1.3.4,0,6.5,5.2,6.2,5.6-4.2-1.3-8,3.1-9.5,3.6-.8.3-1.1-.8-1.6-.7h0Z"/>
        <path class="st0" d="M345.1,311.1c1.2,0,.8,3.1,0,3.3-1.3-1-1.4-2.2,0-3.3Z"/>
      </g>
    </g>
    <g id="U.S.">
      <path class="st0" d="M200.4,196.3c-.5-7.2-7-10.5-7.2-17.6l2,.7c0-2-.6-2.2,0-4.2.9-2.8,3.2-9.2,3.6-2.6.7-3.1-1.4-14.8-6.2-14l2-6.5c-7.1,5.9-5.9-6.5-7.8-10.5-.3-.6-1.7,0-2.6-1.3-.4-.7,1.1-1.3.7-2-.2-.3-4.2-3.9-5.2-4.9-.7-.7,1.1-.8-2-1.3-3.7-.6-17.7,6.7-15.4-1.3,4.4.3,7.1.5,10.8-2.3-.3-1.2-11.8,4.8-15.7-1.3-1.1-1.7,3.3-2.1-2.6-3.3,2.5-3.8,3.3.2,6.9-2.3-5.6-3.5,4.8-5.5,8.5-5.2,1,0,4.6,4.6,5.6-.3l-2.9-1.6c2.3-1.2,3.8-.9,6.2-.7.2,0,1.8,2,3.6,1.3,2.4-.9-.4-2.8-.3-2.9.5-.8,2.2.1,2.6-.7.3-.4-.3-2.3,0-2.6,1.2-1.6,4.6-2.9,5.6-5.6,3.7,3.2,9,.6,13.7,3.3,6.1,3.5,1.2,8.8,3.6,13.4.3.5,8.1,6.5,8.8,6.9,5.2,2.6,12,1.7,15,3.3,1.6.8,1.7,3.1,2,3.3.2,0,1.2-2,3.3-2,1.5,0,7.2,6.9,8.2,2.3.4-1.8-3.1-2,1.3-5.9h-4.6c1.9-.4,5.4-4.6,6.2-4.9.9-.3,1.6,1.3,2,1.3.2,0,1.2-1.4,1.3-1.3,1.8.8,4.9,7.1,8.5,6.5-1.7-2.9-1.5-3.3.3-6.5,2.8,2.6,1.9-1.2,4.2-.7,1.8.4.2,2.6.3,2.9.2.4,8.8,3.2-.7,2-.5,7.2,1.9,4.7,4.6,9.8-3.4,1.9-8.8,0-11.4.3-1.5.2-4,2.3-5.9,2.6-.7.1-5-1.4-5.2-1.3-2.4,1.1,3.7,6.7,2,2,2.5.1,3.6.7,5.9-.7l-3.6,2.9c2.5-.2,3.2-.7,4.9,1.6,1.1-5.6,3-.1,5.2,0,.1,0,1.8-1.3,2-1.3,1.8,0,10.5,1.4,10.8,1,.6-.9-.7-1.9-.7-2,.4-.5,2.6-1,2.6-1.3,0-.9-3-.9-3.3-2,0-.2,2.5-2.9,2.6-3.3.4-1.8-.9-5.3,2-7.8-1.1-1.5-6.2,1.8-7.2-1.3-.5-1.4,1.3-2.8,1.3-2.9,3.2,2.7,2.4-9.3,5.9-2.9.3.5,3,9.9,3.3,11.1.1.6-2.2,6.4,1.6,8.8,1.9,0-.9-5.5,5.9-.7,1.6-2-1.9-2.7,1.6-4.9-.4-.8-4.6-1.7-4.9-1.6-2.5.5-.7,3.9-2.9,2.9-1.8-5.2,2.5-4.3,2.6-4.6.4-1.4-.8-6.7,2.6-9.8-.1-.9-7.4,1.7-8.5-.7-1.9-4,2.7-.9,2.9-1,.5-.1.1-1.3.7-1.3,3.4-.3,7.9-.6,10.1,2.3-10.6,6.5-.4,2.3,2.3,2.3,1.8,0,4,2.7,7.2,0-2.2,5.4,0,1.7,2.6,2.6,4.8,1.7,10.7,7.4,16.3,9.8,1.3.6,7.9.5,8.8,1.6.1.2.8,4.4.7,4.6-.6.8-2.1-.1-2.6.7-.4.5,1.2,2.8-.3,2.9-1.8.2-4.4-6.6-7.5-6.2,3,3,5.1,8.8,9.8,7.2-3.5,4,.3,2.6,0,4.6-.1.8-1.9,1-2,1.3,0,.2,1.7,2.2-1,3.6-3.6.9-13.6-7.3-14.4-7.2-.7,0-2.3,4.1-3.9,4.6-9.3-6.7,3.1-9.7,3.6-10.8,1.7-3.6-4.9-2.5-7.5-4.9s2.3,0,1.3-2.6c-4.1,2.3-6.6-4.6-10.1-1.6l3.9,2.6c-.7,1.7-6.7,3.6-6.5,5.2,0,.6,4.2,3.4,3.3,6.5-.3,1.1-8.2,5.7-8.8,2.3,1.1,7.1-4.9,3.6-7.2,4.6-3.9,1.7-7.2,11.2-6.2,14.7.2.6,4.5,3.2,5.2,3.9.6.6-.9,1.9-.3,2.3,1.3.8,3.7-1.3,3.9-1.3.3,0,3.1,3.4,4.6,3.9,3.9,1.3,8.4,1.1,12.1,3.3,3.4,3.7,2.4,17.9,8.8,15,4-1.8,2.1-6,.3-8.8-.6-.9-2.9-.6-2.6-1.3,1.4-3.6,9.4-3.8,7.2-10.1-.8-2.3-3.2-4.5-5.2-5.6l2.6-.7c-6-2.4-1.8-3.6-2-5.2-.3-2.7-5-3.5-2.9-6.9,12.3-3.5,15,4.4,22.9,11.1,3.1,0,2.5-8.2,3.9-10.5,4.5,2.5,7.8,12.7,11.1,14.4.6.3,1.7-1.2,2.6-.7,2.6,1.6,3.3,3.6,4.6,4.6.1,0,2.5-1.1,3.3,0,.8,1.2-.8,1.7-.3,2.3,1.4,1.5,4,0,5.9,2.6.2.2,0,3.9,1.6,4.9,1.3.8,3.3-5.6,4.9,1.3.2.9-.2,2.4,0,3.3l2.6,10.1,2-3.6c1.9,2.3,2.3.2,3.3,1.6.4.6,1.1,3.7-.3,4.2-4.7,0-6.6-1.2-11.8.7l1.3-11.8c-5.9,4.8-9.7,3.5-16,4.6.2-2.5,5.3-1.4,6.2-3.3-12.2-.4-17.7,6-21.2,16.7,7.5-7.7,3-11.3,15-13.4,0,.4,2,2.7,2,2.9-.3,1.1-14.9,4.1-8.8,8.8,3.9-8.9,6.4-1.3,11.4-1,.1.4-5.3,3.9-5.9,5.2-1.1,2.8,1.4,4.9,1.3,5.2-.3,1.8-8.7,4.5-9.1,5.9-.8,2.4,5.6,8.2-3.9,6.5l5.9,2c-1.5,1.2-4.9-.5-5.9,0-2.6,1.3-3.5,16.9-9.1,13.7l.7-8.5c-8.1,5.5.1,7.5,0,14.7-.8,2.3-3.3.7-4.6,1.6-.7.5-9.5,12.8-9.8,13.7-2.6,9.1,3.1,11.5,3.9,18.6.8,6.7-1.1,12.9-6.5,5.2-.1-1.2-1-4-1.3-5.9-.6-3.5.8-4-1.3-7.8-2.6-4.6-12.7-5-17.3-3.9-3.9.9-.2,3.7-2.6,4.6-1.4.5-10.8-7.3-19.6-1.3-.3.2-4.2,5.2-4.2,5.6l-3.9,3.3c-6-1-11.7-17.6-14.1-15.7-1.8,1.4-2.3,6.2-5,6.1-2.5-1.3-3-8.4-5.9-8.7-2.4-.2-2.4,1.6-7.9-.3-6.3-2.2-19.4-14.5-21.2-7.4-.1-5.1-8.8-10.9-9.8-13.8-1.1-3.2.4-10.4-4.6-14l9.1-31.4,2.6-4.9h0Z"/>
    </g>
    <g id="honey">
      <rect class="st1" x="44.3" y="357" width="1" height="62.9" transform="translate(-331.1 280.7) rotate(-67.4)"/>
      <polygon class="st1" points="73.9 401.7 73.5 401.5 14.9 377.1 15.7 375.3 16.1 375.5 74.7 399.8 73.9 401.7"/>
      <rect class="st1" x="5.6" y="358.4" width="40.3" height="1" transform="translate(-298.6 203.2) rotate(-60.3)"/>
      <polygon class="st1" points="16.4 377.3 14.6 376.3 14.9 375.9 35.1 340.5 36.9 341.5 36.6 341.9 16.4 377.3"/>
      <rect class="st1" x="69.1" y="317" width="1" height="71.4" transform="translate(-287 307.5) rotate(-71.6)"/>
      <path class="st1" d="M103.6,365l-68.7-22.8.6-1.9,68.7,22.8-.6,1.9ZM36.2,341.5l66.8,22.2h0l-66.8-22.2h0Z"/>
      <rect class="st1" x="65.1" y="381.7" width="47.1" height="1" transform="translate(-264.5 211.2) rotate(-51.1)"/>
      <path class="st1" d="M74.3,401.6l-1.6-1.3,30.2-37.5,1.6,1.3-30.2,37.5ZM74.2,400.2l29-35.9-29,35.9h0Z"/>
      <rect class="st1" x="46.2" y="416.5" width="37.4" height="1" transform="translate(-332.6 275.3) rotate(-61.5)"/>
      <rect class="st1" x="45.7" y="416" width="38.4" height="2" transform="translate(-332.6 275.3) rotate(-61.5)"/>
      <rect class="st1" x="29.6" y="452.1" width="40.3" height="1" transform="translate(-395.8 358.9) rotate(-71.8)"/>
      <rect class="st1" x="29.1" y="451.6" width="41.3" height="2" transform="translate(-395.8 358.9) rotate(-71.8)"/>
      <rect class="st1" x="43.5" y="471" width="72.6" height="1" transform="translate(-3.7 .6) rotate(-.4)"/>
      <path class="st1" d="M43,472.8v-2s73.6-.6,73.6-.6v2s-73.6.6-73.6.6ZM44,471.8l71.6-.6-71.6.6Z"/>
      <rect class="st1" x="101.9" y="453.8" width="34.2" height="1" transform="translate(-348.8 495.8) rotate(-80.4)"/>
      <path class="st1" d="M117,471.9l-2-.3,5.9-34.7,2,.3-5.9,34.7h0ZM116.2,470.7l5.6-32.8-5.6,32.8Z"/>
      <rect class="st1" x="121.5" y="432.8" width="53.8" height="1" transform="translate(-65.1 28.1) rotate(-8.9)"/>
      <path class="st1" d="M121.5,438.5l-.3-2,54.1-8.4.3,2-54.1,8.4ZM122.3,437.4l52.2-8.1-52.2,8.1Z"/>
      <rect class="st1" x="97" y="388.9" width="1" height="59.5" transform="translate(-294.3 241.9) rotate(-52.6)"/>
      <path class="st1" d="M120.9,437.8l-48.1-36.8,1.2-1.6,48.1,36.8-1.2,1.6ZM74.3,400.9l46.5,35.5s-46.5-35.5-46.5-35.5Z"/>
      <rect class="st1" x="111.8" y="362.8" width="1" height="74.9" transform="translate(-91.2 37.8) rotate(-13.6)"/>
      <polygon class="st1" points="120.3 437.4 120.2 437 102.4 363.6 104.3 363.2 104.4 363.7 122.2 437 120.3 437.4"/>
      <rect class="st1" x="99.7" y="477" width="106.3" height="1" transform="translate(-344.9 417.8) rotate(-65.4)"/>
      <polygon class="st1" points="131.5 526.7 129.7 525.9 129.9 525.4 174.3 428.3 176.1 429.1 175.9 429.6 131.5 526.7"/>
      <rect class="st1" x="123" y="470.2" width="1" height="56.6" transform="translate(-125.1 49.1) rotate(-15)"/>
      <path class="st1" d="M130,526.6v-.5c-.1,0-14.9-55.1-14.9-55.1l1.9-.5v.5c.1,0,14.9,55.1,14.9,55.1l-1.9.5ZM116.2,471.7l14.4,53.7-14.4-53.7h0Z"/>
      <rect class="st1" x="136.5" y="524.8" width="1" height="38.5" transform="translate(-167.8 73.1) rotate(-18.8)"/>
      <rect class="st1" x="136" y="524.3" width="2" height="39.5" transform="translate(-167.8 73) rotate(-18.8)"/>
      <rect class="st1" x="188.8" y="427.4" width="1" height="115.7" transform="translate(-114.1 61.9) rotate(-14.3)"/>
      <path class="st1" d="M202.8,542v-.5c-.1,0-28.9-112.6-28.9-112.6l1.9-.5v.5c.1,0,28.9,112.6,28.9,112.6l-1.9.5h0ZM202.7,537.7l.8,3.1-.8-3.1Z"/>
      <rect class="st1" x="141.4" y="551.3" width="64" height="1" transform="translate(-171.3 87.4) rotate(-19.1)"/>
      <path class="st1" d="M143,563.4l-.7-1.9.5-.2,60.9-21.2.7,1.9-.5.2-60.9,21.2ZM143.7,562.1h0l59.5-20.7h0l-59.5,20.7Z"/>
      <rect class="st1" x="211.1" y="539.6" width="1" height="39.2" transform="translate(-209.4 134.7) rotate(-24)"/>
      <path class="st1" d="M218.8,577.9l-16.4-36.7,1.8-.8,16.4,36.7-1.8.8ZM203.8,541.7l15.6,34.9-15.6-34.9h0Z"/>
      <rect class="st1" x="229.7" y="574.3" width="1" height="43.2" transform="translate(-263.5 190.5) rotate(-29.5)"/>
      <rect class="st1" x="229.2" y="573.8" width="2" height="44.2" transform="translate(-263.5 190.5) rotate(-29.5)"/>
      <rect class="st1" x="203.4" y="537.6" width="67.3" height="1" transform="translate(-49.9 24.9) rotate(-5.4)"/>
      <path class="st1" d="M203.2,542.3l-.2-2h.5s67.5-6.4,67.5-6.4l.2,2h-.5s-67.5,6.4-67.5,6.4h0ZM204.1,541.2h0l66-6.2-66,6.2h0Z"/>
      <rect class="st1" x="281.5" y="531.2" width="1" height="38.7" transform="translate(-270.2 271.9) rotate(-36.1)"/>
      <path class="st1" d="M292.9,567.2l-23.4-32,1.6-1.2,23.4,32-1.6,1.2ZM270.9,535.3l22.2,30.4-22.2-30.4Z"/>
      <rect class="st1" x="231.3" y="589.9" width="71.5" height="1" transform="translate(-329.8 338.1) rotate(-42.7)"/>
      <polygon class="st1" points="241.1 615.8 239.8 614.3 240.2 614 293.1 565.1 294.4 566.6 294.1 566.9 241.1 615.8"/>
      <rect class="st1" x="231.8" y="483.7" width="105.2" height="1" transform="translate(-257.4 631.9) rotate(-74.8)"/>
      <rect class="st1" x="231.3" y="483.2" width="106.2" height="2" transform="translate(-257.4 631.9) rotate(-74.8)"/>
      <rect class="st1" x="236.6" y="368.6" width="1" height="124.3" transform="translate(-199.5 656.8) rotate(-88.5)"/>
      <path class="st1" d="M299.7,433.3l-125.3-3.2v-2c0,0,125.3,3.2,125.3,3.2v2ZM175.5,429.2l123.3,3.1-123.3-3.1Z"/>
      <rect class="st1" x="316.5" y="429.3" width="1" height="107.2" transform="translate(-141.8 131.9) rotate(-19.3)"/>
      <rect class="st1" x="316" y="428.8" width="2" height="108.2" transform="translate(-141.8 131.9) rotate(-19.3)"/>
      <rect class="st1" x="351.2" y="523.6" width="1" height="38.9" transform="translate(-293.8 586.1) rotate(-60.9)"/>
      <rect class="st1" x="350.7" y="523" width="2" height="39.9" transform="translate(-293.8 586.1) rotate(-60.9)"/>
      <rect class="st1" x="360.5" y="466.1" width="1" height="87" transform="translate(-84.4 71.9) rotate(-10.2)"/>
      <path class="st1" d="M367.8,553.1v-.5c0,0-15.6-86.1-15.6-86.1l2-.4v.5c0,0,15.6,86.1,15.6,86.1l-2,.4h0ZM353.4,467.3l15.2,84.6-15.2-84.6h0Z"/>
      <rect class="st1" x="325.8" y="417.7" width="1" height="66" transform="translate(-228.5 493) rotate(-58.5)"/>
      <path class="st1" d="M354.3,469.1l-57.1-35.1,1-1.7,57.1,35.1-1,1.7ZM298.5,433.7l55.4,34-55.4-34Z"/>
      <rect class="st1" x="309.4" y="499.7" width="69.3" height="1" transform="translate(-230 697.7) rotate(-74.5)"/>
      <polygon class="st1" points="335.5 534.3 333.6 533.7 333.7 533.3 352.4 466.1 354.4 466.6 335.5 534.3"/>
      <rect class="st1" x="369.4" y="458" width="1" height="47.3" transform="translate(-235.5 434.2) rotate(-48)"/>
      <rect class="st1" x="368.9" y="457.5" width="2" height="48.3" transform="translate(-235.6 434.2) rotate(-48)"/>
      <rect class="st1" x="402.7" y="486.1" width="1" height="41.2" transform="translate(-233.3 626) rotate(-62.1)"/>
      <path class="st1" d="M421.4,517.5l-.4-.2-36.9-19.5.9-1.8.4.2,36.9,19.5-.9,1.8ZM385.4,497.3l35.6,18.8h0l-35.6-18.8h0Z"/>
      <rect class="st1" x="390.1" y="483.3" width="65.3" height="1" transform="translate(-78 886.3) rotate(-87.6)"/>
      <polygon class="st1" points="422.4 516.9 420.4 516.8 420.4 516.3 423.1 450.6 425.1 450.7 425 451.2 422.4 516.9"/>
      <rect class="st1" x="352.4" y="458.5" width="72.5" height="1" transform="translate(-89.9 94.7) rotate(-12.5)"/>
      <path class="st1" d="M353,467.9l-.4-2h.5c0-.1,71.3-15.9,71.3-15.9l.4,2h-.5c0,.1-71.3,15.9-71.3,15.9ZM353.8,466.7l69.8-15.4-69.8,15.4h0Z"/>
      <rect class="st1" x="439.9" y="435.5" width="1" height="37" transform="translate(-106 772.6) rotate(-76.1)"/>
      <rect class="st1" x="439.4" y="435" width="2" height="38" transform="translate(-106 772.6) rotate(-76.1)"/>
      <rect class="st1" x="457.4" y="450.4" width="55.6" height="1" transform="translate(-103.9 148) rotate(-15.7)"/>
      <path class="st1" d="M458.2,459.5l-.5-1.9h.5c0-.1,54.1-15.3,54.1-15.3l.5,1.9h-.5c0,.1-54.1,15.3-54.1,15.3h0ZM458.9,458.3h0l52.6-14.8-52.6,14.8Z"/>
      <rect class="st1" x="439.4" y="502.9" width="1" height="38.8" transform="translate(-191.2 783) rotate(-72.3)"/>
      <path class="st1" d="M458.5,529.2l-37.9-12.1.6-1.9,37.9,12.1-.6,1.9ZM421.9,516.5l36,11.5-36-11.5Z"/>
      <rect class="st1" x="435" y="485.3" width="100.3" height="1" transform="translate(-184.8 635.6) rotate(-57.6)"/>
      <polygon class="st1" points="458.9 529.1 457.2 528 457.5 527.6 511.4 442.4 513.1 443.5 512.8 443.9 458.9 529.1"/>
      <rect class="st1" x="457.9" y="458.4" width="1" height="69.7"/>
      <path class="st1" d="M459.4,528.6h-2v-70.7s2,0,2,0v70.7ZM458.4,458.9v32.9s0-32.9,0-32.9Z"/>
      <rect class="st1" x="494.4" y="372" width="1" height="75.4" transform="translate(-131.7 267.8) rotate(-26.9)"/>
      <path class="st1" d="M511.3,444.3l-.2-.4-34.3-67.7,1.8-.9.2.4,34.3,67.7-1.8.9h0ZM478.1,376.5l33.6,66.4-33.6-66.4h0Z"/>
      <rect class="st1" x="513.2" y="360.4" width="1" height="88.8" transform="translate(-122.9 554.8) rotate(-51.5)"/>
      <polygon class="st1" points="548.2 433.5 547.8 433.2 477.9 377.6 479.1 376 479.5 376.4 549.4 431.9 548.2 433.5"/>
      <rect class="st1" x="478.8" y="374.1" width="48.7" height="1" transform="translate(-36.7 55.2) rotate(-6.1)"/>
      <rect class="st1" x="478.3" y="373.6" width="49.7" height="2" transform="translate(-36.7 55.2) rotate(-6.1)"/>
      <rect class="st1" x="459.5" y="334.4" width="1" height="49.4" transform="translate(-117.1 445.3) rotate(-46.5)"/>
      <path class="st1" d="M477.6,377.2l-36.6-34.7,1.4-1.5,36.6,34.7-1.4,1.5ZM442.4,342.4l35.1,33.3-35.1-33.3Z"/>
      <rect class="st1" x="438.4" y="324.3" width="85.9" height="1" transform="translate(-90 221.2) rotate(-23.7)"/>
      <rect class="st1" x="437.9" y="323.8" width="86.9" height="2" transform="translate(-90 221.1) rotate(-23.7)"/>
      <rect class="st1" x="524.5" y="306.3" width="1" height="66.8" transform="translate(-30.7 52.9) rotate(-5.6)"/>
      <polygon class="st1" points="527.3 373.5 527.3 373 520.7 306 522.7 305.8 529.3 373.3 527.3 373.5"/>
      <rect class="st1" x="526" y="364.3" width="37.4" height="1" transform="translate(-98.4 237.7) rotate(-22.6)"/>
      <rect class="st1" x="525.5" y="363.8" width="38.4" height="2" transform="translate(-98.4 237.7) rotate(-22.6)"/>
      <rect class="st1" x="540.8" y="300.1" width="1" height="64.9" transform="translate(-88 419.6) rotate(-39.4)"/>
      <path class="st1" d="M561.5,358.6l-.3-.4-41.6-50.5,1.5-1.3.3.4,41.6,50.5-1.5,1.3h0ZM521,307.9l40.6,49.4-40.6-49.4Z"/>
      <rect class="st1" x="560.1" y="348.5" width="43.1" height="1" transform="translate(-90.9 260.7) rotate(-23.5)"/>
      <rect class="st1" x="559.6" y="348" width="44.1" height="2" transform="translate(-90.9 260.7) rotate(-23.5)"/>
      <rect class="st1" x="574.9" y="276.6" width="1" height="74.5" transform="translate(-55.5 491.5) rotate(-44.3)"/>
      <rect class="st1" x="574.4" y="276.1" width="2" height="75.5" transform="translate(-55.5 491.5) rotate(-44.3)"/>
      <rect class="st1" x="518.5" y="295.8" width="34.4" height="1" transform="translate(-72 370.8) rotate(-35.9)"/>
      <rect class="st1" x="518" y="295.3" width="35.4" height="2" transform="translate(-72 370.8) rotate(-35.9)"/>
      <rect class="st1" x="537.4" y="228.9" width="1" height="60" transform="translate(-57.6 216.5) rotate(-21.6)"/>
      <path class="st1" d="M548.3,287.6l-22.5-56.7,1.9-.7,22.5,56.7-1.9.7ZM527.1,231.5l21.7,54.8-21.7-54.8h0Z"/>
      <rect class="st1" x="498" y="243" width="34.3" height="1" transform="translate(-14.8 452.9) rotate(-46.9)"/>
      <rect class="st1" x="497.5" y="242.5" width="35.3" height="2" transform="translate(-14.7 453.1) rotate(-46.9)"/>
      <rect class="st1" x="488" y="236" width="1" height="30.2" transform="translate(107.2 646.5) rotate(-73.3)"/>
      <path class="st1" d="M503.1,256.6l-29.9-9,.6-1.9,29.9,9-.6,1.9ZM474.5,246.9l28,8.4-28-8.4Z"/>
      <rect class="st1" x="407.8" y="293.9" width="100.5" height="1" transform="translate(33.1 634.9) rotate(-71.4)"/>
      <path class="st1" d="M442.8,342.8l-1.9-.6.2-.5,32.1-95.8,1.9.6-.2.5-32.1,95.8ZM442.2,341.6l31.6-94.3-31.6,94.3h0Z"/>
      <rect class="st1" x="378.1" y="395.1" width="110.1" height="1" transform="translate(-31.7 753.4) rotate(-80)"/>
      <polygon class="st1" points="424.5 450.5 422.6 450.1 422.6 449.7 441.8 340.7 443.8 341.1 443.7 341.6 424.5 450.5"/>
      <rect class="st1" x="432" y="175.2" width="1" height="95.7" transform="translate(24.1 487.6) rotate(-60.2)"/>
      <path class="st1" d="M473.9,247.9l-.4-.2-83.5-47.8,1-1.7.4.2,83.5,47.8-1,1.7ZM391.4,199.5l82.2,47-82.2-47Z"/>
      <rect class="st1" x="500.4" y="191.1" width="1" height="57.9" transform="translate(99.3 591.5) rotate(-66.5)"/>
      <path class="st1" d="M527.5,232.7l-.5-.2-53.5-23.3.8-1.8.5.2,53.5,23.3-.8,1.8ZM474.8,208.7l52.2,22.7-52.2-22.7Z"/>
      <rect class="st1" x="466.5" y="193.6" width="34.2" height="1" transform="translate(57.8 494.5) rotate(-57.1)"/>
      <path class="st1" d="M474.9,209.4l-1.7-1.1,19.2-29.6,1.7,1.1-19.2,29.6ZM474.6,208h0l18.1-27.9h0l-18.1,27.9Z"/>
      <rect class="st1" x="466" y="128.4" width="1" height="65" transform="translate(65.1 447.9) rotate(-54.6)"/>
      <path class="st1" d="M492.8,180.8l-53.8-38.2,1.2-1.6,53.8,38.2-1.2,1.6ZM440.4,142.4l52.1,37.1-52.1-37.1Z"/>
      <rect class="st1" x="419" y="157.7" width="33.4" height="1" transform="translate(171.3 538.9) rotate(-75.2)"/>
      <path class="st1" d="M432.3,175.1l-1.9-.5,8.8-33.3,1.9.5-8.8,33.3ZM431.5,173.9l8.3-31.3-8.3,31.3Z"/>
      <rect class="st1" x="377.2" y="169.1" width="77.2" height="1" transform="translate(13.1 368.2) rotate(-48.4)"/>
      <rect class="st1" x="376.7" y="168.6" width="78.2" height="2" transform="translate(13.2 368.4) rotate(-48.5)"/>
      <rect class="st1" x="387.4" y="186.3" width="47.5" height="1" transform="translate(-36.9 243) rotate(-31.6)"/>
      <rect class="st1" x="386.9" y="185.8" width="48.5" height="2" transform="translate(-36.9 243) rotate(-31.6)"/>
      <rect class="st1" x="451.2" y="164.8" width="1" height="52.6" transform="translate(16.4 417.2) rotate(-50.4)"/>
      <path class="st1" d="M471.7,209l-41.3-34.2,1.3-1.5,41.3,34.2-1.3,1.5ZM431.8,174.7l39.8,32.9-39.8-32.9Z"/>
      <rect class="st1" x="455" y="226.8" width="35.9" height="1" transform="translate(234.6 694.8) rotate(-88.7)"/>
      <path class="st1" d="M473.5,245.8h-2s.9-36.9.9-36.9h2s-.9,36.9-.9,36.9ZM472.6,244.8l.8-34.9-.8,34.9Z"/>
      <rect class="st1" x="517.2" y="140.8" width="1" height="91.8" transform="translate(-27.8 113.8) rotate(-12.2)"/>
      <path class="st1" d="M526.5,232.3v-.5c-.1,0-19.6-90.2-19.6-90.2l2-.4v.5c.1,0,19.6,90.2,19.6,90.2l-2,.4ZM508.1,142.3l19.2,88.8-19.2-88.8h0Z"/>
      <rect class="st1" x="480.1" y="160.3" width="40.8" height="1" transform="translate(166.7 566.9) rotate(-68.4)"/>
      <rect class="st1" x="479.6" y="159.8" width="41.8" height="2" transform="translate(166.7 566.9) rotate(-68.4)"/>
      <rect class="st1" x="464.5" y="38.9" width="1" height="120.8" transform="translate(67.3 359.9) rotate(-45.3)"/>
      <polygon class="st1" points="507.6 142.9 507.3 142.5 421 57.1 422.4 55.7 422.8 56.1 509 141.4 507.6 142.9"/>
      <rect class="st1" x="292.8" y="558.8" width="76.5" height="1" transform="translate(-95.1 68.5) rotate(-10.3)"/>
      <path class="st1" d="M293.1,567.2l-.4-2,76.3-13.9.4,2-76.3,13.9h0ZM293.9,566.1l74.3-13.5-74.3,13.5Z"/>
      <rect class="st1" x="92.8" y="449.7" width="1" height="134.7" transform="translate(-352.2 238.6) rotate(-47.8)"/>
      <rect class="st1" x="92.3" y="449.2" width="2" height="135.7" transform="translate(-352.2 238.6) rotate(-47.8)"/>
      <rect class="st1" x="191.5" y="533.1" width="1" height="110.8" transform="translate(-417.3 479.5) rotate(-61.8)"/>
      <rect class="st1" x="191" y="532.6" width="2" height="111.8" transform="translate(-417.3 479.4) rotate(-61.8)"/>
      <rect class="st1" x="367" y="539.8" width="92.9" height="1" transform="translate(-127 127.1) rotate(-15.2)"/>
      <rect class="st1" x="366.5" y="539.3" width="93.9" height="2" transform="translate(-127 127.1) rotate(-15.2)"/>
      <rect class="st1" x="511.2" y="437.4" width="38.1" height="1" transform="translate(-103.6 171.2) rotate(-16.7)"/>
      <path class="st1" d="M511.8,444.5l-.6-1.9,37.4-11.3.6,1.9-37.4,11.3h0ZM512.4,443.2l35.5-10.7-35.5,10.7Z"/>
      <rect class="st1" x="521.9" y="385.9" width="106.2" height="1" transform="translate(-47.2 691.2) rotate(-60)"/>
      <path class="st1" d="M549,433.3l-1.7-1,53.5-92.8,1.7,1-53.5,92.8ZM548.7,432h0l52.5-91.1-52.5,91.1h0Z"/>
      <rect class="st1" x="425.2" y="54.6" width="1" height="40.3" transform="translate(-6.4 83.7) rotate(-11.1)"/>
      <path class="st1" d="M428.7,95.2l-8-40.5,2-.4,8,40.5-2,.4ZM421.9,55.5l7.6,38.6-7.6-38.6Z"/>
      <rect class="st1" x="434.3" y="94" width="1" height="48.7" transform="translate(-15.3 95.9) rotate(-12.4)"/>
      <rect class="st1" x="433.8" y="93.5" width="2" height="49.7" transform="translate(-15.3 95.9) rotate(-12.4)"/>
      <rect class="st1" x="365.5" y="110.3" width="68.1" height="1" transform="translate(-4.5 203.9) rotate(-28.5)"/>
      <rect class="st1" x="365" y="109.8" width="69.1" height="2" transform="translate(-4.5 203.9) rotate(-28.5)"/>
      <rect class="st1" x="378.4" y="124.4" width="1" height="74.6" transform="translate(-30 111.8) rotate(-16.2)"/>
      <path class="st1" d="M388.4,198.3v-.5c-.1,0-21-72.2-21-72.2l1.9-.6v.5c.1,0,21,72.2,21,72.2l-1.9.6h0ZM368.6,126.3l20.5,70.7-20.5-70.7Z"/>
      <rect class="st1" x="365" y="66.9" width="61" height="1" transform="translate(5.5 161.5) rotate(-23.2)"/>
      <path class="st1" d="M367.4,80.5l-.8-1.8,57-24.4.8,1.8-57,24.4ZM367.9,79.2l55.1-23.6-55.1,23.6Z"/>
      <rect class="st1" x="361.3" y="43" width="1" height="37.3" transform="translate(-1.5 114.1) rotate(-17.9)"/>
      <path class="st1" d="M366.7,80.2l-11.8-36.4,1.9-.6,11.8,36.4s-1.9.6-1.9.6ZM356.2,44.4l7.3,22.7-7.3-22.7Z"/>
      <rect class="st1" x="379.5" y="-17.1" width="1" height="96.3" transform="translate(163.8 345.1) rotate(-60.1)"/>
      <path class="st1" d="M421.7,56.1L337.4,7.7l1-1.7,84.3,48.5-1,1.7h0ZM338.7,7.3l82.6,47.5L338.7,7.3Z"/>
      <rect class="st1" x="346.1" y="5.2" width="1" height="39.5" transform="translate(21.9 148.7) rotate(-25)"/>
      <rect class="st1" x="345.6" y="4.7" width="2" height="40.5" transform="translate(21.9 148.7) rotate(-25)"/>
      <rect class="st1" x="280.9" y="29.9" width="67" height="1" transform="translate(68.3 228.5) rotate(-44.4)"/>
      <rect class="st1" x="280.4" y="29.4" width="68" height="2" transform="translate(68.3 228.5) rotate(-44.4)"/>
      <rect class="st1" x="281.2" y="45" width="83" height="1" transform="translate(159.5 327.6) rotate(-68)"/>
      <rect class="st1" x="280.7" y="44.5" width="84" height="2" transform="translate(159.4 327.5) rotate(-67.9)"/>
      <rect class="st1" x="337.9" y="67.5" width="1" height="75.9" transform="translate(59.5 324.2) rotate(-55.4)"/>
      <polygon class="st1" points="369.5 128.1 369.1 127.8 306.2 84.5 307.3 82.8 307.7 83.1 370.6 126.5 369.5 128.1"/>
      <rect class="st1" x="307.1" y="81.2" width="60.5" height="1" transform="translate(-5.2 25.6) rotate(-4.3)"/>
      <polygon class="st1" points="306.7 85 306.6 83 307.1 82.9 367.9 78.4 368.1 80.4 367.6 80.4 306.7 85"/>
      <rect class="st1" x="368" y="80.4" width="1" height="45.5" transform="translate(-.2 .5) rotate(0)"/>
      <path class="st1" d="M367.5,126.3v-46.5c0,0,1.9,0,1.9,0v46.5c0,0-1.9,0-1.9,0ZM368.4,80.9v44.5c0,0,0-44.5,0-44.5Z"/>
      <rect class="st1" x="216.8" y="131.5" width="116.3" height="1" transform="translate(15.9 293.1) rotate(-57.5)"/>
      <path class="st1" d="M244.3,182.1l-1.7-1.1,63-99,1.7,1.1-63,99h0ZM244,180.7l61.9-97.3-61.9,97.3Z"/>
      <rect class="st1" x="226.1" y="56.2" width="64.4" height="1" transform="translate(-4 22.9) rotate(-5)"/>
      <rect class="st1" x="225.6" y="55.7" width="65.4" height="2" transform="translate(-4 22.9) rotate(-5)"/>
      <rect class="st1" x="239" y="53.6" width="1" height="35.3" transform="translate(27.3 203.1) rotate(-48.4)"/>
      <path class="st1" d="M252.4,84l-27.2-24.1,1.3-1.5,27.2,24.1s-1.3,1.5-1.3,1.5ZM226.6,59.8l25.7,22.8-25.7-22.8h0Z"/>
      <rect class="st1" x="250.9" y="83.8" width="56.3" height="1" transform="translate(-1.1 3.8) rotate(-.8)"/>
      <path class="st1" d="M250.4,85.7v-2s57.2-.8,57.2-.8v2s-57.2.8-57.2.8ZM251.4,84.7l55.3-.8-55.3.8Z"/>
      <rect class="st1" x="298.3" y="51.7" width="1" height="34.4" transform="translate(4.2 153.9) rotate(-29.1)"/>
      <path class="st1" d="M306.5,84.9l-17.2-31,1.7-1,17.2,31-1.7,1ZM290.6,54.3l16.3,29.2h0l-16.3-29.2h0Z"/>
      <rect class="st1" x="224.7" y="107.7" width="1" height="78.1" transform="translate(-42.6 124) rotate(-28.2)"/>
      <path class="st1" d="M243.1,182l-.2-.4-37.2-69.2,1.8-.9.2.4,37.2,69.2-1.8.9h0ZM207,112.8l36.5,67.9-36.5-67.9h0Z"/>
      <rect class="st1" x="190.9" y="85.1" width="1" height="35.9" transform="translate(4.4 213.9) rotate(-59)"/>
      <rect class="st1" x="190.4" y="84.6" width="2" height="36.9" transform="translate(4.4 213.9) rotate(-59)"/>
      <rect class="st1" x="170.6" y="75.7" width="62.1" height="1" transform="translate(-7.7 127.6) rotate(-34.5)"/>
      <path class="st1" d="M176.2,94.9l-1.1-1.6,52-35.8,1.1,1.6-52,35.8ZM176.4,93.5l50.3-34.6-50.3,34.6Z"/>
      <rect class="st1" x="202.6" y="97.6" width="53.3" height="1" transform="translate(-16.9 137.9) rotate(-32.4)"/>
      <rect class="st1" x="202.1" y="97.1" width="54.3" height="2" transform="translate(-16.9 137.9) rotate(-32.4)"/>
      <rect class="st1" x="158.2" y="65.6" width="1" height="38.8" transform="translate(11.3 188.4) rotate(-63.2)"/>
      <rect class="st1" x="157.7" y="65.1" width="2" height="39.8" transform="translate(11.3 188.5) rotate(-63.2)"/>
      <rect class="st1" x="142.8" y="76.3" width="1" height="68.1" transform="translate(-6 8.2) rotate(-3.2)"/>
      <rect class="st1" x="142.3" y="75.8" width="2" height="69.1" transform="translate(-6 8.2) rotate(-3.2)"/>
      <rect class="st1" x="93.9" y="147.7" width="51.6" height="1" transform="translate(-20.5 19.3) rotate(-8.5)"/>
      <path class="st1" d="M93.8,153l-.3-2h.5c0,0,51.5-7.7,51.5-7.7l.3,2h-.5c0,0-51.5,7.7-51.5,7.7h0ZM94.7,151.9l50-7.5s-50,7.5-50,7.5Z"/>
      <rect class="st1" x="60.2" y="153.2" width="34" height="1" transform="translate(-15.5 8.8) rotate(-5.9)"/>
      <path class="st1" d="M59.9,156.5l-.2-2,34.9-3.6.2,2-34.9,3.6h0ZM93.7,152l-16.5,1.7,16.5-1.7Z"/>
      <rect class="st1" x="99.1" y="179" width="72.9" height="1" transform="translate(-73.5 262.4) rotate(-74.6)"/>
      <polygon class="st1" points="126.7 215.4 124.8 214.8 124.9 214.4 144.3 143.6 146.3 144.1 146.1 144.6 126.7 215.4"/>
      <rect class="st1" x="69.4" y="152.4" width="1" height="61.9" transform="translate(-59.4 35.7) rotate(-20.3)"/>
      <rect class="st1" x="68.9" y="151.9" width="2" height="62.9" transform="translate(-59.4 35.7) rotate(-20.3)"/>
      <rect class="st1" x="16.3" y="188.1" width="70.3" height="1" transform="translate(-143.8 198) rotate(-77.5)"/>
      <path class="st1" d="M44.7,223.6l-2-.4,15.5-69.6,2,.4-15.5,69.6ZM44,222.4l15.1-67.7-15.1,67.7Z"/>
      <rect class="st1" x="102.8" y="190.9" width="1" height="45.2" transform="translate(-115.2 305.7) rotate(-87.1)"/>
      <path class="st1" d="M126.3,215.6l-46.2-2.4v-2c.1,0,46.3,2.4,46.3,2.4,0,0-.1,2-.1,2ZM81.2,212.3l44.2,2.3h0l-44.2-2.3h0Z"/>
      <rect class="st1" x="4.4" y="230.1" width="40.9" height="1" transform="translate(-84.2 25.9) rotate(-21.9)"/>
      <rect class="st1" x="3.9" y="229.6" width="41.9" height="2" transform="translate(-84.2 25.9) rotate(-21.9)"/>
      <rect class="st1" x="65.2" y="214" width="1" height="62.4" transform="translate(-152.7 115.7) rotate(-44.3)"/>
      <rect class="st1" x="64.7" y="213.5" width="2" height="63.4" transform="translate(-152.7 115.7) rotate(-44.3)"/>
      <rect class="st1" x="10.9" y="237" width="1" height="139.6" transform="translate(-19.1 1.3) rotate(-3.6)"/>
      <path class="st1" d="M14.8,377L6,236.7h2c0-.1,8.8,140.2,8.8,140.2h-2c0,.1,0,.1,0,.1ZM13,332.8l2.7,43.1-2.7-43.1Z"/>
      <rect class="st1" x="15.2" y="312.7" width="59.2" height="1" transform="translate(-267.1 260.1) rotate(-72.2)"/>
      <path class="st1" d="M36.5,342.2l-1.9-.6,18.4-57.3,1.9.6-18.4,57.3ZM35.9,340.9l17.8-55.4-17.8,55.4Z"/>
      <rect class="st1" x="51.7" y="275.8" width="37.9" height="1" transform="translate(-118.9 63.2) rotate(-27.3)"/>
      <path class="st1" d="M53.8,286.1l-.9-1.8,34.6-17.9.9,1.8-34.6,17.9ZM54.3,284.8l32.8-17-32.8,17Z"/>
      <rect class="st1" x="120" y="244.1" width="1" height="69.8" transform="translate(-182.6 301.6) rotate(-70.9)"/>
      <path class="st1" d="M153.6,291.5l-.5-.2-66.4-23,.7-1.9.5.2,66.4,23-.7,1.9h0ZM88,267.7l65,22.5h0l-65-22.5h0Z"/>
      <rect class="st1" x="83.3" y="324.7" width="94.3" height="1" transform="translate(-210.9 246.1) rotate(-55.1)"/>
      <path class="st1" d="M104,364.9l-1.6-1.1,54.5-78.2,1.6,1.1-54.5,78.2ZM103.8,363.5l53.4-76.5-53.4,76.5Z"/>
      <rect class="st1" x="140.1" y="211.8" width="1" height="79.7" transform="translate(-83 69.7) rotate(-21.7)"/>
      <path class="st1" d="M154.5,289.5l-29.8-75,1.9-.7,29.8,75-1.9.7ZM126,215.1l29,73.1-29-73.1Z"/>
      <rect class="st1" x="123.5" y="197.4" width="122.5" height="1" transform="translate(-47.1 58.1) rotate(-15.9)"/>
      <path class="st1" d="M125.6,215.7l-.5-1.9,118.8-33.8.5,1.9-118.8,33.8ZM126.3,214.5l116.9-33.3-116.9,33.3Z"/>
      <rect class="st1" x="195.2" y="113" width="1" height="102" transform="translate(-24.5 293.3) rotate(-70.4)"/>
      <path class="st1" d="M243.9,182.2l-.5-.2-96.6-34.4.7-1.9.5.2,96.6,34.4-.7,1.9h0ZM148.1,147l95.1,33.9h0l-95.1-33.9h0Z"/>
      <rect class="st1" x="43.5" y="114.5" width="114" height="1" transform="translate(-51.6 100.8) rotate(-43.5)"/>
      <path class="st1" d="M59.5,155.4l-1.4-1.5.4-.3,83.1-78.8,1.4,1.5-.4.3-83.1,78.8h0ZM59.5,153.9l82-77.8s-82,77.8-82,77.8Z"/>
      <rect class="st1" x="164.6" y="288" width="1" height="141.9" transform="translate(-48.3 26.5) rotate(-8)"/>
      <polygon class="st1" points="174.1 429.8 174 429.3 154.2 288.3 156.2 288 156.2 288.5 176 429.5 174.1 429.8"/>
      <rect class="st1" x="285.9" y="386" width="170.7" height="1" transform="translate(-149.4 259.4) rotate(-32.4)"/>
      <polygon class="st1" points="299.4 433.4 298.3 431.7 298.7 431.5 443.3 339.7 444.3 341.3 443.9 341.6 299.4 433.4"/>
      <rect class="st1" x="416.7" y="194.5" width="1" height="150.9" transform="translate(-67.8 161.7) rotate(-20.3)"/>
      <polygon class="st1" points="442.6 341.6 442.4 341.1 389.8 199.1 391.7 198.4 391.9 198.9 444.5 340.9 442.6 341.6"/>
      <rect class="st1" x="316.8" y="116" width="1" height="148.3" transform="translate(89.8 481.9) rotate(-83)"/>
      <polygon class="st1" points="391.3 200.3 390.8 200.2 243.1 182 243.3 180 243.8 180.1 391.6 198.3 391.3 200.3"/>
      <rect class="st1" x="127.7" y="235.3" width="141.8" height="1" transform="translate(-109.6 238.9) rotate(-50.5)"/>
      <path class="st1" d="M153.9,291.4l-1.5-1.3,90.9-110.1,1.5,1.3-90.9,110.1h0ZM153.8,290l89.6-108.5-89.6,108.5Z"/>
    </g>
    <g id="dots">
      <circle class="st1" cx="7" cy="237.1" r="5.5"/>
      <path class="st1" d="M7,244.1h0c-1.9,0-3.6-.8-5-2.1-1.3-1.3-2-3.1-2-5,0-1.9.8-3.6,2.1-5,2.8-2.7,7.2-2.7,10,.1,1.3,1.3,2,3.1,2,5,0,1.9-.8,3.6-2.1,5-1.3,1.3-3.1,2-4.9,2h0ZM7,233.1c-1,0-2,.4-2.8,1.1-.8.8-1.2,1.8-1.2,2.8,0,1.1.4,2.1,1.1,2.9.8.8,1.8,1.2,2.8,1.2,1.1,0,2.1-.4,2.9-1.1s1.2-1.8,1.2-2.8c0-1.1-.4-2.1-1.1-2.9-.8-.8-1.8-1.2-2.9-1.2Z"/>
      <circle class="st1" cx="43.9" cy="222.9" r="5.5"/>
      <path class="st1" d="M43.9,230h0c-1.9,0-3.6-.8-5-2.1-1.3-1.3-2-3.1-2-5,0-1.9.8-3.6,2.1-5,1.3-1.3,3.1-2,4.9-2h0c1.9,0,3.6.8,5,2.1,1.3,1.3,2,3.1,2,5,0,1.9-.8,3.6-2.1,5-1.3,1.3-3.1,2-4.9,2ZM43.9,218.9c-1.1,0-2.1.4-2.8,1.1-.8.8-1.2,1.8-1.2,2.8,0,1.1.4,2.1,1.1,2.9.8.8,1.8,1.2,2.8,1.2,1.1,0,2.1-.4,2.9-1.1s1.2-1.8,1.2-2.8c0-1.1-.4-2.1-1.1-2.9-.8-.8-1.8-1.2-2.8-1.2h0Z"/>
      <circle class="st1" cx="80.7" cy="212.3" r="5.5"/>
      <path class="st1" d="M80.7,219.4c-1.8,0-3.7-.7-5-2.1-1.3-1.3-2-3.1-2-5,0-1.9.8-3.6,2.1-5,1.3-1.3,3.1-2,5-2,1.9,0,3.6.8,5,2.1h0c2.7,2.8,2.7,7.2-.1,10-1.4,1.3-3.1,2-4.9,2h0ZM80.7,208.3c-1.1,0-2.1.4-2.8,1.1-.8.8-1.2,1.8-1.2,2.8,0,1.1.4,2.1,1.1,2.9,1.6,1.6,4.1,1.6,5.7,0,1.6-1.6,1.6-4.1,0-5.7-.8-.8-1.8-1.2-2.8-1.2h0,0Z"/>
      <circle class="st1" cx="125.8" cy="214.6" r="5.5"/>
      <path class="st1" d="M125.9,221.7h0c-1.9,0-3.6-.8-5-2.1-1.3-1.3-2-3.1-2-5,0-1.9.8-3.6,2.1-5,1.3-1.3,3.1-2,4.9-2h0c1.9,0,3.6.8,5,2.1,1.3,1.3,2,3.1,2,5,0,1.9-.8,3.6-2.1,5-1.3,1.3-3.1,2-4.9,2ZM125.8,210.6c-1.1,0-2.1.4-2.8,1.1-.8.8-1.2,1.8-1.2,2.8,0,1.1.4,2.1,1.1,2.9.8.8,1.8,1.2,2.8,1.2,1.1,0,2.1-.4,2.9-1.1s1.2-1.8,1.2-2.8c0-1.1-.4-2.1-1.1-2.9-.8-.8-1.8-1.2-2.8-1.2h0,0Z"/>
      <circle class="st1" cx="60.3" cy="155.5" r="5.5"/>
      <path class="st1" d="M60.3,162.5h0c-1.9,0-3.6-.8-5-2.1-1.3-1.3-2-3.1-2-5s.8-3.6,2.1-5c1.3-1.3,3.1-2,4.9-2h0c1.9,0,3.6.8,5,2.1,1.3,1.3,2,3.1,2,5s-.8,3.6-2.1,5c-1.3,1.3-3.1,2-4.9,2ZM60.3,151.4c-1.1,0-2.1.4-2.8,1.1-.8.8-1.2,1.8-1.2,2.8,0,1.1.4,2.1,1.2,2.9.8.8,1.8,1.2,2.8,1.2,1.1,0,2.1-.4,2.9-1.1.8-.8,1.2-1.8,1.2-2.8,0-1.1-.4-2.1-1.2-2.9h0c-.8-.8-1.8-1.2-2.8-1.2h0Z"/>
      <circle class="st1" cx="94.2" cy="152" r="5.5"/>
      <path class="st1" d="M94.2,159c-1.8,0-3.7-.7-5-2.1-1.3-1.3-2-3.1-2-5,0-1.9.8-3.6,2.1-5,1.3-1.3,3.1-2,4.9-2h0c1.9,0,3.6.8,5,2.1,1.3,1.3,2,3.1,2,5,0,1.9-.8,3.6-2.1,5-1.4,1.3-3.1,2-4.9,2ZM94.2,147.9c-1.1,0-2.1.4-2.8,1.1-.8.8-1.2,1.8-1.2,2.8,0,1.1.4,2.1,1.1,2.9,1.6,1.6,4.1,1.6,5.7,0,.8-.8,1.2-1.8,1.2-2.8,0-1.1-.4-2.1-1.1-2.9-.8-.8-1.8-1.2-2.8-1.2h0,0Z"/>
      <circle class="st1" cx="146.2" cy="145.4" r="5.5"/>
      <path class="st1" d="M146.2,152.5h0c-1.9,0-3.6-.8-5-2.1-1.3-1.3-2-3.1-2-5,0-1.9.8-3.6,2.1-5,2.8-2.7,7.2-2.7,10,.1,1.3,1.3,2,3.1,2,5,0,1.9-.8,3.6-2.1,5-1.3,1.3-3.1,2-4.9,2h0ZM146.2,141.4c-1,0-2,.4-2.8,1.1-.8.8-1.2,1.8-1.2,2.8,0,1.1.4,2.1,1.1,2.9.8.8,1.8,1.2,2.8,1.2,1.1,0,2.1-.4,2.9-1.1s1.2-1.8,1.2-2.8c0-1.1-.4-2.1-1.1-2.9-.8-.8-1.8-1.2-2.9-1.2Z"/>
      <circle class="st1" cx="141.3" cy="76.3" r="5.5"/>
      <path class="st1" d="M141.3,83.4h0c-1.9,0-3.6-.8-5-2.1-1.3-1.3-2-3.1-2-5,0-1.9.8-3.6,2.1-5,1.3-1.3,3.1-2,4.9-2h0c1.9,0,3.6.8,5,2.1,1.3,1.3,2,3.1,2,5,0,1.9-.8,3.6-2.1,5-1.3,1.3-3.1,2-4.9,2ZM141.3,72.3c-1.1,0-2.1.4-2.8,1.2-.8.8-1.2,1.8-1.2,2.8,0,1.1.4,2.1,1.1,2.9.8.8,1.8,1.2,2.8,1.2,1.1,0,2.1-.4,2.9-1.1.8-.8,1.2-1.8,1.2-2.8,0-1.1-.4-2.1-1.1-2.9-.8-.8-1.8-1.2-2.8-1.2h0Z"/>
      <circle class="st1" cx="176" cy="93.8" r="5.5"/>
      <path class="st1" d="M176,100.8h0c-1.9,0-3.6-.8-5-2.1-1.3-1.3-2-3.1-2-5,0-1.9.8-3.6,2.1-5,2.8-2.7,7.2-2.7,10,.1,1.3,1.3,2,3.1,2,5,0,1.9-.8,3.6-2.1,5-1.3,1.3-3.1,2-4.9,2ZM176,89.8c-1,0-2,.4-2.8,1.1-.8.8-1.2,1.8-1.2,2.8,0,1.1.4,2.1,1.1,2.9.8.8,1.8,1.2,2.8,1.2,1.1,0,2.1-.4,2.9-1.2s1.2-1.8,1.2-2.8c0-1.1-.4-2.1-1.1-2.9-.8-.8-1.8-1.2-2.9-1.2h0Z"/>
      <circle class="st1" cx="206.8" cy="112.3" r="5.5"/>
      <path class="st1" d="M206.8,119.4h0c-1.9,0-3.6-.8-5-2.1-1.3-1.3-2-3.1-2-5,0-1.9.8-3.6,2.1-5,1.3-1.3,3.1-2,4.9-2h0c1.9,0,3.6.8,5,2.1,1.3,1.3,2,3.1,2,5,0,1.9-.8,3.6-2.1,5-1.3,1.3-3.1,2-4.9,2ZM206.8,108.3c-1.1,0-2.1.4-2.8,1.2-.8.8-1.2,1.8-1.2,2.8,0,1.1.4,2.1,1.1,2.9.8.8,1.8,1.2,2.8,1.2h0c1.1,0,2.1-.4,2.8-1.2.8-.8,1.2-1.8,1.2-2.8,0-1.1-.4-2.1-1.1-2.9-.8-.8-1.8-1.2-2.8-1.2,0,0,0,0,0,0Z"/>
      <circle class="st1" cx="243.7" cy="181.1" r="5.5"/>
      <path class="st1" d="M243.7,188.1h0c-1.9,0-3.6-.8-5-2.1-1.3-1.3-2-3.1-2-5,0-1.9.8-3.6,2.1-5,1.3-1.3,3.1-2,4.9-2h0c1.9,0,3.6.8,5,2.1,1.3,1.3,2,3.1,2,5,0,1.9-.8,3.6-2.1,5-1.3,1.3-3.1,2-4.9,2ZM243.7,177.1c-1.1,0-2.1.4-2.8,1.1-.8.8-1.2,1.8-1.2,2.8,0,1.1.4,2.1,1.1,2.9.8.8,1.8,1.2,2.8,1.2,1.1,0,2.1-.4,2.9-1.1.8-.8,1.2-1.8,1.2-2.8,0-1.1-.4-2.1-1.1-2.9-.8-.8-1.8-1.2-2.8-1.2h0Z"/>
      <circle class="st1" cx="87.5" cy="267.6" r="5.5"/>
      <path class="st1" d="M87.5,274.6h0c-1.9,0-3.6-.8-5-2.1-1.3-1.3-2-3.1-2-5s.8-3.6,2.1-5c2.8-2.7,7.2-2.7,10,.1h0c2.7,2.8,2.7,7.2-.1,10-1.3,1.3-3.1,2-4.9,2h0ZM87.5,263.5c-1,0-2,.4-2.8,1.1-.8.8-1.2,1.8-1.2,2.8,0,1.1.4,2.1,1.2,2.9.8.8,1.8,1.2,2.8,1.2,1.1,0,2.1-.4,2.9-1.1,1.6-1.6,1.6-4.1,0-5.7h0c-.8-.8-1.8-1.2-2.9-1.2h0Z"/>
      <circle class="st1" cx="53.8" cy="285" r="5.5"/>
      <path class="st1" d="M53.8,292h0c-1.9,0-3.6-.8-5-2.1-2.7-2.8-2.7-7.2.1-10,2.8-2.7,7.2-2.7,10,.1,1.3,1.3,2,3.1,2,5,0,1.9-.8,3.6-2.1,5-1.3,1.3-3.1,2-4.9,2h0ZM53.8,281c-1,0-2,.4-2.8,1.1-1.6,1.6-1.6,4.1,0,5.7.8.8,1.8,1.2,2.8,1.2,1.1,0,2.1-.4,2.9-1.1.8-.8,1.2-1.8,1.2-2.8,0-1.1-.4-2.1-1.1-2.9-.8-.8-1.8-1.2-2.9-1.2h0Z"/>
      <circle class="st1" cx="153.5" cy="290.4" r="5.5"/>
      <path class="st1" d="M153.5,297.5h0c-1.9,0-3.6-.8-5-2.1-1.3-1.3-2-3.1-2-5,0-1.9.8-3.6,2.1-5,2.8-2.7,7.2-2.7,10,.1,1.3,1.3,2,3.1,2,5,0,1.9-.8,3.6-2.1,5-1.3,1.3-3.1,2-4.9,2h0ZM153.5,286.4c-1,0-2,.4-2.8,1.1-.8.8-1.2,1.8-1.2,2.8,0,1.1.4,2.1,1.1,2.9.8.8,1.8,1.2,2.8,1.2h0c1.1,0,2.1-.4,2.8-1.1.8-.8,1.2-1.8,1.2-2.8,0-1.1-.4-2.1-1.1-2.9-.8-.8-1.8-1.2-2.9-1.2h0Z"/>
      <circle class="st1" cx="35.7" cy="341.4" r="5.5"/>
      <path class="st1" d="M35.7,348.4h0c-1.9,0-3.6-.8-5-2.1-1.3-1.3-2-3.1-2-5,0-1.9.8-3.6,2.1-5,1.3-1.3,3.1-2,4.9-2h0c1.9,0,3.6.8,5,2.1,1.3,1.3,2,3.1,2,5,0,1.9-.8,3.6-2.1,5-1.3,1.3-3.1,2-4.9,2ZM35.7,337.4c-1.1,0-2.1.4-2.8,1.1-.8.8-1.2,1.8-1.2,2.8,0,1.1.4,2.1,1.1,2.9.8.8,1.8,1.2,2.8,1.2h0c1.1,0,2.1-.4,2.8-1.1.8-.8,1.2-1.8,1.2-2.8,0-1.1-.4-2.1-1.1-2.9-.8-.8-1.8-1.2-2.8-1.2h0Z"/>
      <circle class="st1" cx="103.5" cy="363.9" r="5.5"/>
      <path class="st1" d="M103.5,370.9h0c-1.9,0-3.6-.8-5-2.1-1.3-1.3-2-3.1-2-5,0-1.9.8-3.6,2.1-5,2.8-2.7,7.2-2.7,10,.1,1.3,1.3,2,3.1,2,5,0,1.9-.8,3.6-2.1,5-1.3,1.3-3.1,2-4.9,2h0ZM103.5,359.9c-1,0-2,.4-2.8,1.1-.8.8-1.2,1.8-1.2,2.8,0,1.1.4,2.1,1.1,2.9.8.8,1.8,1.2,2.8,1.2,1.1,0,2.1-.4,2.9-1.1.8-.8,1.2-1.8,1.2-2.8,0-1.1-.4-2.1-1.1-2.9-.8-.8-1.8-1.2-2.9-1.2h0Z"/>
      <circle class="st1" cx="15.8" cy="376.4" r="5.5"/>
      <path class="st1" d="M15.8,383.4h0c-1.9,0-3.6-.8-5-2.1-1.3-1.3-2-3.1-2-5s.8-3.6,2.1-5c2.8-2.7,7.2-2.7,10,.1h0c2.7,2.8,2.7,7.2-.1,10-1.3,1.3-3.1,2-4.9,2h0ZM15.8,372.4c-1,0-2,.4-2.8,1.1-.8.8-1.2,1.8-1.2,2.8s.4,2.1,1.1,2.9,1.8,1.2,2.8,1.2c1.1,0,2.1-.4,2.9-1.1,1.6-1.6,1.6-4.1,0-5.7h0c-.8-.8-1.8-1.2-2.9-1.2h0Z"/>
      <circle class="st1" cx="73.9" cy="400.6" r="5.5"/>
      <path class="st1" d="M73.9,407.6h0c-1.9,0-3.6-.8-5-2.1-1.3-1.3-2-3.1-2-5,0-1.9.8-3.6,2.1-5,1.3-1.3,3.1-2,4.9-2h0c1.9,0,3.6.8,5,2.1,1.3,1.3,2,3.1,2,5,0,1.9-.8,3.6-2.1,5-1.3,1.3-3.1,2-4.9,2ZM73.9,396.5c-1.1,0-2.1.4-2.8,1.1-.8.8-1.2,1.8-1.2,2.8,0,1.1.4,2.1,1.1,2.9.8.8,1.8,1.2,2.8,1.2h0c1.1,0,2.1-.4,2.8-1.1.8-.8,1.2-1.8,1.2-2.8,0-1.1-.4-2.1-1.1-2.9-.8-.8-1.8-1.2-2.8-1.2h0Z"/>
      <circle class="st1" cx="56" cy="433.5" r="5.5"/>
      <path class="st1" d="M56,440.5h0c-1.9,0-3.6-.8-5-2.1-1.3-1.3-2-3.1-2-5,0-1.9.8-3.6,2.1-5,2.8-2.7,7.2-2.7,10,.1,1.3,1.3,2,3.1,2,5,0,1.9-.8,3.6-2.1,5-1.3,1.3-3.1,2-4.9,2h0ZM56,429.4c-1,0-2,.4-2.8,1.1-.8.8-1.2,1.8-1.2,2.8,0,1.1.4,2.1,1.1,2.9.8.8,1.8,1.2,2.8,1.2h0c1.1,0,2.1-.4,2.8-1.1.8-.8,1.2-1.8,1.2-2.8,0-1.1-.4-2.1-1.1-2.9-.8-.8-1.8-1.2-2.9-1.2h0Z"/>
      <circle class="st1" cx="121.8" cy="437.4" r="5.5"/>
      <path class="st1" d="M121.8,444.5h0c-1.9,0-3.6-.8-5-2.1-1.3-1.3-2-3.1-2-5,0-1.9.8-3.6,2.1-5,1.3-1.3,3.2-2.1,5-2,1.9,0,3.6.8,5,2.1h0c2.7,2.8,2.7,7.2-.1,10-1.3,1.3-3.1,2-4.9,2h0ZM121.8,433.4c-1.1,0-2.1.4-2.8,1.1-.8.8-1.2,1.8-1.2,2.8s.4,2.1,1.2,2.9,1.8,1.2,2.8,1.2h0c1.1,0,2.1-.4,2.8-1.1,1.6-1.6,1.6-4.1,0-5.7h0c-.8-.8-1.8-1.2-2.8-1.2h0,0Z"/>
      <circle class="st1" cx="43.5" cy="471.8" r="5.5"/>
      <path class="st1" d="M43.5,478.8h0c-1.9,0-3.6-.8-5-2.1-1.3-1.3-2-3.1-2-5s.8-3.6,2.1-5c1.3-1.3,3.1-2,4.9-2h0c1.9,0,3.6.8,5,2.1,1.3,1.3,2,3.1,2,5s-.8,3.6-2.1,5c-1.3,1.3-3.1,2-4.9,2ZM43.5,467.7c-1.1,0-2.1.4-2.8,1.1-.8.8-1.2,1.8-1.2,2.8,0,1.1.4,2.1,1.2,2.9.8.8,1.8,1.2,2.8,1.2,1,0,2.1-.4,2.9-1.1.8-.8,1.2-1.8,1.2-2.8,0-1.1-.4-2.1-1.2-2.9h0c-.8-.8-1.8-1.2-2.8-1.2h0Z"/>
      <circle class="st1" cx="116.1" cy="471.2" r="5.5"/>
      <path class="st1" d="M116.1,478.2h0c-1.9,0-3.6-.8-5-2.1-1.3-1.3-2-3.1-2-5s.8-3.6,2.1-5c1.3-1.3,3.1-2,5-2,1.9,0,3.6.8,5,2.1,1.3,1.3,2,3.1,2,5,0,1.9-.8,3.6-2.1,5-1.3,1.3-3.1,2-4.9,2h0ZM116.1,467.2c-1.1,0-2.1.4-2.8,1.1-.8.8-1.2,1.8-1.2,2.8s.4,2.1,1.2,2.9c.8.8,1.8,1.2,2.8,1.2,1.1,0,2.1-.4,2.9-1.1s1.2-1.8,1.2-2.8-.4-2.1-1.2-2.9h0c-.8-.8-1.8-1.2-2.8-1.2h0Z"/>
      <circle class="st1" cx="175" cy="429.2" r="5.5"/>
      <path class="st1" d="M175,436.2h0c-1.9,0-3.6-.8-5-2.1-2.7-2.8-2.7-7.2.1-10,1.3-1.3,3.1-2,4.9-2h0c1.9,0,3.6.8,5,2.1,1.3,1.3,2,3.1,2,5,0,1.9-.8,3.6-2.1,5-1.3,1.3-3.1,2-4.9,2h0ZM175,425.1c-1.1,0-2.1.4-2.8,1.1-1.6,1.6-1.6,4.1,0,5.7.8.8,1.8,1.2,2.8,1.2h0c1.1,0,2.1-.4,2.8-1.1.8-.8,1.2-1.8,1.2-2.8s-.4-2.1-1.1-2.9h0c-.8-.8-1.8-1.2-2.8-1.2h0Z"/>
      <circle class="st1" cx="143.2" cy="562.3" r="5.5"/>
      <path class="st1" d="M143.2,569.3h0c-1.9,0-3.6-.8-5-2.1-1.3-1.3-2-3.1-2-5,0-1.9.8-3.6,2.1-5,1.3-1.3,3.1-2,4.9-2h0c1.9,0,3.6.8,5,2.1,1.3,1.3,2,3.1,2,5,0,1.9-.8,3.6-2.1,5-1.3,1.3-3.1,2-4.9,2ZM143.2,558.3c-1.1,0-2.1.4-2.8,1.2-.8.8-1.2,1.8-1.2,2.8,0,1.1.4,2.1,1.1,2.9.8.8,1.8,1.2,2.8,1.2,1.1,0,2.1-.4,2.9-1.1.8-.8,1.2-1.8,1.2-2.8,0-1.1-.4-2.1-1.1-2.9-.8-.8-1.8-1.2-2.8-1.2h0Z"/>
      <circle class="st1" cx="130.8" cy="525.8" r="5.5" transform="translate(-399.1 639.1) rotate(-88.1)"/>
      <path class="st1" d="M130.8,532.9c-1.8,0-3.7-.7-5-2.1-1.3-1.3-2-3.1-2-5,0-1.9.8-3.6,2.1-5,1.3-1.3,3.1-2,4.9-2h0c1.9,0,3.6.8,5,2.1,1.3,1.3,2,3.1,2,5,0,1.9-.8,3.6-2.1,5-1.4,1.3-3.1,2-4.9,2h0ZM130.8,521.8c-1.1,0-2.1.4-2.8,1.2-.8.8-1.2,1.8-1.2,2.8,0,1.1.4,2.1,1.1,2.9,1.6,1.6,4.1,1.6,5.7,0,.8-.8,1.2-1.8,1.2-2.8,0-1.1-.4-2.1-1.1-2.9-.8-.8-1.8-1.2-2.8-1.2h0,0Z"/>
      <circle class="st1" cx="203.6" cy="541.3" r="5.5"/>
      <path class="st1" d="M203.6,548.3h0c-1.9,0-3.6-.8-5-2.1-1.3-1.3-2-3.1-2-5s.8-3.6,2.1-5c1.3-1.3,3.1-2,4.9-2h0c1.9,0,3.6.8,5,2.1h0c2.7,2.8,2.7,7.2-.1,10-1.3,1.3-3.1,2-4.9,2h0ZM203.6,537.2c-1.1,0-2.1.4-2.8,1.2-.8.8-1.2,1.8-1.2,2.8s.4,2.1,1.1,2.9c.8.8,1.8,1.2,2.8,1.2,1.1,0,2.1-.4,2.9-1.1,1.6-1.6,1.6-4.1,0-5.7h0c-.8-.8-1.8-1.2-2.8-1.2h0,0Z"/>
      <circle class="st1" cx="219.6" cy="577.1" r="5.5"/>
      <path class="st1" d="M219.6,584.1h0c-1.9,0-3.6-.8-5-2.1-1.3-1.3-2-3.1-2-5,0-1.9.8-3.6,2.1-5,2.8-2.7,7.2-2.7,10,.1,1.3,1.3,2,3.1,2,5,0,1.9-.8,3.6-2.1,5-1.3,1.3-3.1,2-4.9,2h0ZM219.6,573c-1,0-2,.4-2.8,1.1-.8.8-1.2,1.8-1.2,2.8,0,1.1.4,2.1,1.1,2.9.8.8,1.8,1.2,2.8,1.2h0c1.1,0,2.1-.4,2.8-1.2.8-.8,1.2-1.8,1.2-2.8,0-1.1-.4-2.1-1.1-2.9-.8-.8-1.8-1.2-2.9-1.2h0Z"/>
      <circle class="st1" cx="240.8" cy="614.7" r="5.5"/>
      <path class="st1" d="M240.8,621.7c-1.8,0-3.7-.7-5-2.1-1.3-1.3-2-3.1-2-5,0-1.9.8-3.6,2.1-5,1.3-1.3,3.1-2,4.9-2h0c1.9,0,3.6.8,5,2.1,1.3,1.3,2,3.1,2,5,0,1.9-.8,3.6-2.1,5-1.4,1.3-3.1,2-4.9,2h0ZM240.8,610.6c-1.1,0-2.1.4-2.8,1.2-.8.8-1.2,1.8-1.2,2.8,0,1.1.4,2.1,1.1,2.9,1.6,1.6,4.1,1.6,5.7,0,.8-.8,1.2-1.8,1.2-2.8,0-1.1-.4-2.1-1.1-2.9-.8-.8-1.8-1.2-2.8-1.2h0Z"/>
      <circle class="st1" cx="270.6" cy="534.9" r="5.5"/>
      <path class="st1" d="M270.6,542c-1.8,0-3.7-.7-5-2.1-1.3-1.3-2-3.1-2-5,0-1.9.8-3.6,2.1-5,1.3-1.3,3.1-2,4.9-2h0c1.9,0,3.6.8,5,2.1h0c2.7,2.8,2.7,7.2-.1,10-1.4,1.3-3.1,2-4.9,2h0ZM270.6,530.9c-1.1,0-2.1.4-2.8,1.2-.8.8-1.2,1.8-1.2,2.8,0,1.1.4,2.1,1.1,2.9,1.6,1.6,4.1,1.6,5.7,0,1.6-1.6,1.6-4.1,0-5.7h0c-.8-.8-1.8-1.2-2.8-1.2h0,0Z"/>
      <circle class="st1" cx="293.4" cy="566.2" r="5.5"/>
      <path class="st1" d="M293.4,573.2c-1.8,0-3.7-.7-5-2.1-1.3-1.3-2-3.1-2-5,0-1.9.8-3.6,2.1-5,1.3-1.3,3.1-2,4.9-2h0c1.9,0,3.6.8,5,2.1,1.3,1.3,2,3.1,2,5,0,1.9-.8,3.6-2.1,5-1.4,1.3-3.1,2-4.9,2h0ZM293.4,562.1c-1.1,0-2.1.4-2.8,1.2-.8.8-1.2,1.8-1.2,2.8,0,1.1.4,2.1,1.1,2.9,1.6,1.6,4.1,1.6,5.7,0,.8-.8,1.2-1.8,1.2-2.8,0-1.1-.4-2.1-1.1-2.9-.8-.8-1.8-1.2-2.8-1.2h0,0Z"/>
      <circle class="st1" cx="334.7" cy="533.5" r="5.5"/>
      <path class="st1" d="M334.7,540.6c-1.8,0-3.7-.7-5-2.1-1.3-1.3-2-3.1-2-5,0-1.9.8-3.6,2.1-5,1.3-1.3,3.1-2,4.9-2h0c1.9,0,3.6.8,5,2.1,1.3,1.3,2,3.1,2,5,0,1.9-.8,3.6-2.1,5-1.4,1.3-3.1,2-4.9,2h0ZM334.7,529.5c-1.1,0-2.1.4-2.8,1.2-.8.8-1.2,1.8-1.2,2.8,0,1.1.4,2.1,1.1,2.9,1.6,1.6,4.1,1.6,5.7,0,.8-.8,1.2-1.8,1.2-2.8,0-1.1-.4-2.1-1.1-2.9-.8-.8-1.8-1.2-2.8-1.2h0,0Z"/>
      <circle class="st1" cx="368.7" cy="552.4" r="5.5"/>
      <path class="st1" d="M368.7,559.5c-1.8,0-3.7-.7-5-2.1-2.7-2.8-2.7-7.2.1-10,1.3-1.3,3.1-2,4.9-2h0c1.9,0,3.6.8,5,2.1,1.3,1.3,2,3.1,2,5,0,1.9-.8,3.6-2.1,5-1.4,1.3-3.1,2-4.9,2h0ZM368.7,548.4c-1.1,0-2.1.4-2.8,1.2-1.6,1.6-1.6,4.1,0,5.7,1.6,1.6,4.1,1.6,5.7,0,.8-.8,1.2-1.8,1.2-2.8s-.4-2.1-1.1-2.9h0c-.8-.8-1.8-1.2-2.8-1.2h0Z"/>
      <circle class="st1" cx="353.3" cy="466.8" r="5.5"/>
      <path class="st1" d="M353.3,473.9c-1.8,0-3.7-.7-5-2.1-2.7-2.8-2.7-7.2.1-10,1.3-1.3,3.1-2,4.9-2h0c1.9,0,3.6.8,5,2.1h0c2.7,2.8,2.7,7.2-.1,10-1.4,1.3-3.1,2-4.9,2h0ZM353.3,462.8c-1.1,0-2.1.4-2.8,1.1-.8.8-1.2,1.8-1.2,2.8,0,1.1.4,2.1,1.1,2.9,1.6,1.6,4.1,1.6,5.7,0,1.6-1.6,1.6-4.1,0-5.7h0c-.8-.8-1.8-1.2-2.8-1.2h0,0Z"/>
      <circle class="st1" cx="298.1" cy="433.4" r="5.5"/>
      <path class="st1" d="M298.1,440.5h0c-1.9,0-3.6-.8-5-2.1-1.3-1.3-2-3.1-2-5s.8-3.6,2.1-5c1.3-1.3,3.1-2,5-2,1.9,0,3.6.8,5,2.1,1.3,1.3,2,3.1,2,5,0,1.9-.8,3.6-2.1,5-1.3,1.3-3.1,2-4.9,2h0ZM298.1,429.4c-1.1,0-2.1.4-2.8,1.1-.8.8-1.2,1.8-1.2,2.8s.4,2.1,1.1,2.9c.8.8,1.8,1.2,2.8,1.2h0c1.1,0,2.1-.4,2.8-1.1.8-.8,1.2-1.8,1.2-2.8s-.4-2.1-1.1-2.9h0c-.8-.8-1.8-1.2-2.8-1.2h0Z"/>
      <circle class="st1" cx="387.4" cy="497.5" r="5.5"/>
      <path class="st1" d="M387.4,504.5c-1.8,0-3.7-.7-5-2.1-1.3-1.3-2-3.1-2-5,0-1.9.8-3.6,2.1-5,1.3-1.3,3.1-2,5-2,1.9,0,3.6.8,5,2.1h0c1.3,1.3,2,3.1,2,5,0,1.9-.8,3.6-2.1,5-1.4,1.3-3.1,2-4.9,2ZM387.4,493.4c-1.1,0-2.1.4-2.8,1.1-.8.8-1.2,1.8-1.2,2.8,0,1.1.4,2.1,1.1,2.9,1.6,1.6,4.1,1.6,5.7,0,.8-.8,1.2-1.8,1.2-2.8,0-1.1-.4-2.1-1.1-2.9h0c-.8-.8-1.8-1.2-2.8-1.2h0,0Z"/>
      <circle class="st1" cx="421.4" cy="516.4" r="5.5"/>
      <path class="st1" d="M421.4,523.4h0c-1.9,0-3.6-.8-5-2.1-1.3-1.3-2-3.1-2-5,0-1.9.8-3.6,2.1-5,1.3-1.3,3.1-2,4.9-2h0c1.9,0,3.6.8,5,2.1,1.3,1.3,2,3.1,2,5,0,1.9-.8,3.6-2.1,5-1.3,1.3-3.1,2-4.9,2h0ZM421.4,512.3c-1.1,0-2.1.4-2.8,1.2-.8.8-1.2,1.8-1.2,2.8,0,1.1.4,2.1,1.1,2.9.8.8,1.8,1.2,2.8,1.2h0c1.1,0,2.1-.4,2.8-1.2.8-.8,1.2-1.8,1.2-2.8,0-1.1-.4-2.1-1.1-2.9-.8-.8-1.8-1.2-2.8-1.2h0Z"/>
      <circle class="st1" cx="458.4" cy="528.1" r="5.5"/>
      <path class="st1" d="M458.4,535.2h0c-1.9,0-3.6-.8-5-2.1-1.3-1.3-2-3.1-2-5,0-1.9.8-3.6,2.1-5,1.3-1.3,3.1-2,4.9-2h0c1.9,0,3.6.8,5,2.1,1.3,1.3,2,3.1,2,5,0,1.9-.8,3.6-2.1,5-1.3,1.3-3.1,2-4.9,2ZM458.4,524.1c-1.1,0-2.1.4-2.8,1.2-.8.8-1.2,1.8-1.2,2.8,0,1.1.4,2.1,1.1,2.9.8.8,1.8,1.2,2.8,1.2h0c1.1,0,2.1-.4,2.8-1.2.8-.8,1.2-1.8,1.2-2.8,0-1.1-.4-2.1-1.1-2.9-.8-.8-1.8-1.2-2.8-1.2h0Z"/>
      <circle class="st1" cx="424" cy="451.2" r="5.5"/>
      <path class="st1" d="M424,458.2h0c-1.9,0-3.6-.8-5-2.1-1.3-1.3-2-3.1-2-5,0-1.9.8-3.6,2.1-5,2.8-2.7,7.2-2.7,10,.1,1.3,1.3,2,3.1,2,5,0,1.9-.8,3.6-2.1,5-1.3,1.3-3.1,2-4.9,2h0ZM424,447.1c-1,0-2,.4-2.8,1.1-.8.8-1.2,1.8-1.2,2.8,0,1.1.4,2.1,1.1,2.9.8.8,1.8,1.2,2.8,1.2,1.1,0,2.1-.4,2.9-1.1.8-.8,1.2-1.8,1.2-2.8,0-1.1-.4-2.1-1.1-2.9-.8-.8-1.8-1.2-2.9-1.2h0Z"/>
      <circle class="st1" cx="458.4" cy="458.4" r="5.5"/>
      <path class="st1" d="M458.4,465.5h0c-1.9,0-3.6-.8-5-2.1-1.3-1.3-2-3.1-2-5,0-1.9.8-3.6,2.1-5,1.3-1.3,3.1-2,4.9-2h0c1.9,0,3.6.8,5,2.1,1.3,1.3,2,3.1,2,5,0,1.9-.8,3.6-2.1,5-1.3,1.3-3.1,2-4.9,2ZM458.4,454.4c-1.1,0-2.1.4-2.8,1.1-.8.8-1.2,1.8-1.2,2.8,0,1.1.4,2.1,1.1,2.9.8.8,1.8,1.2,2.8,1.2h0c1.1,0,2.1-.4,2.8-1.1.8-.8,1.2-1.8,1.2-2.8,0-1.1-.4-2.1-1.1-2.9-.8-.8-1.8-1.2-2.8-1.2h0Z"/>
      <circle class="st1" cx="512" cy="443.4" r="5.5"/>
      <path class="st1" d="M512,450.4h0c-1.9,0-3.6-.8-5-2.1-1.3-1.3-2-3.1-2-5s.8-3.6,2.1-5c1.3-1.3,3.1-2,4.9-2h0c1.9,0,3.6.8,5,2.1,1.3,1.3,2,3.1,2,5s-.8,3.6-2.1,5c-1.3,1.3-3.1,2-4.9,2ZM512,439.3c-1.1,0-2.1.4-2.8,1.1-.8.8-1.2,1.8-1.2,2.8,0,1.1.4,2.1,1.1,2.9.8.8,1.8,1.2,2.8,1.2h0c1.1,0,2.1-.4,2.8-1.1.8-.8,1.2-1.8,1.2-2.8,0-1.1-.4-2.1-1.2-2.9h0c-.8-.8-1.8-1.2-2.8-1.2h0,0Z"/>
      <circle class="st1" cx="548.4" cy="432.4" r="5.5"/>
      <path class="st1" d="M548.4,439.4h0c-1.9,0-3.6-.8-5-2.1-1.3-1.3-2-3.1-2-5,0-1.9.8-3.6,2.1-5,1.3-1.3,3.1-2,4.9-2h0c1.9,0,3.6.8,5,2.1,1.3,1.3,2,3.1,2,5,0,1.9-.8,3.6-2.1,5-1.3,1.3-3.1,2-4.9,2ZM548.4,428.4c-1.1,0-2.1.4-2.8,1.1-.8.8-1.2,1.8-1.2,2.8,0,1.1.4,2.1,1.1,2.9.8.8,1.8,1.2,2.8,1.2h0c1.1,0,2.1-.4,2.8-1.1.8-.8,1.2-1.8,1.2-2.8,0-1.1-.4-2.1-1.1-2.9-.8-.8-1.8-1.2-2.8-1.2h0Z"/>
      <circle class="st1" cx="561.9" cy="357.6" r="5.5"/>
      <path class="st1" d="M561.9,364.7h0c-1.9,0-3.6-.8-5-2.1-1.3-1.3-2-3.1-2-5,0-1.9.8-3.6,2.1-5,1.3-1.3,3.1-2,4.9-2h0c1.9,0,3.6.8,5,2.1h0c2.7,2.8,2.7,7.2-.1,10-1.3,1.3-3.1,2-4.9,2ZM561.9,353.6c-1.1,0-2.1.4-2.8,1.1-.8.8-1.2,1.8-1.2,2.8,0,1.1.4,2.1,1.1,2.9.8.8,1.8,1.2,2.8,1.2,1.1,0,2.1-.4,2.9-1.1,1.6-1.6,1.6-4.1,0-5.7h0c-.8-.8-1.8-1.2-2.8-1.2h0,0Z"/>
      <circle class="st1" cx="478.9" cy="377.1" r="5.5"/>
      <path class="st1" d="M478.9,384.2h0c-1.9,0-3.6-.8-5-2.1-1.3-1.3-2-3.1-2-5,0-1.9.8-3.6,2.1-5,2.8-2.7,7.2-2.7,10,.1,1.3,1.3,2,3.1,2,5,0,1.9-.8,3.6-2.1,5-1.3,1.3-3.1,2-4.9,2h0ZM478.9,373.1c-1,0-2,.4-2.8,1.1-.8.8-1.2,1.8-1.2,2.8,0,1.1.4,2.1,1.1,2.9.8.8,1.8,1.2,2.8,1.2,1.1,0,2.1-.4,2.9-1.1.8-.8,1.2-1.8,1.2-2.8,0-1.1-.4-2.1-1.1-2.9-.8-.8-1.8-1.2-2.9-1.2h0Z"/>
      <circle class="st1" cx="443.4" cy="340.8" r="5.5"/>
      <path class="st1" d="M443.4,347.8h0c-1.9,0-3.6-.8-5-2.1-1.3-1.3-2-3.1-2-5,0-1.9.8-3.6,2.1-5,2.8-2.7,7.2-2.7,10,.1h0c1.3,1.3,2,3.1,2,5s-.8,3.6-2.1,5c-1.3,1.3-3.1,2-4.9,2h0ZM443.4,336.7c-1,0-2,.4-2.8,1.1-.8.8-1.2,1.8-1.2,2.8,0,1.1.4,2.1,1.1,2.9.8.8,1.8,1.2,2.8,1.2h0c1.1,0,2.1-.4,2.8-1.1.8-.8,1.2-1.8,1.2-2.8,0-1.1-.4-2.1-1.1-2.9h0c-.8-.8-1.8-1.2-2.9-1.2h0Z"/>
      <circle class="st1" cx="527.4" cy="372" r="5.5"/>
      <path class="st1" d="M527.4,379h0c-1.9,0-3.6-.8-5-2.1-1.3-1.3-2-3.1-2-5,0-1.9.8-3.6,2.1-5,1.3-1.3,3.2-2.1,5-2,1.9,0,3.6.8,5,2.1,1.3,1.3,2,3.1,2,5,0,1.9-.8,3.6-2.1,5-1.3,1.3-3.1,2-4.9,2h0ZM527.4,368c-1.1,0-2.1.4-2.8,1.1-.8.8-1.2,1.8-1.2,2.8,0,1.1.4,2.1,1.1,2.9.8.8,1.8,1.2,2.8,1.2h0c1.1,0,2.1-.4,2.8-1.1.8-.8,1.2-1.8,1.2-2.8,0-1.1-.4-2.1-1.1-2.9-.8-.8-1.8-1.2-2.8-1.2h0Z"/>
      <circle class="st1" cx="601.4" cy="340.5" r="5.5"/>
      <path class="st1" d="M601.4,347.5h0c-1.9,0-3.6-.8-5-2.1-2.7-2.8-2.7-7.2.1-10,1.3-1.3,3.1-2,4.9-2h0c1.9,0,3.6.8,5,2.1,1.3,1.3,2,3.1,2,5,0,1.9-.8,3.6-2.1,5-1.3,1.3-3.1,2-4.9,2h0ZM601.4,336.4c-1.1,0-2.1.4-2.8,1.1-1.6,1.6-1.6,4.1,0,5.7.8.8,1.8,1.2,2.8,1.2,1.1,0,2.1-.4,2.9-1.1.8-.8,1.2-1.8,1.2-2.8s-.4-2.1-1.2-2.9-1.8-1.2-2.8-1.2h0Z"/>
      <circle class="st1" cx="549.4" cy="287.2" r="5.5"/>
      <path class="st1" d="M549.4,294.2h0c-1.9,0-3.6-.8-5-2.1-1.3-1.3-2-3.1-2-5,0-1.9.8-3.6,2.1-5,1.3-1.3,3.1-2,4.9-2h0c1.9,0,3.6.8,5,2.1h0c2.7,2.8,2.7,7.2-.1,10-1.3,1.3-3.1,2-4.9,2ZM549.4,283.1c-1.1,0-2.1.4-2.8,1.1-.8.8-1.2,1.8-1.2,2.8,0,1.1.4,2.1,1.1,2.9.8.8,1.8,1.2,2.8,1.2,1.1,0,2.1-.4,2.9-1.1,1.6-1.6,1.6-4.1,0-5.7h0c-.8-.8-1.8-1.2-2.8-1.2h0,0Z"/>
      <circle class="st1" cx="503.5" cy="256" r="5.5"/>
      <path class="st1" d="M503.5,263.1h0c-1.9,0-3.6-.8-5-2.1-1.3-1.3-2-3.1-2-5,0-1.9.8-3.6,2.1-5,2.8-2.7,7.2-2.7,10,.1h0c2.7,2.8,2.7,7.2-.1,10-1.3,1.3-3.1,2-4.9,2h0ZM503.5,252c-1,0-2,.4-2.8,1.1-.8.8-1.2,1.8-1.2,2.8,0,1.1.4,2.1,1.1,2.9.8.8,1.8,1.2,2.8,1.2,1,0,2.1-.4,2.9-1.1,1.6-1.6,1.6-4.1,0-5.7h0c-.8-.8-1.8-1.2-2.9-1.2h0Z"/>
      <circle class="st1" cx="520.7" cy="307.5" r="5.5"/>
      <path class="st1" d="M520.7,314.5h0c-1.9,0-3.6-.8-5-2.1-1.3-1.3-2-3.1-2-5,0-1.9.8-3.6,2.1-5,1.3-1.3,3.1-2,4.9-2h0c1.9,0,3.6.8,5,2.1h0c2.7,2.8,2.7,7.2-.1,10-1.3,1.3-3.1,2-4.9,2ZM520.7,303.4c-1.1,0-2.1.4-2.8,1.1-.8.8-1.2,1.8-1.2,2.8,0,1.1.4,2.1,1.1,2.9.8.8,1.8,1.2,2.8,1.2h0c1.1,0,2.1-.4,2.8-1.1,1.6-1.6,1.6-4.1,0-5.7h0c-.8-.8-1.8-1.2-2.8-1.2h0,0Z"/>
      <circle class="st1" cx="474" cy="246.8" r="5.5"/>
      <path class="st1" d="M474,253.8c-1.8,0-3.7-.7-5-2.1-1.3-1.3-2-3.1-2-5s.8-3.6,2.1-5c1.3-1.3,3.1-2,4.9-2h0c1.9,0,3.6.8,5,2.1,1.3,1.3,2,3.1,2,5,0,1.9-.8,3.6-2.1,5-1.4,1.3-3.1,2-4.9,2h0ZM474,242.7c-1.1,0-2.1.4-2.8,1.1-.8.8-1.2,1.8-1.2,2.8,0,1.1.4,2.1,1.1,2.9,1.6,1.6,4.1,1.6,5.7,0,.8-.8,1.2-1.8,1.2-2.8,0-1.1-.4-2.1-1.1-2.9-.8-.8-1.8-1.2-2.8-1.2h0,0Z"/>
      <circle class="st1" cx="526.9" cy="231" r="5.5"/>
      <path class="st1" d="M526.9,238.1h0c-1.9,0-3.6-.8-5-2.1-1.3-1.3-2-3.1-2-5,0-1.9.8-3.6,2.1-5s3.1-2,5-2c1.9,0,3.6.8,5,2.1,1.3,1.3,2,3.1,2,5,0,1.9-.8,3.6-2.1,5-1.3,1.3-3.1,2-4.9,2ZM526.9,227c-1.1,0-2.1.4-2.8,1.1-.8.8-1.2,1.8-1.2,2.8,0,1.1.4,2.1,1.1,2.9.8.8,1.8,1.2,2.8,1.2h0c1.1,0,2.1-.4,2.8-1.1.8-.8,1.2-1.8,1.2-2.8,0-1.1-.4-2.1-1.1-2.9-.8-.8-1.8-1.2-2.8-1.2h0Z"/>
      <circle class="st1" cx="473.4" cy="209.4" r="5.5"/>
      <path class="st1" d="M473.4,216.4h0c-1.9,0-3.6-.8-5-2.1-1.3-1.3-2-3.1-2-5s.8-3.6,2.1-5c1.3-1.3,3.1-2,4.9-2h0c1.9,0,3.6.8,5,2.1h0c2.7,2.8,2.7,7.2-.1,10-1.3,1.3-3.1,2-4.9,2h0ZM473.4,205.4c-1.1,0-2.1.4-2.8,1.1-.8.8-1.2,1.8-1.2,2.8s.4,2.1,1.1,2.9c.8.8,1.8,1.2,2.8,1.2h0c1.1,0,2.1-.4,2.8-1.1,1.6-1.6,1.6-4.1,0-5.7h0c-.8-.8-1.8-1.2-2.8-1.2h0,0Z"/>
      <circle class="st1" cx="492.9" cy="179.7" r="5.5"/>
      <path class="st1" d="M492.9,186.8h0c-1.9,0-3.6-.8-5-2.1-1.3-1.3-2-3.1-2-5,0-1.9.8-3.6,2.1-5,1.3-1.3,3.1-2,4.9-2h0c1.9,0,3.6.8,5,2.1,1.3,1.3,2,3.1,2,5,0,1.9-.8,3.6-2.1,5-1.3,1.3-3.1,2-4.9,2ZM492.9,175.7c-1.1,0-2.1.4-2.8,1.1-.8.8-1.2,1.8-1.2,2.8,0,1.1.4,2.1,1.1,2.9.8.8,1.8,1.2,2.8,1.2,1.1,0,2.1-.4,2.9-1.1.8-.8,1.2-1.8,1.2-2.8,0-1.1-.4-2.1-1.1-2.9-.8-.8-1.8-1.2-2.8-1.2h0Z"/>
      <circle class="st1" cx="508" cy="141.8" r="5.5"/>
      <path class="st1" d="M508,148.8h0c-1.9,0-3.6-.8-5-2.1-1.3-1.3-2-3.1-2-5,0-1.9.8-3.6,2.1-5,1.3-1.3,3.2-2.1,5-2,1.9,0,3.6.8,5,2.1,1.3,1.3,2,3.1,2,5,0,1.9-.8,3.6-2.1,5-1.3,1.3-3.1,2-4.9,2h0ZM508,137.8c-1.1,0-2.1.4-2.8,1.1-.8.8-1.2,1.8-1.2,2.8,0,1.1.4,2.1,1.1,2.9.8.8,1.8,1.2,2.8,1.2h0c1.1,0,2.1-.4,2.8-1.1.8-.8,1.2-1.8,1.2-2.8,0-1.1-.4-2.1-1.1-2.9-.8-.8-1.8-1.2-2.8-1.2h0Z"/>
      <circle class="st1" cx="431.4" cy="174.4" r="5.5"/>
      <path class="st1" d="M431.4,181.4h0c-1.9,0-3.6-.8-5-2.1-1.3-1.3-2-3.1-2-5s.8-3.6,2.1-5c1.3-1.3,3.1-2,4.9-2h0c1.9,0,3.6.8,5,2.1,1.3,1.3,2,3.1,2,5,0,1.9-.8,3.6-2.1,5-1.3,1.3-3.1,2-4.9,2ZM431.4,170.3c-1.1,0-2.1.4-2.8,1.1-.8.8-1.2,1.8-1.2,2.8s.4,2.1,1.1,2.9c.8.8,1.8,1.2,2.8,1.2,1.1,0,2.1-.4,2.9-1.1.8-.8,1.2-1.8,1.2-2.8s-.4-2.1-1.1-2.9h0c-.8-.8-1.8-1.2-2.8-1.2h0Z"/>
      <circle class="st1" cx="390.2" cy="198.5" r="5.5"/>
      <path class="st1" d="M390.2,205.5h0c-1.9,0-3.6-.8-5-2.1-2.7-2.8-2.7-7.2.1-10,1.3-1.3,3.1-2,4.9-2h0c1.9,0,3.6.8,5,2.1,1.3,1.3,2,3.1,2,5,0,1.9-.8,3.6-2.1,5-1.3,1.3-3.1,2-4.9,2h0ZM390.2,194.4c-1.1,0-2.1.4-2.8,1.1-1.6,1.6-1.6,4.1,0,5.7.8.8,1.8,1.2,2.8,1.2,1.1,0,2.1-.4,2.9-1.1.8-.8,1.2-1.8,1.2-2.8s-.4-2.1-1.1-2.9h0c-.8-.8-1.8-1.2-2.8-1.2h0Z"/>
      <circle class="st1" cx="440" cy="142.1" r="5.5"/>
      <path class="st1" d="M440,149.1h0c-1.9,0-3.6-.8-5-2.1-1.3-1.3-2-3.1-2-5,0-1.9.8-3.6,2.1-5,1.3-1.3,3.1-2,4.9-2h0c1.9,0,3.6.8,5,2.1,1.3,1.3,2,3.1,2,5,0,1.9-.8,3.6-2.1,5-1.3,1.3-3.1,2-4.9,2ZM440,138c-1.1,0-2.1.4-2.8,1.1-.8.8-1.2,1.8-1.2,2.8,0,1.1.4,2.1,1.1,2.9.8.8,1.8,1.2,2.8,1.2,1.1,0,2.1-.4,2.9-1.1.8-.8,1.2-1.8,1.2-2.8,0-1.1-.4-2.1-1.1-2.9-.8-.8-1.8-1.2-2.8-1.2h0Z"/>
      <circle class="st1" cx="430.6" cy="93.5" r="5.5"/>
      <path class="st1" d="M430.6,100.6c-1.8,0-3.7-.7-5-2.1-2.7-2.8-2.7-7.2.1-10,1.3-1.3,3.1-2,4.9-2h0c1.9,0,3.6.8,5,2.1,1.3,1.3,2,3.1,2,5,0,1.9-.8,3.6-2.1,5-1.4,1.3-3.1,2-4.9,2h0ZM430.6,89.5c-1.1,0-2.1.4-2.8,1.2-1.6,1.6-1.6,4.1,0,5.7,1.6,1.6,4.1,1.6,5.7,0,.8-.8,1.2-1.8,1.2-2.8s-.4-2.1-1.1-2.9h0c-.8-.8-1.8-1.2-2.8-1.2h0Z"/>
      <circle class="st1" cx="422.1" cy="56.8" r="5.5"/>
      <path class="st1" d="M422.1,63.8c-1.8,0-3.7-.7-5-2.1-1.3-1.3-2-3.1-2-5,0-1.9.8-3.6,2.1-5,1.3-1.3,3.1-2,4.9-2h0c1.9,0,3.6.8,5,2.1,1.3,1.3,2,3.1,2,5,0,1.9-.8,3.6-2.1,5-1.4,1.3-3.1,2-4.9,2h0ZM422.1,52.7c-1.1,0-2.1.4-2.8,1.2-.8.8-1.2,1.8-1.2,2.8,0,1.1.4,2.1,1.1,2.9,1.6,1.6,4.1,1.6,5.7,0,.8-.8,1.2-1.8,1.2-2.8,0-1.1-.4-2.1-1.1-2.9-.8-.8-1.8-1.2-2.8-1.2h0,0Z"/>
      <circle class="st1" cx="369.7" cy="127" r="5.5"/>
      <path class="st1" d="M369.7,134.1h0c-1.9,0-3.6-.8-5-2.1-1.3-1.3-2-3.1-2-5s.8-3.6,2.1-5c1.3-1.3,3.1-2,5-2,1.9,0,3.6.8,5,2.1h0c2.7,2.8,2.7,7.2-.1,10-1.3,1.3-3.1,2-4.9,2h0ZM369.7,123c-1.1,0-2.1.4-2.8,1.2-.8.8-1.2,1.8-1.2,2.8s.4,2.1,1.1,2.9c.8.8,1.8,1.2,2.8,1.2,1.1,0,2.1-.4,2.9-1.1,1.6-1.6,1.6-4.1,0-5.7h0c-.8-.8-1.8-1.2-2.8-1.2h0,0Z"/>
      <circle class="st1" cx="368.4" cy="80.4" r="5.5"/>
      <path class="st1" d="M368.4,87.4h0c-1.9,0-3.6-.8-5-2.1-1.3-1.3-2-3.1-2-5s.8-3.6,2.1-5c2.8-2.7,7.2-2.7,10,.1h0c1.3,1.3,2,3.1,2,5s-.8,3.6-2.1,5c-1.3,1.3-3.1,2-4.9,2ZM368.4,76.3c-1.1,0-2.1.4-2.8,1.2-.8.8-1.2,1.8-1.2,2.8,0,1.1.4,2.1,1.1,2.9.8.8,1.8,1.2,2.8,1.2,1.1,0,2.1-.4,2.9-1.2.8-.8,1.2-1.8,1.2-2.8,0-1.1-.4-2.1-1.1-2.9h0c-.8-.8-1.8-1.2-2.8-1.2,0,0,0,0,0,0Z"/>
      <circle class="st1" cx="356" cy="43.9" r="5.5"/>
      <path class="st1" d="M356,51h0c-1.9,0-3.6-.8-5-2.1-1.3-1.3-2-3.1-2-5s.8-3.6,2.1-5c1.3-1.3,3.1-2,4.9-2h0c1.9,0,3.6.8,5,2.1,1.3,1.3,2,3.1,2,5,0,1.9-.8,3.6-2.1,5-1.3,1.3-3.1,2-4.9,2ZM356,39.9c-1.1,0-2.1.4-2.8,1.2-.8.8-1.2,1.8-1.2,2.8s.4,2.1,1.1,2.9c.8.8,1.8,1.2,2.8,1.2h0c1.1,0,2.1-.4,2.8-1.2.8-.8,1.2-1.8,1.2-2.8s-.4-2.1-1.1-2.9h0c-.8-.8-1.8-1.2-2.8-1.2h0Z"/>
      <circle class="st1" cx="338.3" cy="7" r="5.5"/>
      <path class="st1" d="M338.3,14.1h0c-1.9,0-3.6-.8-5-2.1-1.3-1.3-2-3.1-2-5,0-1.9.8-3.6,2.1-5C334.7.7,336.4,0,338.3,0h0c1.9,0,3.6.8,5,2.1,1.3,1.3,2,3.1,2,5,0,1.9-.8,3.6-2.1,5-1.3,1.3-3.1,2-4.9,2ZM338.3,3c-1.1,0-2.1.4-2.8,1.2-.8.8-1.2,1.8-1.2,2.8,0,1.1.4,2.1,1.1,2.9.8.8,1.8,1.2,2.8,1.2,1.1,0,2.1-.4,2.9-1.1.8-.8,1.2-1.8,1.2-2.8,0-1.1-.4-2.1-1.1-2.9-.8-.8-1.8-1.2-2.8-1.2h0Z"/>
      <circle class="st1" cx="290.4" cy="53.8" r="5.5"/>
      <path class="st1" d="M290.4,60.9h0c-1.9,0-3.6-.8-5-2.1-1.3-1.3-2-3.1-2-5,0-1.9.8-3.6,2.1-5,2.8-2.7,7.2-2.7,10,.1,1.3,1.3,2,3.1,2,5,0,1.9-.8,3.6-2.1,5-1.3,1.3-3.1,2-4.9,2h0ZM290.4,49.8c-1,0-2,.4-2.8,1.1-.8.8-1.2,1.8-1.2,2.8,0,1.1.4,2.1,1.1,2.9.8.8,1.8,1.2,2.8,1.2h0c1.1,0,2.1-.4,2.8-1.2.8-.8,1.2-1.8,1.2-2.8,0-1.1-.4-2.1-1.1-2.9-.8-.8-1.8-1.2-2.9-1.2h0Z"/>
      <circle class="st1" cx="307.1" cy="83.9" r="5.5"/>
      <path class="st1" d="M307.1,91h0c-1.9,0-3.6-.8-5-2.1-1.3-1.3-2-3.1-2-5,0-1.9.8-3.6,2.1-5,1.3-1.3,3.2-2.1,5-2,1.9,0,3.6.8,5,2.1,1.3,1.3,2,3.1,2,5,0,1.9-.8,3.6-2.1,5-1.3,1.3-3.1,2-4.9,2h0ZM307.1,79.9c-1.1,0-2.1.4-2.8,1.2-.8.8-1.2,1.8-1.2,2.8,0,1.1.4,2.1,1.1,2.9.8.8,1.8,1.2,2.8,1.2h0c1.1,0,2.1-.4,2.8-1.2.8-.8,1.2-1.8,1.2-2.8,0-1.1-.4-2.1-1.1-2.9-.8-.8-1.8-1.2-2.8-1.2h0Z"/>
      <circle class="st1" cx="252.7" cy="82.9" r="5.5"/>
      <path class="st1" d="M252.7,90h0c-1.9,0-3.6-.8-5-2.1-1.3-1.3-2-3.1-2-5,0-1.9.8-3.6,2.1-5,2.8-2.7,7.2-2.7,10,.1,1.3,1.3,2,3.1,2,5,0,1.9-.8,3.6-2.1,5-1.3,1.3-3.1,2-4.9,2h0ZM252.7,78.9c-1,0-2,.4-2.8,1.1-.8.8-1.2,1.8-1.2,2.8,0,1.1.4,2.1,1.1,2.9.8.8,1.8,1.2,2.8,1.2,1.1,0,2.1-.4,2.9-1.2.8-.8,1.2-1.8,1.2-2.8,0-1.1-.4-2.1-1.1-2.9-.8-.8-1.8-1.2-2.9-1.2Z"/>
      <circle class="st1" cx="226.3" cy="59.5" r="5.5"/>
      <path class="st1" d="M226.3,66.5h0c-1.9,0-3.6-.8-5-2.1-1.3-1.3-2-3.1-2-5,0-1.9.8-3.6,2.1-5,2.8-2.7,7.2-2.7,10,.1,1.3,1.3,2,3.1,2,5,0,1.9-.8,3.6-2.1,5-1.3,1.3-3.1,2-4.9,2h0ZM226.3,55.5c-1,0-2,.4-2.8,1.1-.8.8-1.2,1.8-1.2,2.8,0,1.1.4,2.1,1.1,2.9.8.8,1.8,1.2,2.8,1.2h0c1.1,0,2.1-.4,2.8-1.2.8-.8,1.2-1.8,1.2-2.8,0-1.1-.4-2.1-1.1-2.9-.8-.8-1.8-1.2-2.9-1.2h0Z"/>
    </g>
  </g>
</svg>