<?xml version="1.0" encoding="UTF-8"?>
<svg id="Layer_2" xmlns="http://www.w3.org/2000/svg" version="1.1" viewBox="0 0 617.4 604.2">
  <!-- Generator: Adobe Illustrator 30.0.0, SVG Export Plug-In . SVG Version: 2.1.1 Build 123)  -->
  <defs>
    <style>
      .st0 {
        fill: #f04b4b;
      }

      .st1 {
        fill: #79c8e2;
      }
    </style>
  </defs>
  <g id="globe_lines">
    <g id="Layer_2-2">
      <g>
        <path class="st0" d="M308.1,521.8c-62.5,0-121.3-24.4-165.6-68.6-44.2-44.2-68.6-103-68.6-165.6s24.4-121.3,68.6-165.6c44.2-44.2,103-68.6,165.6-68.6s121.3,24.4,165.6,68.6,68.6,103,68.6,165.6-24.4,121.3-68.6,165.6c-44.2,44.2-103,68.6-165.6,68.6h0ZM308.1,55.2c-62.1,0-120.5,24.2-164.4,68.1s-68.1,102.3-68.1,164.4,24.2,120.5,68.1,164.4c43.9,43.9,102.3,68.1,164.4,68.1s120.5-24.2,164.4-68.1c43.9-43.9,68.1-102.3,68.1-164.4s-24.2-120.5-68.1-164.4-102.3-68.1-164.4-68.1h0Z"/>
        <path class="st0" d="M308.1,522.8c-62.8,0-121.9-24.5-166.3-68.9-44.4-44.4-68.9-103.5-68.9-166.3s24.5-121.9,68.9-166.3c44.4-44.4,103.5-68.9,166.3-68.9s121.9,24.5,166.3,68.9c44.4,44.4,68.9,103.5,68.9,166.3s-24.5,121.9-68.9,166.3c-44.4,44.4-103.5,68.9-166.3,68.9ZM308.1,56.2c-61.8,0-120,24.1-163.7,67.8s-67.8,101.9-67.8,163.7,24.1,120,67.8,163.7c43.7,43.7,101.9,67.8,163.7,67.8s120-24.1,163.7-67.8c43.7-43.7,67.8-101.9,67.8-163.7s-24.1-120-67.8-163.7c-43.7-43.7-101.9-67.8-163.7-67.8Z"/>
      </g>
      <g>
        <rect class="st0" x="103.4" y="174.9" width="410.6" height="1.6"/>
        <rect class="st0" x="102.4" y="173.9" width="412.6" height="3.6"/>
      </g>
      <g>
        <rect class="st0" x="74.8" y="286.8" width="466.6" height="1.6"/>
        <rect class="st0" x="73.8" y="285.8" width="468.6" height="3.6"/>
      </g>
      <g>
        <rect class="st0" x="103.4" y="398.8" width="410.6" height="1.6"/>
        <rect class="st0" x="102.4" y="397.8" width="412.6" height="3.6"/>
      </g>
      <g>
        <path class="st0" d="M308.1,521.8c-10.2,0-19.9-6.3-28.7-18.7-8.3-11.7-15.7-28.6-21.9-50.2-12.3-43-19.1-101.7-19.1-165.2s6.8-122.2,19.1-165.2c6.2-21.6,13.6-38.5,21.9-50.2,8.8-12.4,18.5-18.7,28.7-18.7,20.1,0,37.5,23.8,50.2,68.9,12.1,42.8,18.7,101.5,18.7,165.2s-6.6,122.4-18.7,165.2c-12.7,45.1-30.1,68.9-50.2,68.9h0ZM308.1,55.2c-19.1,0-36.5,24.1-49,67.7-12.3,42.9-19.1,101.4-19.1,164.8s6.8,121.9,19.1,164.8c12.5,43.7,29.9,67.7,49,67.7s36.3-24.1,48.6-67.7c12-42.7,18.6-101.2,18.6-164.8s-6.6-122.1-18.6-164.8c-12.3-43.7-29.6-67.7-48.6-67.7h0Z"/>
        <path class="st0" d="M308.1,522.8h0c-10.6,0-20.5-6.4-29.5-19.1-8.4-11.8-15.8-28.8-22-50.6-12.4-43.1-19.2-101.9-19.2-165.5s6.8-122.4,19.2-165.5c6.2-21.7,13.6-38.7,22-50.6,9-12.7,18.9-19.1,29.5-19.1,20.6,0,38.3,24.1,51.1,69.7,12.1,42.9,18.7,101.7,18.7,165.5s-6.7,122.6-18.7,165.5c-12.8,45.6-30.5,69.7-51.1,69.7ZM308.1,56.2c-18.6,0-35.7,23.8-48.1,67-12.3,42.8-19,101.2-19,164.5s6.8,121.7,19,164.5c12.4,43.2,29.5,67,48.1,67s35.5-23.8,47.6-67c12-42.6,18.6-101,18.6-164.5s-6.6-121.9-18.6-164.5c-12.2-43.2-29.1-67-47.6-67Z"/>
      </g>
      <g>
        <path class="st0" d="M307,521.8c-21.7,0-54-27.6-80.3-68.7-18.3-28.6-49-88.2-49-165.4s30.7-136.8,49-165.4c26.3-41.1,58.6-68.7,80.3-68.7s54,27.6,80.3,68.7c18.3,28.6,49,88.2,49,165.4s-30.7,136.8-49,165.4c-26.3,41.1-58.6,68.7-80.3,68.7ZM307,55.2c-20.9,0-53.3,27.9-78.9,68-18.2,28.5-48.8,87.7-48.8,164.5s30.6,136.1,48.8,164.5c25.6,40,58.1,68,78.9,68s53.3-27.9,78.9-68c18.2-28.5,48.8-87.7,48.8-164.5s-30.6-136.1-48.8-164.5c-25.6-40-58.1-68-78.9-68h0Z"/>
        <path class="st0" d="M307,522.8c-22.1,0-54.7-27.8-81.1-69.2-18.4-28.7-49.2-88.5-49.2-166s30.8-137.2,49.2-166c26.5-41.4,59.1-69.2,81.1-69.2s54.7,27.8,81.1,69.2c18.4,28.7,49.2,88.5,49.2,166s-30.8,137.2-49.2,166c-26.5,41.4-59.1,69.2-81.1,69.2ZM307,56.2h0c-20.5,0-52.7,27.8-78.1,67.5-18.2,28.4-48.6,87.4-48.6,164s30.5,135.6,48.6,164c25.4,39.7,57.5,67.5,78.1,67.5s52.7-27.8,78.1-67.5c18.2-28.4,48.6-87.4,48.6-164s-30.5-135.6-48.6-164c-25.4-39.7-57.5-67.5-78.1-67.5Z"/>
      </g>
      <g>
        <path class="st0" d="M308.7,521.8c-23.1,0-70.1-21.5-108.5-57.4-35.4-33.1-77.5-90.6-77.5-176.7s42.2-149.5,77.5-181.2c42.9-38.5,89.3-52.9,108.5-52.9s68.7,22.2,107.1,59.5c34.7,33.6,76.1,91.2,76.1,174.6s-41.4,140.8-76.1,174.5c-38.5,37.3-84.7,59.6-107.1,59.6h0ZM308.7,55.2c-18.9,0-64.9,14.2-107.4,52.5-35.1,31.6-77,88.4-77,180s41.9,142.7,77,175.5c42,39.3,88.1,57,107.4,57s63.9-18.4,106-59.2c34.5-33.4,75.6-90.6,75.6-173.3s-41.1-140.1-75.6-173.5c-42-40.7-87.3-59-106-59h0Z"/>
        <path class="st0" d="M308.7,522.8h0c-23.3,0-70.6-21.6-109.2-57.7-35.5-33.2-77.8-90.9-77.8-177.4s42.3-150.1,77.9-182c43.1-38.7,89.8-53.1,109.2-53.1s69.2,22.4,107.8,59.8c34.9,33.7,76.4,91.6,76.4,175.4s-41.5,141.4-76.4,175.2c-38.7,37.5-85.2,59.9-107.8,59.9ZM308.7,56.2h0c-18.8,0-64.4,14.2-106.7,52.2-35,31.4-76.7,88-76.7,179.3s41.7,142.1,76.7,174.8c41.8,39.1,87.6,56.7,106.7,56.7s63.4-18.3,105.3-58.9c34.3-33.3,75.3-90.3,75.3-172.6s-40.9-139.5-75.3-172.8c-41.8-40.5-86.8-58.7-105.3-58.7Z"/>
      </g>
    </g>
    <g>
      <polyline class="st0" points="309.5 521 307.9 521 307.9 54.3"/>
      <polygon class="st0" points="309.5 522 306.9 522 306.9 54.3 308.9 54.3 308.9 520 309.5 520 309.5 522"/>
    </g>
  </g>
  <g id="continents">
    <path class="st0" d="M438.7,93.8c0,.3,0,.6,0,.9,0,.9,12.2,8.9,13.3,11.1l-15.1-10c-.5,1.2,7,11.5,3.7,11.1l-6.6-10.3c-2.1,1.5,12,20.7,14.8,22.2.3.1,2.7-1,5.9.7,2.4,1.3,4.9,3.9,6.3,6.3l-8.1-4.4c1.8,2.5,5.7,14.1,1.1,15.1-.8.2-5.5-3-5.5-3.3,0-.5,4.4-2.4,1.5-8.9-6.1-6.3-11.3-13.3-17-19.9-2.1-2.5-2.3-9.2-8.5-8.5-.9.5,6.2,16.8,7,18.1,1.5,2.3,9.8,7.5,9.6,9.6-1.8,2.4-4.8-2-6.3-2.6-4.7-1.8-9.9-3.1-14.8-4.4-3,.4,3.7,7.9,4.8,8.5l-1.8,1.8c-5.7-4-6.1,1.3-8.1,2.2-7.2,3.2-8.7,2.4-14.4,9.2-1.6,1.9-.3,6.9-5.5,5.5-5.9-1.5,2.9-10.3-8.1-11.8-1.3.7,3.2,7.3,3.3,7.8.7,2.8-2.6,4.1,1.5,8.9-3.5-2.3-9.9,2.1-10.3,5.2-.3,2.1,7.1,5.4,1.8,8.5-5.8,3.4-6.7-5.7-10.7-2.6.6,3.8,1.5,4.4,4.4,6.6-9.9,5.2-8.5-8.8-10.3-13.3-.8-1.9-8.5-7.9-9.6-11.1,7.8,5.1,14.6,8,24,6.3,3.9-13-18.4-17.9-26.6-24.4-7.4,5.7-2.2-4.3-3.7-5.9-.6-.7-6.5,1.7-6.6-2.2-1.8,6.1-1.8,0-3,0-.2,0-.8,2.3-1.5,2.2-.5,0-1.8-2.6-3-2.2-.7.3-1.1,4.1-2.6,5.2-1.5,1.1-1.4,0-1.5,0-3.2.8-3.4-2.5-4.1,3.7l-2.6-4.8.7,6.6-3-1.5,1.1,4.8h-3c-.4-.3,1.8-2.9-1.8-4.4,0,.5-.1,1.1,0,1.5,1.8,5.9-2,1.5-3.7,4.8-.9,1.8.4,3,0,3.7-3.9,6.8-9.8,12.7-13.3,18.5-.7,1.1-4.2,11.8-4.8,11.4-.4-.2-.9-5.9-4.8.4-.2.4,1.4,3.3-.4,4.1-.5.2-1.6-1.3-3.7,0-.6.4-1,3.2-2.2,3.7-1.7.7.5-2.4-2.2-1.5-.6.2-4.7,5.1-4.8,5.5-.6,2.2,2.5,3.9,2.2,4.4-.4,1-2.6-1.6-4.4,1.5-1.7,2.9,1.1,3.1.7,4.4-.1.4-2.9,3.4-3,3.7-.1,1,4.9,11.2,5.5,11.4,5.2,2,17.8-13.2,17.4-4.8-.1,1.8-3.3,1.5-2.2,6.6.4,1.7,6.6,7.6,6.6,8.1,0,1.1-10.1,6,.4,9.2,3.5-6.9,11.4-5.7,11.1-14l-2.6,1.1c-.9-8.8,4.4-6,4.8-6.3.3-.2,3.8-5.2,5.5-5.5,1-6.9-6.7-11.1-6.6-12.6,0-.6,5.7-9.5,6.6-11.1,1.2-2,2.1.4,3-.7,1.6-2.2.6-5.7.7-5.9.5-.8,4.2-4.1,5.2-5.9,1.2-2.3.3-6.8,3.3-8.5,17.2,7.8,2.2,11.4-1.8,16.6-.5.7,1.2,1.5.7,2.2-3.1,5.2-6.6,7.5-4.4,15.5,1.5,5.5,15.4,4.7,20.3,4.1.6,0,5-5.1,6.3-.4-6.5,2.8-3.1,3.2-4.8,8.5-12.2-6.1-15.5-.8-12.2,11.4-2.9,4.4-4.1-.9-5.5-1.1-6.6-1.1-3,13.4-7.4,15.5-.3.2-5.7,1-7.4,1.5-.1,0-2.1-1.5-2.2-1.5-2.5.5-8.1,5.5-11.8,3.7-.9-.4.1-5.9-6.6-2.2-1,.6-1.6,2.8-2.6,3.7-4.9,4.4-4.4.7-4.8.7-3.2.6-5.9,3.7-9.2,1.5-2.4,1-4.7,1.7-7,3-.8.5.1,2.4-.7,3-.2.1-2-1.3-4.4,0-3.5,1.8-3,6.4-4.1,7.8-2.9,3.9-11.1,5.1-14.4,7.8-1.2,1,1.2,3.2-.7,3.7-.7.2-12.4-3-12.9-.4,1.4,5.5,3.1,1.7,3.3,1.8,1.9,1.7,4.5,7.1,8.5,8.5l-2.2,11.8c-1.1,2.6-18.2-1.3-21.8-1.1-3.5,1.1,0,7.2-.4,9.2-.3,1.4-5.8,4.4-5.9,5.2-.2,1.5,2.6,2.7,3,3.7.4,1-.9,2.8,1.5,5.9,5.3,7.1,22.6,6.1,28.1,0,2-2.2.2-4.1,4.8-8.5,2.4-2.3,9-5.1,10-6.3.5-.6.2-4.2,2.6-5.5,6.1-3.5,6.9,2.8,7.4,3,.7.2,10.2-6.4,12.6-5.9,1.1.2,7.5,10.8,10.3,13.3.3.3,2.6-.3,3,0,1.6,1.3,1.8,5.6,5.9,6.6,2.5.6,3.5-1.5,3.7-1.5,3.1.8,7.4,9,8.1,8.9,1.9-2,.4-3.2,3.3-4.1-5.3-.4-2.8-4.8-3-5.2-.4-.8-12.9-7.6-15.1-10-3.7-4-8.2-10-1.5-13.3,6.3,2.5,1.5,4,1.8,5.5.2.9,13.2,8.9,15.1,10.7,3,2.7,2.4,5.4,3,5.9.6.6,6.4,0,7.8,1.1,2.6,2.3,0,4.2,0,4.4,0,.4,3.3.6.7,5.2l2.2-.7c-.2,5.7,5.3,8.4,8.5,12.2-.2-6.7,1.6-13.6-.4-19.6,2.1-2.8,15.9-1.8,17,.7,1.8,4.1-5.6,2.3-5.9,5.2,0,.7,5.6,12,6.3,12.2,1.1.3,4-2.6,5.9-2.2,1.1.2,2.1,3.6,5.2,3.7,1.3,0,7.7-3.8,8.1-3.7.4,0,4.9,5.9,4.8,6.3-.5,1.7-9.4,0-5.5,4.1,1.6-.5,5.8-1.7,6.3-3.3.8-2.4-3.6-5.3-1.1-6.3,2.3-.9,6.4,1.3,8.9-2.2,1.4,1-6.6,25.5-8.9,25.9-4.8-1.3-6.5-3.7-12.2-3l4.8.7c.5,1.4-.8-.2-.4,1.5,2.2,1.1,5.6,9,7,9.6,2.3.9.7-3.8,2.2-3.7,1.5.1,10.5,13.8,12.2,15.9,2.4,3.1,4.3,5.8,6.6,8.9,1.7,2.2,10.7,10.4,11.1,11.1,2.4,5.1-2.3,14.8,7,13.7,7.1-.9,28.9-17.3,35.5-22.2.7-.5,1.5,1.2,2.2.7,2.5-1.9,13.5-15.8,13.7-18.1.5-5.9-5.7-3.6-7.8-4.8-1.8-1-1.6-4.6-3-5.2-4-1.6-8,10.2-14,8.9-3-4.1-17.6-14.7-17.4-19.6,0-.6,4.3-5.5,4.8-5.5,4.4-.5,6.2,9.2,12.6,11.1,6.2,1.8,14.7-1.8,16.3-1.5,1.4.3,2.4,4.1,3,4.4,4.7,3.1,28.8-7.2,30.3-6.6,1.9.7.7,4.2,1.1,4.8,1.2,1.8,4.2,1.9,5.2,3,.5.6-1.2,1.5-.7,2.2,4.3,6.2,5.1-2.1,10-2.6l-1.8,2.6c5.2,10.7,1.2,25.5,10.7,34.4l6.1-11.6c9.3-25.2,14.4-52.4,14.4-80.9,0-80.5-40.8-151.4-102.8-193.3h0s0,0,0,0Z"/>
    <g id="africa">
      <path class="st0" d="M359.2,507.3c.1-.1,2.8,0,3.7-.7,2.2-2-.2-4.3,3-6.6,1.8-1.3,7.2-1.2,9.6-3,6.1-4.5-.2-7.4.4-10,.7-3,16.1-9.5,19.2-11.5,1-.6,4.4-6.6,4.4-7,0-.5-.6-9.8-.7-10.3-.4-1.8-5-3.3-3.7-8.9,1.2-5.1,28-22.2,33.2-28.1,3.3-3.6,16.2-22.2,14-26.6-1.9-3.7-5.5,2.3-6.3,2.6-2.9,1.2-19.8,6-21.4,4.4-.9-.9,1-3.5-.4-6.3-1.2-2.4-10.6-6.6-12.6-8.9-2.5-2.8-4.8-11.6-6.6-14.8-.5-.8-3.4-1-3.7-1.5-.4-.6-.7-6.4-2.2-8.9-4.9-8.1-12.2-14-14.8-23.3-.5-1.7.9-.1.4-1.5l-4.8-.7c-3,.4-8.7,2.5-12.9,2.2-5.8-.5-19.3-8-23.6-7.4-4.4.7-4.3,7.9-6.6,8.1-3.2-2.8-9.2-.8-12.6-2.2-2-.8-3.9-5.5-5.9-6.6-2.3-1.3-12.3-2.3-13.3-3-3.5-2.6,3.1-9.5-.7-12.6-5.4-1.4-10.9-.9-16.3-1.5-16-1.6-20.8,1.4-34.7,2.2-3.9.2-8.3-2.9-12.6-2.2-2.3,4.2-12.3,7-14.4,10-2.3,3.2-.9,6.6-3,10.3-2,3.7-11.8,6.9-15.1,10-.9.8-10.5,13.5-10.7,14.4-.8,3.4,1.2,8.5.7,12.6-.4,3.3-3.8,13.7-3,16.3.7,2.1,6,3.1,6.3,3.3,8,8.2,18,25.1,31,26.6,4.5.5,9.1-2.1,12.6-1.5,1,.2,3.5,2.8,4.4,3,6.2,1.1,19.3-5.1,23.6-3,1.9.9,4.6,6.7,8.1,7.4,3.5.7,13.1-4.9,15.1,1.8,1.1,3.7-4,9.2-3,14,.6,2.9,10.2,9.5,12.6,12.6.1.1,0,2.6.7,3.7.6.9,5.8,6.2,5.9,6.6.2.7-1.5,3.5-1.5,3.7,0,.3,1.8,2.1,1.5,3.7-.3,1.3-6,6.1-6.6,7.4-4.5,8.7,3.2,11.8,6.6,18.5,2.7,5.2,1.6,11.5,7.4,15.1,7.5,2.1,5.8,6.4,7.4,10,0,.2.2.3.4.3,1.3,0,2.6-.1,3.9-.2,3-.6,6.6-1.9,7.9-2,16.3-1.9,16.4.4,29.5-10.3h0s0,0,0,0Z"/>
    </g>
  </g>
  <g id="emea_data_dots">
    <g id="honey_comb_copy">
      <rect class="st1" x="199.8" y="42.7" width="62.8" height="1" transform="translate(102.4 240) rotate(-67.4)"/>
      <rect class="st1" x="260.3" y="4.1" width="1" height="40.2" transform="translate(110.5 238.7) rotate(-60.3)"/>
      <rect class="st1" x="231.4" y="67.5" width="71.2" height="1" transform="translate(118.5 300) rotate(-71.7)"/>
      <rect class="st1" x="237" y="63.5" width="1" height="47" transform="translate(20.6 217.1) rotate(-51.1)"/>
      <rect class="st1" x="202.3" y="44.6" width="1" height="37.3" transform="translate(50.5 211.4) rotate(-61.6)"/>
      <rect class="st1" x="166.7" y="28" width="1" height="40.2" transform="translate(69.4 192.1) rotate(-71.9)"/>
      <rect class="st1" x="147.9" y="41.9" width="1" height="72.5" transform="translate(-.6 1.2) rotate(-.5)"/>
      <rect class="st1" x="165" y="100.1" width="1" height="34.2" transform="translate(22.3 260.8) rotate(-80.4)"/>
      <rect class="st1" x="186" y="119.8" width="1" height="53.7" transform="translate(-20.4 30.5) rotate(-8.9)"/>
      <rect class="st1" x="171.4" y="95.3" width="59.4" height="1" transform="translate(2.9 197.5) rotate(-52.6)"/>
      <rect class="st1" x="182" y="110.1" width="74.8" height="1" transform="translate(-19.8 54.7) rotate(-13.6)"/>
      <rect class="st1" x="141.9" y="98" width="1" height="106.1" transform="translate(-54.2 217.8) rotate(-65.4)"/>
      <rect class="st1" x="93.2" y="121.2" width="56.5" height="1" transform="translate(-27.5 35.8) rotate(-15.1)"/>
      <rect class="st1" x="56.8" y="134.7" width="38.4" height="1" transform="translate(-39.5 31.7) rotate(-18.8)"/>
      <rect class="st1" x="77" y="186.9" width="115.5" height="1" transform="translate(-42.1 39.1) rotate(-14.3)"/>
      <rect class="st1" x="67.8" y="139.6" width="1" height="63.8" transform="translate(-52.6 32) rotate(-19.2)"/>
      <rect class="st1" x="41.4" y="209.1" width="39.1" height="1" transform="translate(-80 42.9) rotate(-24)"/>
      <rect class="st1" x="2.7" y="227.7" width="43.1" height="1" transform="translate(-109.1 41.5) rotate(-29.5)"/>
      <rect class="st1" x="81.4" y="201.5" width="1" height="67.2" transform="translate(-21.8 8.8) rotate(-5.4)"/>
      <rect class="st1" x="50.2" y="279.4" width="38.6" height="1" transform="translate(-151.4 94.6) rotate(-36.1)"/>
      <rect class="st1" x="29.2" y="229.3" width="1" height="71.4" transform="translate(-171.9 90.5) rotate(-42.7)"/>
      <rect class="st1" x="135.2" y="229.8" width="1" height="104.9" transform="translate(-172.2 339.4) rotate(-74.8)"/>
      <rect class="st1" x="127.1" y="234.6" width="124" height="1" transform="translate(-50.8 418.2) rotate(-88.5)"/>
      <rect class="st1" x="83.5" y="314.3" width="107" height="1" transform="translate(-96.3 62.9) rotate(-19.3)"/>
      <rect class="st1" x="57.7" y="348.9" width="38.8" height="1" transform="translate(-265.7 246.9) rotate(-60.9)"/>
      <rect class="st1" x="67" y="358.2" width="86.8" height="1" transform="translate(-61.7 25.2) rotate(-10.2)"/>
      <rect class="st1" x="136.2" y="323.5" width="65.9" height="1" transform="translate(-195.5 298.7) rotate(-58.5)"/>
      <rect class="st1" x="119.3" y="307.2" width="1" height="69.1" transform="translate(-241.6 365.5) rotate(-74.4)"/>
      <rect class="st1" x="114.7" y="367.1" width="47.2" height="1" transform="translate(-227.3 224.2) rotate(-48)"/>
      <rect class="st1" x="92.7" y="400.3" width="41.1" height="1" transform="translate(-293.9 313) rotate(-62.1)"/>
      <rect class="st1" x="135.7" y="387.7" width="1" height="65.1" transform="translate(-289.3 539.4) rotate(-87.7)"/>
      <rect class="st1" x="160.4" y="350.1" width="1" height="72.3" transform="translate(-79.6 43.9) rotate(-12.5)"/>
      <rect class="st1" x="147.4" y="437.5" width="36.9" height="1" transform="translate(-299.1 493.8) rotate(-76.1)"/>
      <rect class="st1" x="168.5" y="454.9" width="1" height="55.5" transform="translate(-124.2 63.6) rotate(-15.7)"/>
      <rect class="st1" x="78.4" y="436.9" width="38.7" height="1" transform="translate(-348.7 398.2) rotate(-72.4)"/>
      <rect class="st1" x="133.7" y="432.6" width="1" height="100.1" transform="translate(-345.4 338) rotate(-57.7)"/>
      <rect class="st1" x="91.9" y="455.4" width="69.6" height="1"/>
      <rect class="st1" x="172.4" y="491.8" width="75.3" height="1" transform="translate(-199.8 148) rotate(-26.9)"/>
      <rect class="st1" x="170.7" y="510.5" width="88.6" height="1" transform="translate(-318.7 360.8) rotate(-51.5)"/>
      <rect class="st1" x="244.6" y="476.2" width="1" height="48.6" transform="translate(-51.4 28.6) rotate(-6)"/>
      <rect class="st1" x="235.9" y="457" width="49.3" height="1" transform="translate(-250.5 331.3) rotate(-46.5)"/>
      <rect class="st1" x="294.3" y="436" width="1" height="85.7" transform="translate(-167.8 159.2) rotate(-23.7)"/>
      <rect class="st1" x="246.6" y="521.9" width="66.6" height="1" transform="translate(-49.6 29.8) rotate(-5.6)"/>
      <rect class="st1" x="254.4" y="523.3" width="1" height="37.3" transform="translate(-188.8 139.6) rotate(-22.6)"/>
      <rect class="st1" x="254.6" y="538.1" width="64.8" height="1" transform="translate(-277 305.5) rotate(-39.5)"/>
      <rect class="st1" x="270.1" y="557.4" width="1" height="43" transform="translate(-208.2 155.6) rotate(-23.5)"/>
      <rect class="st1" x="268.6" y="572.2" width="74.3" height="1" transform="translate(-313.3 377.1) rotate(-44.4)"/>
      <rect class="st1" x="322.7" y="515.8" width="1" height="34.3" transform="translate(-251.4 291.5) rotate(-36)"/>
      <rect class="st1" x="330.6" y="534.8" width="59.9" height="1" transform="translate(-171.8 170.3) rotate(-21.6)"/>
      <rect class="st1" x="375.4" y="495.5" width="1" height="34.2" transform="translate(-255.1 436.4) rotate(-46.9)"/>
      <rect class="st1" x="353.2" y="485.4" width="30.1" height="1" transform="translate(-203.3 698.1) rotate(-73.2)"/>
      <rect class="st1" x="324.6" y="405.4" width="1" height="100.3" transform="translate(-210.2 618.9) rotate(-71.5)"/>
      <rect class="st1" x="223.6" y="375.8" width="1" height="109.8" transform="translate(-238.9 576.8) rotate(-80)"/>
      <rect class="st1" x="348.6" y="429.5" width="95.5" height="1" transform="translate(-173.7 560.8) rotate(-60.3)"/>
      <rect class="st1" x="370.5" y="497.8" width="57.8" height="1" transform="translate(-216.8 666) rotate(-66.5)"/>
      <rect class="st1" x="424.7" y="464" width="1" height="34.2" transform="translate(-209.7 576.6) rotate(-57.1)"/>
      <rect class="st1" x="425.9" y="463.4" width="64.8" height="1" transform="translate(-185.4 568.5) rotate(-54.6)"/>
      <rect class="st1" x="460.5" y="416.6" width="1" height="33.3" transform="translate(-75.9 767.8) rotate(-75.2)"/>
      <rect class="st1" x="449.2" y="374.9" width="1" height="77.1" transform="translate(-158 475.7) rotate(-48.4)"/>
      <rect class="st1" x="432" y="385.1" width="1" height="47.4" transform="translate(-150 287) rotate(-31.6)"/>
      <rect class="st1" x="401.9" y="448.7" width="52.5" height="1" transform="translate(-190.9 492.2) rotate(-50.3)"/>
      <rect class="st1" x="391.5" y="452.5" width="1" height="35.8" transform="translate(-87.3 851.5) rotate(-88.7)"/>
      <rect class="st1" x="386.8" y="514.6" width="91.6" height="1" transform="translate(-99.4 103.5) rotate(-12.2)"/>
      <rect class="st1" x="458" y="477.5" width="1" height="40.7" transform="translate(-173.3 740.6) rotate(-68.4)"/>
      <rect class="st1" x="459.5" y="462" width="120.6" height="1" transform="translate(-174.6 506.9) rotate(-45.3)"/>
      <rect class="st1" x="60.3" y="290.6" width="1" height="76.4" transform="translate(-58 16.2) rotate(-10.3)"/>
      <rect class="st1" x="35.8" y="91.1" width="134.4" height="1" transform="translate(-34.1 106.3) rotate(-47.8)"/>
      <rect class="st1" x="-23.6" y="189.6" width="110.6" height="1" transform="translate(-150.8 128.1) rotate(-61.8)"/>
      <rect class="st1" x="79.3" y="364.7" width="1" height="92.7" transform="translate(-104.7 35.2) rotate(-15.2)"/>
      <rect class="st1" x="181.4" y="508.5" width="1" height="38" transform="translate(-144.4 74.8) rotate(-16.8)"/>
      <rect class="st1" x="232.8" y="519.2" width="1" height="105.9" transform="translate(-378.9 488.3) rotate(-60)"/>
      <rect class="st1" x="524.2" y="422.7" width="40.2" height="1" transform="translate(-71.6 113.3) rotate(-11.2)"/>
      <rect class="st1" x="476.5" y="431.8" width="48.6" height="1" transform="translate(-80.9 117.2) rotate(-12.4)"/>
      <rect class="st1" x="507.8" y="363.2" width="1" height="68" transform="translate(-127.9 290.4) rotate(-28.5)"/>
      <rect class="st1" x="420.3" y="376" width="74.5" height="1" transform="translate(-86.7 142.2) rotate(-16.2)"/>
      <rect class="st1" x="551.1" y="362.7" width="1" height="60.9" transform="translate(-110.3 249.2) rotate(-23.2)"/>
      <rect class="st1" x="538.7" y="359" width="37.2" height="1" transform="translate(-83.5 188.6) rotate(-17.9)"/>
      <rect class="st1" x="539.9" y="377.2" width="96.1" height="1" transform="translate(-32.4 699.4) rotate(-60.1)"/>
      <rect class="st1" x="574.3" y="343.9" width="39.4" height="1" transform="translate(-89.8 282.9) rotate(-25)"/>
      <rect class="st1" x="588" y="278.8" width="1" height="66.8" transform="translate(-50.6 500.2) rotate(-44.3)"/>
      <rect class="st1" x="573" y="279.1" width="1" height="82.8" transform="translate(61.1 731.7) rotate(-67.9)"/>
      <rect class="st1" x="475.7" y="335.7" width="75.8" height="1" transform="translate(-54.8 567.9) rotate(-55.4)"/>
      <rect class="st1" x="536.9" y="304.9" width="1" height="60.4" transform="translate(-23.5 41.1) rotate(-4.3)"/>
      <rect class="st1" x="493.3" y="365.7" width="45.4" height="1" transform="translate(-.7 1) rotate(-.1)"/>
      <rect class="st1" x="486.6" y="214.8" width="1" height="116.1" transform="translate(-4.7 537.2) rotate(-57.5)"/>
      <rect class="st1" x="561.8" y="224.1" width="1" height="64.3" transform="translate(-20.4 50.5) rotate(-5)"/>
      <rect class="st1" x="530.2" y="237" width="35.3" height="1" transform="translate(6.6 489.5) rotate(-48.4)"/>
      <rect class="st1" x="534.2" y="248.8" width="1" height="56.1" transform="translate(-3.8 7.4) rotate(-.8)"/>
      <rect class="st1" x="533" y="296.1" width="34.4" height="1" transform="translate(-74.8 305.2) rotate(-29.1)"/>
      <rect class="st1" x="433.5" y="222.8" width="77.9" height="1" transform="translate(-49.4 250.4) rotate(-28.3)"/>
      <rect class="st1" x="498.1" y="189" width="35.8" height="1" transform="translate(87.5 533.8) rotate(-59)"/>
      <rect class="st1" x="542.3" y="168.7" width="1" height="61.9" transform="translate(-17.5 342.9) rotate(-34.5)"/>
      <rect class="st1" x="520.5" y="200.7" width="1" height="53.2" transform="translate(-40.8 313.9) rotate(-32.3)"/>
      <rect class="st1" x="514.6" y="156.3" width="38.8" height="1" transform="translate(153.1 562.7) rotate(-63.2)"/>
      <rect class="st1" x="474.8" y="140.9" width="68" height="1" transform="translate(-7.2 29.1) rotate(-3.2)"/>
      <rect class="st1" x="470.5" y="92.2" width="1" height="51.4" transform="translate(-12.2 70.7) rotate(-8.5)"/>
      <rect class="st1" x="465" y="58.6" width="1" height="34" transform="translate(-5.3 48.6) rotate(-5.9)"/>
      <rect class="st1" x="439.3" y="97.4" width="1" height="72.7" transform="translate(194.2 522.3) rotate(-74.6)"/>
      <rect class="st1" x="405.1" y="67.8" width="61.8" height="1" transform="translate(3.5 155.8) rotate(-20.3)"/>
      <rect class="st1" x="430.2" y="14.8" width="1" height="70.2" transform="translate(288.5 459.5) rotate(-77.5)"/>
      <rect class="st1" x="383.3" y="101" width="45.1" height="1" transform="translate(283.9 501.7) rotate(-87.1)"/>
      <rect class="st1" x="388.3" y="2.9" width="1" height="40.8" transform="translate(19.4 146.9) rotate(-21.9)"/>
      <rect class="st1" x="343" y="63.5" width="62.3" height="1" transform="translate(61.9 279.9) rotate(-44.4)"/>
      <rect class="st1" x="243.2" y="9.4" width="139.3" height="1" transform="translate(0 19.6) rotate(-3.6)"/>
      <rect class="st1" x="305.9" y="13.6" width="1" height="59.1" transform="translate(171.6 321.7) rotate(-72.2)"/>
      <rect class="st1" x="342.7" y="50.1" width="1" height="37.8" transform="translate(6.6 165.4) rotate(-27.3)"/>
      <rect class="st1" x="305.7" y="118.2" width="69.6" height="1" transform="translate(116.7 401.4) rotate(-70.9)"/>
      <rect class="st1" x="293.9" y="81.6" width="1" height="94.1" transform="translate(20.4 296.5) rotate(-55.1)"/>
      <rect class="st1" x="328" y="138.2" width="79.5" height="1" transform="translate(-25.2 145.5) rotate(-21.7)"/>
      <rect class="st1" x="420.9" y="121.7" width="1" height="122.3" transform="translate(-34 122.3) rotate(-15.9)"/>
      <rect class="st1" x="404.4" y="193.3" width="101.8" height="1" transform="translate(119.9 557.5) rotate(-70.4)"/>
      <rect class="st1" x="503.6" y="41.9" width="1" height="113.8" transform="translate(70.4 374.1) rotate(-43.5)"/>
      <rect class="st1" x="190" y="162.8" width="141.6" height="1" transform="translate(-20.1 37.7) rotate(-8)"/>
      <rect class="st1" x="232.7" y="283.8" width="1" height="170.4" transform="translate(-161.5 182.6) rotate(-32.4)"/>
      <rect class="st1" x="274.2" y="414.3" width="150.6" height="1" transform="translate(-122.4 147.4) rotate(-20.3)"/>
      <rect class="st1" x="355.1" y="314.6" width="148" height="1" transform="translate(63.6 702.2) rotate(-82.9)"/>
      <rect class="st1" x="383.1" y="125.9" width="1" height="141.5" transform="translate(-12.3 367.3) rotate(-50.5)"/>
    </g>
    <g id="dots_copy">
      <circle class="st1" cx="382.3" cy="5.5" r="5.5"/>
      <circle class="st1" cx="396.4" cy="42.3" r="5.5"/>
      <circle class="st1" cx="407" cy="79" r="5.5"/>
      <circle class="st1" cx="404.7" cy="124.1" r="5.5"/>
      <circle class="st1" cx="463.7" cy="58.7" r="5.5"/>
      <circle class="st1" cx="467.2" cy="92.5" r="5.5"/>
      <circle class="st1" cx="473.7" cy="144.4" r="5.5"/>
      <circle class="st1" cx="542.7" cy="139.5" r="5.5"/>
      <circle class="st1" cx="525.3" cy="174.1" r="5.5"/>
      <circle class="st1" cx="506.8" cy="204.8" r="5.5"/>
      <circle class="st1" cx="438.2" cy="241.7" r="5.5"/>
      <circle class="st1" cx="351.9" cy="85.8" r="5.5"/>
      <circle class="st1" cx="334.5" cy="52.2" r="5.5"/>
      <circle class="st1" cx="329.1" cy="151.6" r="5.5"/>
      <circle class="st1" cx="278.2" cy="34.2" r="5.5"/>
      <circle class="st1" cx="255.8" cy="101.8" r="5.5" transform="translate(78.4 312.2) rotate(-71.6)"/>
      <circle class="st1" cx="243.3" cy="14.2" r="5.5"/>
      <circle class="st1" cx="219.2" cy="72.2" r="5.5"/>
      <circle class="st1" cx="186.3" cy="54.4" r="5.5"/>
      <circle class="st1" cx="182.4" cy="120.1" r="5.5"/>
      <circle class="st1" cx="148.1" cy="41.9" r="5.5"/>
      <circle class="st1" cx="148.7" cy="114.4" r="5.5"/>
      <circle class="st1" cx="190.7" cy="173.1" r="5.5"/>
      <circle class="st1" cx="57.8" cy="141.4" r="5.5"/>
      <circle class="st1" cx="94.2" cy="129" r="5.5"/>
      <circle class="st1" cx="78.8" cy="201.7" r="5.5"/>
      <circle class="st1" cx="43.1" cy="217.6" r="5.5"/>
      <circle class="st1" cx="5.5" cy="238.8" r="5.5"/>
      <circle class="st1" cx="85.1" cy="268.5" r="5.5"/>
      <circle class="st1" cx="53.9" cy="291.2" r="5.5"/>
      <circle class="st1" cx="86.5" cy="332.5" r="5.5"/>
      <circle class="st1" cx="67.6" cy="366.4" r="5.5"/>
      <circle class="st1" cx="153.1" cy="351" r="5.5"/>
      <circle class="st1" cx="186.4" cy="296" r="5.5"/>
      <circle class="st1" cx="122.5" cy="385.1" r="5.5"/>
      <circle class="st1" cx="103.6" cy="419" r="5.5"/>
      <circle class="st1" cx="91.9" cy="455.9" r="5.5"/>
      <circle class="st1" cx="168.7" cy="421.6" r="5.5"/>
      <circle class="st1" cx="161.4" cy="455.9" r="5.5"/>
      <circle class="st1" cx="176.5" cy="509.4" r="5.5"/>
      <circle class="st1" cx="187.4" cy="545.7" r="5.5"/>
      <circle class="st1" cx="262" cy="559.2" r="5.5"/>
      <circle class="st1" cx="242.6" cy="476.4" r="5.5"/>
      <circle class="st1" cx="278.8" cy="440.9" r="5.5"/>
      <circle class="st1" cx="247.7" cy="524.7" r="5.5"/>
      <circle class="st1" cx="279.2" cy="598.6" r="5.5"/>
      <circle class="st1" cx="332.3" cy="546.7" r="5.5"/>
      <circle class="st1" cx="363.4" cy="500.9" r="5.5"/>
      <circle class="st1" cx="312.1" cy="518" r="5.5"/>
      <circle class="st1" cx="372.6" cy="471.5" r="5.5"/>
      <circle class="st1" cx="388.4" cy="524.2" r="5.5"/>
      <circle class="st1" cx="409.9" cy="470.8" r="5.5"/>
      <circle class="st1" cx="439.6" cy="490.4" r="5.5"/>
      <circle class="st1" cx="477.4" cy="505.4" r="5.5"/>
      <circle class="st1" cx="444.9" cy="429" r="5.5"/>
      <circle class="st1" cx="420.8" cy="387.8" r="5.5"/>
      <circle class="st1" cx="477.1" cy="437.5" r="5.5"/>
      <circle class="st1" cx="525.5" cy="428.1" r="5.5"/>
      <circle class="st1" cx="562.2" cy="419.7" r="5.5"/>
      <circle class="st1" cx="492.1" cy="367.4" r="5.5"/>
      <circle class="st1" cx="538.7" cy="366.1" r="5.5"/>
      <circle class="st1" cx="575.1" cy="353.8" r="5.5"/>
      <circle class="st1" cx="611.8" cy="336.1" r="5.5"/>
      <circle class="st1" cx="565.2" cy="288.3" r="5.5"/>
      <circle class="st1" cx="535.1" cy="305" r="5.5"/>
      <circle class="st1" cx="536.1" cy="250.6" r="5.5"/>
      <circle class="st1" cx="559.5" cy="224.3" r="5.5"/>
      <path class="st1" d="M301.8,541.7c-1.3,0-2.6.1-3.9.2.7.4,2.2.2,3.9-.2Z"/>
    </g>
  </g>
</svg>