<?xml version="1.0" encoding="UTF-8"?><svg id="Layer_2" xmlns="http://www.w3.org/2000/svg" viewBox="0 0 607.526 588.341"><defs><style>.cls-1{fill:#f04b4b;}.cls-2{fill:#a4c653;}</style></defs><g id="web_asia"><g id="globe_copy"><g id="Layer_2-2"><path class="cls-1" d="M313.29,527.489c-62.539,0-121.335-24.354-165.557-68.576-44.222-44.222-68.576-103.018-68.576-165.557s24.354-121.335,68.576-165.557c44.222-44.222,103.018-68.576,165.557-68.576s121.335,24.354,165.557,68.576c44.222,44.222,68.576,103.017,68.576,165.557s-24.354,121.336-68.576,165.557c-44.222,44.222-103.018,68.576-165.557,68.576ZM313.29,60.853c-62.104,0-120.491,24.185-164.405,68.099-43.914,43.914-68.099,102.301-68.099,164.405s24.185,120.491,68.099,164.406c43.914,43.914,102.301,68.099,164.405,68.099s120.491-24.185,164.405-68.099c43.914-43.915,68.099-102.302,68.099-164.406s-24.185-120.491-68.099-164.405c-43.914-43.914-102.301-68.099-164.405-68.099Z"/><path class="cls-1" d="M313.29,528.489c-62.807,0-121.854-24.458-166.264-68.868s-68.869-103.458-68.869-166.265,24.458-121.853,68.869-166.264,103.458-68.869,166.264-68.869,121.854,24.458,166.265,68.869,68.868,103.457,68.868,166.264-24.458,121.854-68.868,166.265-103.457,68.868-166.265,68.868ZM313.29,61.852c-61.837,0-119.972,24.08-163.697,67.806s-67.806,101.861-67.806,163.698,24.08,119.972,67.806,163.698c43.726,43.726,101.86,67.806,163.697,67.806s119.973-24.08,163.698-67.806c43.726-43.727,67.806-101.862,67.806-163.698s-24.08-119.973-67.806-163.698c-43.727-43.726-101.862-67.806-163.698-67.806Z"/><rect class="cls-1" x="108.568" y="180.564" width="410.597" height="1.629"/><rect class="cls-1" x="107.568" y="179.564" width="412.597" height="3.629"/><rect class="cls-1" x="79.972" y="292.541" width="466.637" height="1.629"/><rect class="cls-1" x="78.971" y="291.542" width="468.637" height="3.629"/><rect class="cls-1" x="108.568" y="404.52" width="410.597" height="1.629"/><rect class="cls-1" x="107.568" y="403.52" width="412.597" height="3.629"/><path class="cls-1" d="M313.29,527.489c-10.247,0-19.903-6.284-28.699-18.678-8.325-11.729-15.689-28.635-21.89-50.249-12.344-43.026-19.142-101.698-19.142-165.206s6.798-122.18,19.142-165.206c6.201-21.613,13.566-38.519,21.89-50.248,8.797-12.394,18.453-18.678,28.699-18.678,20.108,0,37.453,23.835,50.161,68.931,12.066,42.817,18.711,101.487,18.711,165.202s-6.645,122.385-18.711,165.203c-12.708,45.094-30.053,68.931-50.161,68.931ZM313.29,60.853c-19.08,0-36.49,24.06-49.024,67.747-12.303,42.884-19.079,101.395-19.079,164.756s6.775,121.872,19.079,164.756c12.533,43.688,29.944,67.748,49.024,67.748s36.282-24.058,48.593-67.744c12.026-42.678,18.65-101.191,18.65-164.76s-6.623-122.082-18.65-164.76c-12.311-43.685-29.568-67.743-48.593-67.743Z"/><path class="cls-1" d="M313.29,528.489c-10.589,0-20.52-6.426-29.515-19.099-8.391-11.823-15.805-28.831-22.035-50.553-12.369-43.115-19.182-101.884-19.182-165.481s6.812-122.366,19.182-165.481c6.23-21.721,13.645-38.729,22.035-50.552,8.995-12.674,18.925-19.1,29.515-19.1,20.603,0,38.281,24.088,51.124,69.659,12.09,42.901,18.748,101.668,18.748,165.474s-6.658,122.572-18.748,165.474c-12.843,45.571-30.521,69.659-51.124,69.659ZM313.29,61.852c-18.594,0-35.663,23.803-48.062,67.022-12.277,42.797-19.039,101.211-19.039,164.481s6.762,121.684,19.039,164.48c12.399,43.221,29.468,67.023,48.062,67.023s35.452-23.8,47.631-67.016c12.003-42.595,18.612-101.012,18.612-164.488s-6.609-121.895-18.612-164.489c-12.179-43.215-29.095-67.015-47.631-67.015Z"/><path class="cls-1" d="M312.211,527.489c-21.732,0-54.003-27.614-80.302-68.713-18.318-28.627-49.048-88.184-49.048-165.421s30.73-136.794,49.048-165.42c26.299-41.1,58.57-68.713,80.302-68.713s54.003,27.613,80.302,68.713c18.318,28.626,49.048,88.183,49.048,165.42s-30.73,136.794-49.048,165.421c-26.299,41.099-58.57,68.713-80.302,68.713ZM312.211,60.853c-20.868,0-53.324,27.946-78.93,67.962-18.221,28.476-48.791,87.719-48.791,164.542s30.569,136.066,48.791,164.542c25.605,40.015,58.062,67.962,78.929,67.962s53.324-27.947,78.93-67.962c18.222-28.477,48.791-87.72,48.791-164.542s-30.569-136.065-48.791-164.542c-25.605-40.015-58.062-67.962-78.93-67.962Z"/><path class="cls-1" d="M312.21,528.489c-22.06,0-54.669-27.799-81.145-69.173-18.376-28.719-49.204-88.469-49.204-165.96s30.828-137.241,49.204-165.959c26.476-41.375,59.085-69.174,81.145-69.174s54.669,27.799,81.146,69.174c18.376,28.719,49.205,88.468,49.205,165.959s-30.829,137.24-49.205,165.96c-26.477,41.374-59.087,69.173-81.146,69.173ZM312.21,61.852c-20.545,0-52.655,27.758-78.087,67.501-18.163,28.386-48.633,87.438-48.633,164.003s30.471,135.619,48.634,164.003c25.431,39.743,57.541,67.501,78.086,67.501s52.656-27.758,78.088-67.501c18.163-28.385,48.634-87.436,48.634-164.003s-30.471-135.618-48.634-164.003c-25.432-39.743-57.543-67.501-78.088-67.501Z"/><path class="cls-1" d="M313.866,527.489c-23.148,0-70.064-21.482-108.508-57.432-35.361-33.068-77.513-90.566-77.513-176.701,0-92.228,42.159-149.466,77.525-181.242,42.886-38.532,89.308-52.891,108.496-52.891,22.45,0,68.652,22.25,107.107,59.485,34.712,33.611,76.092,91.194,76.092,174.648s-41.379,140.847-76.091,174.499c-38.503,37.328-84.694,59.634-107.107,59.634ZM313.866,60.853c-18.946,0-64.86,14.246-107.407,52.474-35.12,31.554-76.985,88.401-76.985,180.029,0,85.55,41.871,142.664,76.997,175.511,42.038,39.311,88.108,56.993,107.395,56.993,18.659,0,63.873-18.359,105.973-59.174,34.487-33.434,75.596-90.645,75.596-173.33s-41.11-140.086-75.596-173.477c-42.048-40.714-87.283-59.026-105.973-59.026Z"/><path class="cls-1" d="M313.866,528.489c-23.342,0-70.566-21.583-109.19-57.701-35.507-33.204-77.831-90.939-77.831-177.432,0-92.596,42.339-150.073,77.857-181.986,43.093-38.718,89.828-53.146,109.164-53.146,22.649,0,69.165,22.355,107.803,59.766,34.852,33.746,76.396,91.564,76.396,175.367s-41.544,141.43-76.395,175.217c-38.685,37.505-85.191,59.916-107.804,59.916ZM313.866,61.852c-18.798,0-64.398,14.177-106.739,52.219-34.968,31.417-76.652,88.024-76.652,179.285,0,85.192,41.698,142.068,76.679,174.78,41.84,39.125,87.59,56.724,106.713,56.724,18.491,0,63.378-18.271,105.276-58.892,34.349-33.3,75.293-90.277,75.293-172.612s-40.943-139.502-75.291-172.759c-41.847-40.52-86.756-58.745-105.278-58.745Z"/></g><rect class="cls-1" x="313.051" y="60.038" width="1.629" height="466.637"/><rect class="cls-1" x="312.051" y="59.038" width="3.629" height="468.637"/></g><g id="continents"><path class="cls-1" d="M416.501,497.649c.784-.076,2.874-2.822,4.863-5.581-2.111,1.152-4.247,2.263-6.398,3.349.548,1.255,1.059,2.277,1.535,2.231Z"/><polygon class="cls-1" points="300.584 586.87 300.935 585.816 299.881 585.465 300.232 586.519 300.584 586.87"/><path class="cls-1" d="M118.555,414.243c-1.316-2.052-2.589-4.133-3.841-6.228.382,3.727,1.497,6.549,3.841,6.228Z"/><path class="cls-1" d="M94.391,371.193c1.164,3.683,1.416,7.964,2.81,11.943.809,2.309,4.199,12.328,5.269,12.646,1.639.487,3.313-.073,4.944-.927-6.931-13.553-12.542-27.89-16.689-42.838.705,6.446,1.998,12.844,3.665,19.176Z"/><path class="cls-1" d="M332.198,58.567c-3.665-1.582-6.055.105-7.482,3.038,3.859.215,7.692.525,11.497.929-.189-1.298-1.132-2.722-4.016-3.966Z"/><path class="cls-1" d="M349.761,64.187c.004.075.004.129.008.201.188.031.377.062.565.093-.193-.1-.366-.178-.573-.295Z"/><path class="cls-1" d="M367.675,517.32c2.932-6.93-5.425.484-6.674,0-.828-.914-1.294-1.7-1.496-2.394-.795.168-1.589.338-2.386.498,2.134,2.75,2.644,7.484,10.556,1.897Z"/><path class="cls-1" d="M416.501,497.649c-.475.046-.986-.976-1.535-2.231-.723.365-1.45.724-2.178,1.082.733,1.633,1.597,3.091,2.308,3.257,3.567.833,3.159-3.106,5.62-4.918,2.215-1.631,8.468-2.501,7.388-6.609-2.225,1.313-4.467,2.6-6.74,3.839-1.989,2.759-4.079,5.505-4.863,5.581Z"/><path class="cls-1" d="M348.356,519.427c.708-.928.733-1.742.431-2.5-.531.086-1.059.181-1.592.263.478.573.879,1.292,1.16,2.236Z"/><path class="cls-1" d="M401.748,504.674l7.377-4.567-2.622-.624c-1.575.715-3.161,1.41-4.755,2.091v3.099Z"/><path class="cls-1" d="M325.875,520.832l.462-1.386c-.462.029-.923.062-1.386.088.057.442.326.885.924,1.298Z"/><path class="cls-1" d="M412.286,499.756c-.244-.076-1.769,1.692-.702,2.108,1.3.506,1.421-1.885.702-2.108Z"/><path class="cls-1" d="M103.524,195.912c.112,1.973-3.418,6.487-2.108,11.241.418,1.516,5.121,1.434,1.054,8.079,4.678-6.651,9.836.244,14.402-8.079-2.187-1.815-4.269,3.735-4.566,3.864-3.621,1.576-9.568-3.322-10.187-5.971-.766-3.278,3.446-7.251,1.693-11.341-.231.495-.466.989-.694,1.486.237.189.39.423.407.722Z"/><path class="cls-1" d="M92.634,258.788c2.181-1.321,5.559-9.078,5.971-9.484,3.439-3.384,10.378-5.123,12.646-10.538l-3.161-2.459c4.08,4.821-7.336,9.346-10.889,12.997-.808.83-3.883,8.611-6.674,9.484-1.071.335-3.453.324-5.982.342-.047.341-.098.681-.143,1.023,2.776.094,5.706.165,8.233-1.365Z"/><path class="cls-1" d="M499.4,218.744c1.838,1.064.644,3.057,1.054,4.215.09.339.466,1.028.702,2.108-.665-1.246-.447-1.387-.702-2.108-.192-.723-2.591-2.371-1.054-4.215ZM390.859,212.772c-.859,1.497-3.04,2.294-4.215,4.215-.249.408.243,2.068,0,2.459-6.217.469,1.686-12.1,3.161-12.646,3.536-1.308-2.293,3.823,1.756,2.81-.306.52-.529,2.858-.703,3.161ZM221.9,416.155c-2.016.275-1.662-4.987,0-4.918,1.373.057,1.543,4.707,0,4.918ZM208.903,466.035c-6.225-11.58,2.343-2.777,6.323.703-2.341,1.144-.205,2.871-6.323-.703ZM223.656,478.329c-1.005,1.724-5.323-2.36-3.864-3.161,1.294-.711,4.268,2.469,3.864,3.161ZM385.941,425.99c-2.172,4.39-.408,7.172-3.161,10.538l-.351-5.269c-5.977-3.512,1.737,7.638-2.459,8.079-1.536.161-1.346-5.416-2.108-7.025-2.141.107-.348,3.36-1.405,4.215-.178.144-4.431-.166-4.567-.351-1.14-1.558.818-6.894-2.459-8.782-5.894-3.397-5.22,3.195-8.782,5.269-2.812-8.806,5.697-6.047,9.484-10.187.611-.668-2.321-1.842.702-3.513,3.67,5.332,6.903-3.168,10.187-4.918.455,2.94,5.519,7.766,4.918,11.943ZM358.191,403.509l.703-1.405c5.983-.311,15.385,14.835,4.918,14.051l-1.405-4.918-3.161,5.971c1.763-5.393,2.478-8.738-1.054-13.699ZM362.758,401.051c-.755-1.512,1.72-3.841-1.054-5.269l-2.108,5.62-7.376-4.566c1.344-1.784,5.868.53,6.674.351.243-.054,1.227-3.428,3.513-3.513.9-.033,7.863,4.649,8.079,5.269,1.654,4.745-4.427,8.718-7.728,2.108ZM370.134,411.237l.702,5.62c-2.406-.835-.942-3.456-.702-5.62ZM361.352,419.316l3.161-2.459c3.904.155-5.461,7.17-3.161,2.459ZM377.511,399.997c.701.775,5.52,6.924,5.62,7.377.427,1.931-2.09,4.697-2.108,5.269-.797.113-.589-.497-.703-.703-.438-.061-1.251.109-1.405,0-.244,5.29-3.618.465-4.215,1.756-.052.113,2.369,2.497.351,2.459-.497-1.755-8.479-11.568-3.513-11.24,1.856,2.493,4.251,3.856,6.674,5.62.438.063,1.198-.116,1.405,0l.702-2.459c-1.606.363-4.757-1.384-4.918-2.81-.293-2.598,2.963,1.462,2.81-.703l-6.323-5.62,5.62,1.054ZM369.432,392.269c.308.203,5.275-.479,3.864,4.215-1.856-1.02-2.968-2.362-3.864-2.81-.353-.177-2.791,2.168-6.674-1.405-.694-.639-1.183-1.932-2.108-2.459,6.221-3.96,5.851.53,8.782,2.459ZM362.055,367.329c.325,2.369-4.388,10.569-4.918,12.997-.841,3.852,2.108,3.47,2.108,4.567,0,.407-3.693,3.293-4.215,4.215-.594,1.048,1.117,4.027-2.108,5.269-.474-.231-5.647-7.379-6.323-8.43-.173-5.569,3.731-1.238,4.918-3.161-1.841-6.129.418-11.59.351-17.915,3.688,2.901,7.792-.418,10.187,2.459ZM358.191,320.611c2.472,5.401.009,6.598-1.054,9.835-.169.514-1.821,4.369-2.108,4.918-.813,1.556-1.229,7.907-4.918,5.269,4.194-2.773.187-.765-.703-2.81-2.939-6.759,1.296-16.356,8.782-17.212ZM349.409,377.165c-.083.598-2.071,1.624-2.108,1.756-.298-.076-1.364-.635-1.405-.703-.532-3.546,4.043-4.898,3.513-1.054ZM344.492,405.969c.226-.583.003-9.271,1.054-9.484,5.476-1.112,1.471,6.891,1.054,8.782-.265,1.204,1.665,1.6,1.405,2.81-.143.666-10.088,7.196-11.592,6.674,1.79-2.676,6.921-5.799,8.079-8.782ZM299.53,508.187c-6.205.774-14.57,1.366-20.725.703-4.466-.481-13.862-3.491-20.022-4.215-10.568-5.094,1.775-6.57,7.376-7.025,2.318,3.871,4.566.884,7.025,1.405.515.109,2.308,2.712,2.81,2.81,1.797.352,4.254-2.079,4.918-2.108,2.639-.113,3.193,2.575,4.215,2.81,3.286.755,7.436-1.575,8.43-1.405.564.097,2.763,3.253,3.513,3.513,1.355.468,2.004-.743,2.108-.703,1.264.492.937,2.091,1.054,2.108-.301.851-.818.944-.702,2.108ZM302.34,508.889c-.036-.153-2.21-.926-1.405-2.81,8.069-3.313,13.79,1.94,21.779,2.459-7.056,8.023-14.627-2.23-20.373.351ZM324.47,514.509c-2.096.65-2.909-2.525-1.405-2.81,2.543-.481,3.177,2.26,1.405,2.81ZM317.093,461.819c6.856-2.62,8.956-14.536,11.592-16.158,2.102-1.294,13.045-1.946,12.997,2.459-13.189,5.282-1.015,8.472.702,16.158-.931,3.817-13.272.749-4.215,9.133-5.571,2.506-.153,2.008,0,3.513.141,1.39-7.639,4.722-8.43,6.323-.704,1.426.181,5.683-1.756,7.377-3.623,3.168-7.928.577-9.133-3.513-10.698,12.735-6.558.641-9.133-1.405-5.448-4.329-28.576,8.058-21.076-8.43l.351,7.377,1.756,1.054c3.682-2.648-.622-1.991-1.054-3.864-.276-1.197,1.416-3.489.702-4.918-.204-.41-7.452-2.643-7.728-4.918-.049-.408,2.364-5.64,2.81-7.728.09-.421-3.093-3.658,2.459-6.674,1.572,4.481,1.425,3.22,3.864,4.918.037-1.268,1.675-.452,2.108-.703,5.375-3.117,2.764-3.732,3.513-4.918,5.785-9.158,5.502-5.253,10.889-9.835,2.276-1.936,16.683-14.082,17.212-15.104,2.586-5.002-.166-9.487,6.323-13.699,1.534-.996,10.025-4.333,10.538-1.756-2.947,2.406-5.52,9.106-10.538,6.674-.116.371.125,1.099,0,1.405l4.918,4.566-3.864-1.054c-1.829,2.974,3.126,2.2,3.864,3.864.629,1.418-1.998,4.285.351,5.269,1.835.768,8.689-2.302,8.782-.351-4.807,9.246-11.731,5.148-17.212,7.377-2.883,1.172-6.773,15.151-12.294,16.861l.702.703ZM368.027,496.244c-1.155.85-3.764-3.577-2.108-4.918,1.057-.855,3.535,3.866,2.108,4.918ZM371.539,472.357c-1.382-.128-.345-2.069-.703-2.108-.652-.071-12.85,1.117-12.997,1.756-.051.223,2.253,3.763,2.459,3.864,4.115,2.017,10.082-2.642,11.592,3.864.006,4.066-9.332-.192-10.538,1.405l4.215,16.158c-7.228,2.618-5.372-4.896-6.323-6.323-6.142-9.212-14.688-5.489-7.728,4.918l-5.972,1.054c-3.611-1.709.1-17.836.351-21.427l11.24-.703-10.538-2.108c1.652-3.462,6.104-3.123,8.079-4.566.376-.275,3.009-5.743,4.215-5.62.473.048,4.182,5.362,7.728,4.918,1.107-.138,3.445-3.034,4.918-3.513.127-.041,1.29,1.454,1.405,1.405,3.501-1.476,6.094-3.175,8.43-6.323l-3.513,11.241c-1.424-.233-5.991,2.138-6.323,2.108ZM375.754,500.459l11.592,5.971c-3.41,4.18-14.311-.853-11.592-5.971ZM380.672,477.978c.468.027,5.216,4.331,8.079,3.864-9.269,6.87-10.112-3.981-8.079-3.864ZM448.466,165.351c2.682.077,2.572,10.086,2.108,11.943-.296,1.184-5.562,7.326-6.323,3.864-.178-.809,5.146-12.71,4.215-15.807ZM443.9,182.915c.239-.007,1.9,2.075,2.459,2.459-.085,2.342-1.908-1.174-2.108,0-.306,1.807,3.713,3.617,1.054,5.269-3.109.617-4.414-7.643-1.405-7.728ZM422.824,94.396c3.555-.994,1.85,3.096,0,2.81-1.137-.176-1.411-2.416,0-2.81ZM410.53,143.924c4.515-2.02-1.836-5.569-.351-9.484,6.255,11.407,11.693,23.454,16.509,35.478.889,2.218-1.829,4.294,4.215,7.025h-4.215c5.56,3.036-.075,9.799,5.62,11.943l-1.054,1.756-20.724-46.718ZM394.723,262.301c1.421,1.334,1.901,3.141,2.459,4.918-.564.07-.831.481-1.405.703-.971-1.671-3.487-3.788-1.054-5.62ZM397.884,471.304c.557-2.056-3.922-18.869,1.756-19.32.326-.026,5.149,3.379,5.269,3.864.175.711-1.432,3.326-1.405,3.513.825,5.704,4.257,14.484-5.62,11.943ZM394.02,477.978c-.462-.705.625-1.414.703-1.405,1.66.202.441,3.15-.703,1.405ZM389.454,481.842l6.674-2.459c3.837,3.305-6.679,4.431-6.674,2.459ZM410.881,482.193c-.654.215-12.999-3.877-12.997-4.566,1.517-.74,10.969-4.58,11.592-4.566,3.351.071,4.547,8.098,1.405,9.133ZM408.071,459.009c5.272-.939-.571,2.65-2.108,4.215-1.284-1.711.447-3.919,2.108-4.215ZM410.178,265.111c-2.22,1.472-2.328-1.809-3.864.351-.272,3.53,1.79,10.18-2.81,6.323.924,2.408,2.398,5.747-.351,7.376l-.703-6.323-1.054,6.323c-.529-.554-.544.432-2.108-2.107l.703-10.187c-1.257-3.692-5.654-4.311-4.215-7.728,2.116-5.027,6.773-1.59,7.377-1.756,2.088-.577-.633-3.052-.351-3.864,3.182-9.17,18.4-8.438,20.373-11.943l.351-4.566c1.646.024,1.201,4.08,1.054,4.918,6.804-11.611,11.63-15.735,7.025-30.56-.245-.789-2.283.103-2.81-.703-.14-.214,1.265-2.723.703-4.215-1.454-3.857-6.07-6.748-4.918-11.943,8.045-3.71,15.53-8.129,22.481-.703-2.188,4.511-5.346,4.409-7.728,6.323-.165.133.194,3.473-1.756,3.864-.218.043-3.336-1.932-4.215-1.405-3.876,2.323,9.065,19.853,9.484,22.13.717,3.897-1.602,7.836-1.405,11.241.087,1.509,2.831,8.244,2.81,8.782-.027.687-3.554,4.878-3.864,4.918-1.361.174-2.438-2.024-3.161-2.81-1.213-1.318-.367-2.415-1.054-2.81-2.563,1.792.978,3.438,1.054,5.62-.998-.178-5.304,1.252-7.377,0,1.458,7.52-1.853,3.97-2.108,4.215-1.214,1.17-2.376,4.131-2.81,4.215-.273.053-4.423-2.923-4.566-3.161-.408-.679.563-4.007-.351-4.566-.405-.248-1.279,2.11-1.405,2.108-1.432-.025-.611-1.985-3.513-1.405-.981.196-4.115,3.849-4.918,4.215-.325.149-7.409-2.263-5.269,1.756.918,1.725,6.149-4.117,5.971,2.459l4.918-7.025c.776,3.953,3.108,1.163,2.459,5.269-.096.608-6.368,6.242-8.079,7.376ZM442.495,221.554c-.276.17-4.495-5.851-2.108-5.62,1.167.113,3.639,4.217,2.108,5.62Z"/><path class="cls-1" d="M217.685,83.156c.42-.042,5.565-3.471,7.778-5.127-3.721,1.512-7.392,3.118-11.013,4.816.863.306,1.939.44,3.235.31Z"/><path class="cls-1" d="M302.607,61.428c-.32.013-.641.023-.961.037.147.338.266.608.342.615.153.014.367-.258.619-.651Z"/><path class="cls-1" d="M293.558,64.89c.628.044,2.917-1.811,4.724-3.255-.847.049-1.693.103-2.538.161-1.095.605-2.1,1.165-2.889,1.69l.702,1.405Z"/><path class="cls-1" d="M328.685,198.37c-2.476,1.062-4.423,3.568-5.791,4.587l18.437-5.992c.997-.364,1.16-5.687,1.054-5.972-2.272-6.119-16.585.171-16.861-1.405l5.269-11.592c-4.603,3.466-5.846,7.425-6.674,12.997.827,2.267,14.953-4.59,16.861,0,2.807,6.755-8.175,5.609-12.294,7.377Z"/><path class="cls-1" d="M450.223,468.142c-2.134-.151-3.631-2.756-3.864-2.81-4.647-1.074-9.665-.122-12.294-2.81l1.054,11.592c-2.93-3.322-4.398-2.649-8.079-.351-.832-9.916-.597-15.726-12.294-11.592,1.74,2.635.144,9.561.702,11.241.822,2.471,4.382,2.277,4.567,2.459.18.178.882,3.852,2.81,4.215.743.14,6.728-1.267,9.133-.702,1.652.388,3.406,2.342,4.516,3.669,7.559-4.909,14.813-10.247,21.722-15.987-2.988.084-5.879,1.226-7.972,1.078Z"/><path class="cls-1" d="M299.179,503.971c-.104-.04-.752,1.171-2.108.703-.75-.259-2.949-3.416-3.513-3.513-.995-.17-5.144,2.16-8.43,1.405-1.022-.235-1.576-2.923-4.215-2.81-.663.028-3.12,2.46-4.918,2.108-.502-.098-2.295-2.701-2.81-2.81-2.46-.521-4.708,2.466-7.025-1.405-5.602.455-17.945,1.932-7.376,7.025,6.16.724,15.556,3.734,20.022,4.215,6.155.663,14.52.072,20.725-.703-.115-1.164.402-1.257.702-2.108-.117-.017.21-1.615-1.054-2.108Z"/><path class="cls-1" d="M123.897,405.617c.053-3.86-4.606-10.465-7.728-12.646-1.008,2.204-2.015,9.583-1.455,15.043,1.252,2.095,2.524,4.177,3.841,6.228.247-.034.502-.089.776-.196,2.58-.999,4.53-5.747,4.566-8.43Z"/><path class="cls-1" d="M208.903,466.035c6.118,3.574,3.981,1.846,6.323.703-3.979-3.48-12.548-12.282-6.323-.703Z"/><path class="cls-1" d="M219.793,475.168c-1.459.801,2.859,4.886,3.864,3.161.404-.693-2.569-3.873-3.864-3.161Z"/><path class="cls-1" d="M147.227,130.798c.569.369,1.16.706,1.61.832,1.05.294,3.498-.345,4.215,0,3.697,1.779,9.645,12.821,10.538,13.348,4.756,2.807,11.965-2.205,14.051-1.405.553.212,3.79,8.39,5.269,9.484-1.272,3.661-.011,16.408,4.566,15.807,1.516-.199,4.169-3.613,8.43-2.108.754.267,7.503,9.614,8.43,9.836,4.421,1.056,15.903-7.518,20.373-7.728,4.341-.203,22.243,10.533,24.94,3.864.445-1.101-1.601-10.067,5.269-10.187.633-.011,11.409,3.875,11.943,4.215,2.732,1.742,3.887,8.346,6.323,9.133,2.355.761,7.044-.23,9.835.703,3.089,1.032,8.914,5.176,11.943,5.62,11.909,1.746,19.613-5.303,29.506-7.728,2.457-.602,5.57,1.572,9.835,0,9.946-3.665-2.628-17.073,11.24-18.968,13.2-1.804,14.298,4.772,22.13,12.294,6.701,6.436,4.371,3.755,12.997,7.377,1.509.634,3.499,3.99,4.215,4.215,7.512,2.366,10.85-6.944,13.348-7.025,4.317-1.186,1.029,16.551.351,17.915-1.881,3.788-8.06,3.86-10.538,7.025,5.823,3.975,7.775,5.297,4.918,11.592,11.44,3.937,11.095-5.666,14.051-12.294.912-2.046,1.598-1.485,2.81-4.918.301-.852,1.887-2.737,2.108-3.513.184-.648-2.351-.85-2.108-2.108.102-.528,4.49-5.317,4.918-9.133.93-8.299-2.965-12.274-4.215-17.563-.424-1.794,1.081-7.118-.703-10.538-.56-1.073-7.721-6.787-8.782-8.782-1.565,1.03,3.93,10.753-2.459,6.674-.172-1.126,3.164-1.645.351-3.864l-3.513,3.513c-2.693-11.772-4.968-1.393-8.782-5.269,3.726-5.029,8.598-22.64,14.402-24.94,1.717-.68,3.34.749,3.513.702,2.122-.579-.286-3.273,1.405-4.215.529-.295,2.242.408,3.864-.702,4.004-2.742,3.634-5.29,9.484-3.513.829.252,1.147,2.09,1.405,2.108l1.756-6.674c-.07-.636-4.052-6.615-2.108-9.835.612-1.014,3.525.454,3.196-3.731-21.111-11.814-44.279-20.384-68.835-25.041-.833.469-2.162.372-4.392-.79-.188-.032-.377-.062-.565-.093.291,5.69-1.647,1.29-5.628,1.906-1.87,1.334,1.938,4.257.703,4.918-.987.527-8.89-4.459-9.133-4.918-.303-.572.751-2.058.503-3.762-3.805-.404-7.639-.713-11.497-.929-.382.786-.699,1.656-.949,2.583-2.177-4.511-3.419-1.046-6.323-2.108-.431-.157-.67-.46-.812-.786-1.629-.034-3.26-.062-4.898-.062-3.059,0-6.098.078-9.128.197-.251.394-.465.665-.619.651-.077-.007-.196-.277-.342-.615-1.124.049-2.245.105-3.364.17-1.808,1.444-4.096,3.299-4.724,3.255l-.702-1.405c.789-.524,1.795-1.085,2.889-1.69-24.71,1.702-48.341,7.319-70.282,16.234-2.212,1.656-7.358,5.084-7.778,5.127-1.296.13-2.372-.005-3.235-.31-25.264,11.852-48.01,28.174-67.223,47.952Z"/><path class="cls-1" d="M98.606,249.304c-.412.406-3.79,8.163-5.971,9.484-2.527,1.531-5.457,1.459-8.233,1.365-1.32,9.955-2.012,20.108-2.012,30.423,0,10.675.746,21.173,2.157,31.46l5.629-3.182,1.405.703c.736,4.334-.185,7.227-.702,10.889-.991,7.238-.933,14.435-.153,21.571,4.146,14.947,9.758,29.285,16.689,42.838,2.678-1.402,5.243-3.601,7.35-3.288l3.513-22.832c1.295-3.521,3.971-3.756,6.323-5.269.806-.519,1.179-.562,1.405-.702,7.049-4.367,14.273-9.114,21.076-13.348,4.547-2.83,7.147-2.014,10.187-4.215,2.181-1.58,2.98-4.831,4.215-5.62,3.274-2.093,3.519,1.569,5.269-2.108,1.599,2.02.612.939,2.108.702.42-.066,1.058-.464,1.405-.702,2.148-1.476.796-.642.702-2.108.441.057,1.282-.102,1.405,0,1.373,1.138-.206,1.896,2.108,2.108.457.042.943.003,1.405,0,7.161-.042,11.562-8.471,12.646,2.81.291,3.034-.99,7.889.703,11.592h2.108l2.81-4.215-3.513,7.728c1.584,1.662,2.336-.52,4.918,1.054.741,2.563.554,5.113.702,7.728-1.844,2.238-2.337,8.107-1.405,10.538v.703c-.074.605.171.648.703.702,2.328.239,8.921,2.216,10.889,1.405,1.226-.505.3-2.271,3.161-3.513l1.405,1.405c-.959,1.213,3.358,27.338,7.025,19.671l.702.703c-.2.948-2.128,3.645-2.108,3.864.023.252,3.12,2.708,2.81,4.215-.122.592-1.552-.96-2.108.702-1.553,4.644-3.747,8.485-3.513,13.699.01.233-.025.473,0,.703.393,3.653,7.552,19.405,10.538,16.509-1.283,7.331.473,14.224,7.377,17.915.461.247,1.965-.242,2.459,0,.155.983-1.405.539-1.405,1.054s1.56.071,1.405,1.054c-1.837-.075-1.775,1.668-3.864,1.405-.58-.073-7.876-5.335-9.835-6.323-1.495-.753-3.786.221-4.215,0-4.391-2.259-7.715-8.804-10.538-10.538-2.688-1.651-7.391-2.239-10.538-2.81-3.346.909,7.057,7.668,8.079,8.782,3.647,3.973,8.949,9.881,12.646,14.402,3.48,4.256,1.248,5.854,2.81,9.484.737,1.712,5.019,3.894,5.62,4.918,1.207,2.054.176,4.437,2.108,7.025,3.881,5.2,10.315,9.794,15.456,13.699l9.835,3.513c.605-1.186,4.642-3.208,4.918-4.566.58-2.863-3.954-10.339,1.756-11.592,3.661-.803,11.806,5.731,10.889-3.864-.504-.714-11.202-1.416-12.997-1.756-.349-.066-1.058-1.341-1.405-1.405-1.984-.365-8.239.817-8.782.351-.298-.255-3.472-6.635-3.513-7.025-.313-3.037,5.488-6.88,5.62-7.728.068-.435-2.957-6.074-3.513-8.079-2.839-10.239,4.259-9.577-4.566-16.861-2.47-2.039-7.001-3.34-9.133-4.918-1.019-.754-2.006-2.948-3.513-4.215-.813-.684-2.02.771-2.108.702-2.563-2.021-4.315-7.017-2.459-9.484-3.489,2.363-.835-3.88-6.323-3.513,12.049-4.933-.245-29.31,15.456-19.32-.02.737,1.621,1.311,0,2.459,1.419,2.073,2.001.353,2.108.351,13.547-.25,2.143,9.471,5.269,11.24.634.359,3.551-.359,4.215,0,.446.241,4.213,7.499,5.62,8.43,1.092-.715,1.498-2.04,2.459-2.81l.702,1.405c-.248.425-2.83,7.529-2.459,7.728,3.409,1.822,8.81-4.47,11.592-7.025,1.373,2.116,3.24-.244,4.215-.702,2.352-1.106,4.956-1.896,7.025-3.513,13.138-2.702,4.94-8.693,6.323-13.699.164-.593,2.65-2.222,2.81-2.81,1.371-5.048-4.399-7.644-6.323-11.241-2.312-4.323-2.436-6.387-5.62-11.592-1.969-3.217-9.777-10.169-7.025-13.699,1.088-1.396,3.03.441,3.161.351.885-.603,5.936-9.24,7.377-10.889,1.059-1.212,1.911-.831,3.513-2.459.947-.963.65-1.347.702-1.405.314-.349,2.222-2.976,2.459-2.81-.212,4.262,3.389,3.812,5.269,5.972.073.084-1.347,1.135-.702,2.108,1.81,2.735,2.31.69,3.513,1.054-1.36-5.554,3.516-2.542,5.972-4.215.813-.554-.106-2.347.702-2.81,1.629-.933,4.362-1.282,4.567-1.405.165-.099.501.091.702,0,3.642-1.649,1.377-2.66,2.459-3.513,1.166-.919,4.652,3.55,5.62,2.81.873-.667-.155-2.613.703-3.513.195-.205,5.165.868,5.62.702.624-.227,4.493-3.823,5.62-4.215,5.447-1.895,10.424.391,13.699-5.971.782-1.519-.773-3.348-.702-3.513.512-1.193,7.214-1.619,7.728-2.81.691-1.603-1.79-2.502-1.405-3.513.314-.826,5.559,2.172.702-2.81,7.111-.733,4.654-3.749,7.025-6.323,5.25-5.699,5.939-9.364,9.133-12.997-2.64-3.471,2.813-5.749,2.81-6.674-.007-1.978-10.186-3.696-.702-5.62l-7.728-5.62,4.215.703-9.835-8.43c1.048-3.807,7.567-3.576,2.81-7.025,10.082-5.935-3.239-.3-3.864-.351-4.935-.405-5.811-10.257-1.405-11.943,1.099-.421,4.219.426,5.269,0,3.165-1.285,5.494-3.649,9.133-4.215-.13-.338-4.233-5.479-4.566-5.62-3.197-1.355-7.535,5.614-11.943,4.918-6.27-.991-2.441-7.429-4.918-7.728-.977-.118-4.327,3.485-5.269,1.756-.458-.841,5.383-6.92,8.079-4.566l-1.756-1.756c6.895-2.467,11.356-14.551,18.968-10.538,1.636,3.307-7.821,9.868-7.728,10.538.821,5.87,11.982-5.987,13.699-4.566.655,4.025,3.449,2.867,3.864,3.161.354.251-1.422,1.836.351,2.459,1.633.573,4.978-.723,7.025.703l-1.756,5.971c5.547-.383,11.307,7.925,10.538,12.646-.674,4.139-3.172-6.579-3.864-6.674-4.151-.571-.777,10.901-3.161,13.699,1.488,1.865,9.215-3.646,11.24-4.567,2.51-1.141,2.982.776,3.161.703,1.385-.563,3.808-6.916,3.161-8.782-.469-1.354-2.601-.847-2.81-1.405-.045-.12,1.45-1.285,1.405-1.405-.119-.321-5.175-4.955-2.108-5.971-2.096-3.216-8.244-8.191-8.43-8.782-1.091-3.461,1.772-6.182,2.108-8.782.401-3.102-.052-6.315,0-6.674.513-3.522,5.41-14.966,10.538-11.241,1.866-5.242-6.316-6.833-6.323-9.133,1.202-4.615,8.787-3.724,10.538-7.025.703-1.324,2.576-14.075,2.108-15.456-2.339-1.966-5.059,4.185-8.079,5.269-8.682,3.118-7.01-1.791-10.538-3.513-2.731-1.332-10.001-2.753-11.24-3.513-1.872-1.148-10.999-14.909-12.646-15.456-3.303-1.095-13.401-1.218-16.158,1.405-4.216,4.011,4.684,12.991-7.025,16.861-4.952,1.637-5.628-.69-8.43,0-7.99,1.968-16.296,7.55-24.589,7.728-8.18.175-12.475-3.936-19.671-6.323-7.943-2.634-10.198,2.141-14.753-9.835-3.992.509-13.996-6.073-15.807-.351-.504,1.592,1.12,3.129.702,4.918-2.421,10.366-22.1-2.477-27.75-1.756-4.05.517-13.068,7.475-17.915,8.079,11.397,4.101,13.061,13.885,8.782,24.237,3.141-1.136,14.637,5.071,16.861,7.025,3.548,3.119,2.191,8.089,6.323,9.835,3.76,1.589,7.73-1.076,11.241-.702,5.852.622,17.761,7.681,23.184,8.43.993.137,17.355-2.51,18.266-2.81,3.694-1.217,10.545-8.332,11.24-8.43,2.479-.352,4.116,3.616,7.728,1.405,4.217-2.582-.975-7.783,2.108-11.24,1.28-1.436,5.865-1.706,8.964-2.228l-6.856,2.228c-3.78,2.366-.307,6.237-1.054,9.484-1.466,6.375-10.125,1.578-10.889,1.756-.612.143-1.557,2.725-2.81,3.513-6.78,4.26-21.556,8.437-29.506,7.025-3.96-.703-14.598-6.973-19.671-7.728-3.252-.484-11.952,1.637-14.753,0-1.376-.804-1.306-5.473-2.459-7.377-1.811-2.991-7.009-4.402-10.187-5.972-1.533-.757-2.184-4.684-8.43-2.81-.959-6.458,4.69-10.405-.351-18.617-1.966-3.203-5.729-3.609-6.674-4.566-1.854-1.877-11.081-13.107-11.943-13.348-6.55-1.834-8.859,11.473-13.699-8.079-.52-2.1,1.184-4.137.702-6.323-.1-.453-4.138-7.902-4.567-8.079-.62-.256-9.711,2.512-13.348,1.405-2.081-.633-9.353-13.35-11.24-13.348-.369,0-3.07,3.459-3.513,3.513-.855.104-2.92-1.796-4.384-2.845-16.528,17.618-30.301,37.845-40.641,60.001,1.753,4.09-2.458,8.063-1.693,11.341.619,2.649,6.565,7.547,10.187,5.971.297-.129,2.38-5.678,4.566-3.864-4.566,8.323-9.724,1.428-14.402,8.079,4.067-6.645-.636-6.563-1.054-8.079-1.311-4.754,2.219-9.268,2.108-11.241-.017-.299-.17-.533-.407-.722-4.07,8.886-7.594,18.074-10.518,27.527,4.149,2.67,5.704-3.601,5.656,7.971l10.187-4.566-9.835,5.62c4.986.272,8.709.122,13.348,2.81-3.013-1.116-5.629,1.75-5.972,1.756-7.196.12-10.139-4.716-10.538-11.24-1.517.932-2.993,2.03-4.468,3.143-2.832,10.043-4.984,20.369-6.431,30.92,2.529-.018,4.911-.007,5.982-.342,2.792-.873,5.866-8.654,6.674-9.484,3.553-3.651,14.969-8.176,10.889-12.997l3.161,2.459M340.979,190.994c-1.908-4.59-16.034,2.267-16.861,0,.828-5.572,2.071-9.531,6.674-12.997l-5.269,11.592c.276,1.576,14.589-4.714,16.861,1.405.106.284-.057,5.608-1.054,5.972l-18.437,5.992c1.368-1.019,3.316-3.525,5.791-4.587,4.119-1.767,15.101-.622,12.294-7.377Z"/><path class="cls-1" d="M426.337,93.694c.349-.513.581-.968.738-1.378-.667-.389-1.336-.777-2.007-1.16l1.269,2.538Z"/><path class="cls-1" d="M435.821,109.149c2.568,2.063,2.195,6.502,3.513,8.782,2.54,4.395,14.557,14.816,15.456,19.671.981,5.303-3.717,12.812,0,16.158.071-4.042.078-7.518,4.215-8.782-.636-5.808-3.154-12.225-4.215-17.915-.234-1.256,1.275-4.008.702-6.323-.534-2.161-3.064-2.562-3.513-3.513-.713-1.51-2.534-7.423-2.81-7.728-1.812-2.006-3.782.238-6.323-4.215-.279-.49.279-2.312,0-2.81-.023-.042-.046-.084-.07-.126-2.632-1.836-5.3-3.625-8.011-5.352.685,3.973.945,8.066,1.056,12.152Z"/><path class="cls-1" d="M499.4,218.744c-1.537,1.844.862,3.492,1.054,4.215-.41-1.158.784-3.151-1.054-4.215Z"/><path class="cls-1" d="M450.574,177.294c.465-1.857.574-11.866-2.108-11.943.931,3.097-4.393,14.998-4.215,15.807.76,3.462,6.027-2.68,6.323-3.864Z"/><path class="cls-1" d="M432.308,188.886c-5.695-2.144-.06-8.907-5.62-11.943h4.215c-6.044-2.732-3.326-4.807-4.215-7.025-4.817-12.023-10.254-24.07-16.509-35.478-1.485,3.915,4.866,7.464.351,9.484l20.724,46.718,1.054-1.756Z"/><path class="cls-1" d="M445.305,190.643c2.659-1.652-1.36-3.462-1.054-5.269.199-1.174,2.023,2.342,2.108,0-.559-.384-2.22-2.466-2.459-2.459-3.009.085-1.704,8.345,1.405,7.728Z"/><path class="cls-2" d="M397.182,267.218c-.558-1.777-1.038-3.584-2.459-4.918-2.433,1.832.083,3.949,1.054,5.62.573-.221.841-.633,1.405-.703Z"/><path class="cls-2" d="M442.495,221.554c1.531-1.403-.94-5.507-2.108-5.62-2.387-.231,1.831,5.79,2.108,5.62Z"/><path class="cls-1" d="M388.751,241.928c.206.316.375,2.313,1.054,2.81.769-1.269.638-3.371-1.054-2.81Z"/><path class="cls-1" d="M500.454,222.959c.255.721.037.861.702,2.108-.236-1.08-.612-1.768-.702-2.108Z"/><path class="cls-1" d="M350.112,340.633c3.689,2.638,4.104-3.713,4.918-5.269.287-.548,1.939-4.404,2.108-4.918,1.063-3.237,3.526-4.434,1.054-9.835-7.485.856-11.721,10.453-8.782,17.212.889,2.046,4.896.037.703,2.81Z"/><path class="cls-1" d="M279.156,365.222h2.81c-3.213,10.66,6.044-4.151,6.674-4.566.915-.604,8.682.567,3.161-7.377-1.914-2.754-2.257-.675-3.513-1.054l-9.133,8.079c2.741,1.774-.69,2.043,0,4.918Z"/><path class="cls-1" d="M422.824,94.396c-1.411.395-1.137,2.634,0,2.81,1.85.286,3.555-3.805,0-2.81Z"/><path class="cls-1" d="M389.805,206.801c-1.476.546-9.378,13.114-3.161,12.646.243-.391-.249-2.051,0-2.459,1.175-1.921,3.356-2.718,4.215-4.215.174-.303.396-2.641.703-3.161-4.049,1.013,1.779-4.118-1.756-2.81Z"/><path class="cls-1" d="M146.878,131.155c-.579.599-1.159,1.197-1.732,1.802,7.477,3.66,5.244-.635,1.732-1.802Z"/><path class="cls-2" d="M418.257,257.734c.649-4.106-1.683-1.316-2.459-5.269l-4.918,7.025c.178-6.576-5.053-.734-5.971-2.459-2.14-4.019,4.944-1.608,5.269-1.756.802-.367,3.937-4.019,4.918-4.215,2.901-.58,2.081,1.38,3.513,1.405.127.002,1-2.356,1.405-2.108.914.559-.057,3.887.351,4.566.143.238,4.294,3.214,4.566,3.161.434-.084,1.596-3.045,2.81-4.215.254-.245,3.565,3.305,2.108-4.215,2.073,1.252,6.379-.178,7.377,0-.075-2.182-3.617-3.829-1.054-5.62.687.395-.159,1.492,1.054,2.81.723.786,1.801,2.985,3.161,2.81.31-.04,3.837-4.231,3.864-4.918.021-.537-2.723-7.273-2.81-8.782-.197-3.405,2.122-7.344,1.405-11.241-.419-2.277-13.36-19.807-9.484-22.13.879-.526,3.997,1.449,4.215,1.405,1.95-.391,1.591-3.731,1.756-3.864,2.381-1.914,5.54-1.812,7.728-6.323-6.951-7.426-14.435-3.008-22.481.703-1.153,5.195,3.464,8.086,4.918,11.943.563,1.493-.843,4.001-.703,4.215.528.806,2.565-.086,2.81.703,4.604,14.825-.221,18.949-7.025,30.56.148-.838.593-4.894-1.054-4.918l-.351,4.566c-1.974,3.505-17.192,2.773-20.373,11.943-.282.811,2.439,3.287.351,3.864-.603.167-5.26-3.27-7.377,1.756-1.439,3.417,2.958,4.036,4.215,7.728l-.703,10.187c1.564,2.54,1.579,1.554,2.108,2.107l1.054-6.323.703,6.323c2.749-1.629,1.276-4.968.351-7.376,4.6,3.857,2.538-2.793,2.81-6.323,1.536-2.16,1.644,1.121,3.864-.351,1.711-1.135,7.983-6.768,8.079-7.376Z"/><path class="cls-1" d="M221.9,411.237c-1.662-.069-2.016,5.193,0,4.918,1.543-.211,1.373-4.861,0-4.918Z"/><path class="cls-1" d="M351.868,364.87c.067,6.325-2.192,11.786-.351,17.915-1.186,1.923-5.091-2.408-4.918,3.161.675,1.052,5.849,8.2,6.323,8.43,3.224-1.242,1.514-4.221,2.108-5.269.523-.922,4.215-3.808,4.215-4.215,0-1.097-2.948-.715-2.108-4.567.53-2.428,5.243-10.628,4.918-12.997-2.395-2.877-6.498.442-10.187-2.459Z"/><path class="cls-1" d="M347.302,378.921c.037-.132,2.025-1.159,2.108-1.756.531-3.844-4.045-2.492-3.513,1.054.041.067,1.107.626,1.405.703Z"/><path class="cls-1" d="M328.685,444.256c5.481-2.228,12.405,1.869,17.212-7.377-.093-1.95-6.946,1.12-8.782.351-2.35-.984.278-3.851-.351-5.269-.738-1.664-5.693-.89-3.864-3.864l3.864,1.054-4.918-4.566c.125-.306-.116-1.034,0-1.405,5.018,2.432,7.59-4.268,10.538-6.674-.513-2.577-9.004.761-10.538,1.756-6.488,4.212-3.737,8.698-6.323,13.699-.529,1.022-14.936,13.168-17.212,15.104-5.387,4.583-5.104.677-10.889,9.835-.749,1.186,1.862,1.8-3.513,4.918-.433.251-2.07-.565-2.108.703-2.438-1.698-2.292-.437-3.864-4.918-5.552,3.016-2.369,6.253-2.459,6.674-.446,2.088-2.86,7.32-2.81,7.728.275,2.275,7.523,4.508,7.728,4.918.713,1.429-.979,3.721-.702,4.918.432,1.873,4.736,1.216,1.054,3.864l-1.756-1.054-.351-7.377c-7.5,16.488,15.628,4.101,21.076,8.43,2.575,2.046-1.565,14.14,9.133,1.405,1.205,4.089,5.51,6.681,9.133,3.513,1.937-1.694,1.052-5.951,1.756-7.377.791-1.601,8.572-4.933,8.43-6.323-.153-1.505-5.571-1.007,0-3.513-9.057-8.384,3.284-5.316,4.215-9.133-1.717-7.686-13.891-10.877-.702-16.158.048-4.405-10.895-3.753-12.997-2.459-2.636,1.622-4.736,13.538-11.592,16.158l-.702-.703c5.522-1.709,9.411-15.689,12.294-16.861Z"/><path class="cls-1" d="M362.758,392.269c3.883,3.573,6.321,1.228,6.674,1.405.896.449,2.008,1.791,3.864,2.81,1.411-4.695-3.556-4.012-3.864-4.215-2.931-1.929-2.56-6.419-8.782-2.459.925.527,1.414,1.82,2.108,2.459Z"/><path class="cls-1" d="M370.837,418.965c-3.024,1.671-.092,2.845-.702,3.513-3.787,4.14-12.296,1.38-9.484,10.187,3.561-2.074,2.887-8.665,8.782-5.269,3.277,1.888,1.319,7.223,2.459,8.782.135.185,4.388.495,4.567.351,1.057-.855-.736-4.108,1.405-4.215.762,1.61.572,7.187,2.108,7.025,4.195-.441-3.518-11.591,2.459-8.079l.351,5.269c2.754-3.366.989-6.148,3.161-10.538.601-4.177-4.462-9.003-4.918-11.943-3.283,1.75-6.517,10.249-10.187,4.918Z"/><path class="cls-1" d="M399.64,451.984c-5.678.451-1.199,17.263-1.756,19.32,9.877,2.541,6.445-6.239,5.62-11.943-.027-.187,1.58-2.802,1.405-3.513-.12-.485-4.943-3.89-5.269-3.864Z"/><path class="cls-1" d="M409.476,473.06c-.623-.013-10.075,3.827-11.592,4.566-.002.689,12.343,4.782,12.997,4.566,3.142-1.034,1.946-9.062-1.405-9.133Z"/><path class="cls-1" d="M425.634,486.408c-.356.077-2.261,2.875-4.27,5.66,2.273-1.239,4.515-2.526,6.74-3.839-.006-.023-.005-.042-.012-.065-.121-.432-1.763-1.906-2.459-1.756Z"/><path class="cls-1" d="M411.232,491.677c-.144.221.592,2.674,1.556,4.823.728-.358,1.455-.717,2.178-1.082-1.088-2.489-2.325-5.899-3.734-3.74Z"/><path class="cls-1" d="M345.897,510.645c-.406-.609-1.096-.308-1.756-.351-1.973-.129-8.333,3.835-10.187,5.269,4.366.645,10.372-1.813,13.241,1.628.532-.082,1.061-.177,1.592-.263-.853-2.142-4.373-3.824-2.89-6.282Z"/><path class="cls-1" d="M401.748,501.575c1.594-.681,3.18-1.376,4.755-2.091l-4.755-1.132v3.223Z"/><path class="cls-1" d="M408.071,459.009c-1.661.296-3.391,2.504-2.108,4.215,1.537-1.565,7.379-5.154,2.108-4.215Z"/><path class="cls-1" d="M300.935,506.079c-.805,1.884,1.37,2.657,1.405,2.81,5.747-2.581,13.318,7.671,20.373-.351-7.989-.518-13.71-5.772-21.779-2.459Z"/><path class="cls-1" d="M324.951,519.534c.463-.026.924-.059,1.386-.088l.943-2.829c-1.087.578-2.48,1.744-2.329,2.917Z"/><path class="cls-1" d="M323.065,511.699c-1.504.285-.691,3.461,1.405,2.81,1.772-.55,1.138-3.292-1.405-2.81Z"/><path class="cls-1" d="M394.02,477.978c1.144,1.745,2.363-1.203.703-1.405-.078-.009-1.165.7-.703,1.405Z"/><path class="cls-1" d="M377.862,470.25l3.513-11.241c-2.337,3.148-4.93,4.846-8.43,6.323-.115.049-1.278-1.446-1.405-1.405-1.473.479-3.811,3.374-4.918,3.513-3.545.444-7.254-4.87-7.728-4.918-1.207-.123-3.839,5.345-4.215,5.62-1.975,1.443-6.427,1.104-8.079,4.566l10.538,2.108-11.24.703c-.251,3.591-3.962,19.718-.351,21.427l5.972-1.054c-6.96-10.407,1.585-14.129,7.728-4.918.951,1.426-.905,8.941,6.323,6.323l-4.215-16.158c1.206-1.597,10.544,2.661,10.538-1.405-1.51-6.506-7.476-1.847-11.592-3.864-.205-.101-2.51-3.641-2.459-3.864.147-.639,12.345-1.827,12.997-1.756.358.039-.679,1.98.703,2.108.332.031,4.899-2.34,6.323-2.108Z"/><path class="cls-1" d="M387.346,506.43l-11.592-5.971c-2.719,5.118,8.182,10.152,11.592,5.971Z"/><path class="cls-1" d="M380.672,477.978c-2.032-.117-1.19,10.734,8.079,3.864-2.863.467-7.611-3.837-8.079-3.864Z"/><path class="cls-1" d="M396.128,479.383l-6.674,2.459c-.005,1.972,10.511.846,6.674-2.459Z"/><path class="cls-1" d="M365.919,491.326c-1.657,1.341.953,5.768,2.108,4.918,1.428-1.052-1.05-5.773-2.108-4.918Z"/><path class="cls-1" d="M362.406,411.237l1.405,4.918c10.467.784,1.066-14.362-4.918-14.051l-.703,1.405c3.532,4.961,2.817,8.306,1.054,13.699l3.161-5.971Z"/><path class="cls-1" d="M348.005,408.076c.259-1.21-1.671-1.606-1.405-2.81.417-1.891,4.422-9.894-1.054-8.782-1.051.213-.827,8.901-1.054,9.484-1.158,2.983-6.289,6.106-8.079,8.782,1.504.522,11.449-6.008,11.592-6.674Z"/><path class="cls-1" d="M378.213,404.563c.153,2.164-3.103-1.895-2.81.703.161,1.427,3.312,3.173,4.918,2.81l-.702,2.459c-.207-.116-.967.063-1.405,0-2.423-1.764-4.818-3.127-6.674-5.62-4.966-.328,3.016,9.485,3.513,11.24,2.018.039-.403-2.346-.351-2.459.597-1.292,3.971,3.533,4.215-1.756.154.109.967-.061,1.405,0,.114.205-.095.816.703.703.018-.572,2.534-3.338,2.108-5.269-.1-.453-4.919-6.602-5.62-7.377l-5.62-1.054,6.323,5.62Z"/><path class="cls-1" d="M361.352,419.316c-2.299,4.711,7.065-2.304,3.161-2.459l-3.161,2.459Z"/><path class="cls-1" d="M370.837,416.858l-.702-5.62c-.24,2.164-1.704,4.786.702,5.62Z"/><path class="cls-1" d="M370.485,398.943c-.216-.62-7.179-5.302-8.079-5.269-2.285.084-3.27,3.459-3.513,3.513-.806.179-5.33-2.135-6.674-.351l7.376,4.566,2.108-5.62c2.774,1.428.299,3.757,1.054,5.269,3.3,6.61,9.382,2.638,7.728-2.108Z"/></g><g id="honey_copy"><rect class="cls-2" x="67.98" y="137.492" width="1" height="66.617" transform="translate(-61.472 40.513) rotate(-23.079)"/><rect class="cls-2" x="54.602" y="133.795" width="42.677" height=".999" transform="translate(-33.957 26.015) rotate(-15.938)"/><rect class="cls-2" x="113.278" y="124.229" width="1" height="75.557" transform="translate(-61.612 70.191) rotate(-27.288)"/><rect class="cls-2" x="81.364" y="198.012" width="49.906" height=".999" transform="translate(-22.551 13.841) rotate(-6.736)"/><rect class="cls-2" x="42.812" y="206.805" width="39.612" height="1" transform="translate(-58.545 27.817) rotate(-17.214)"/><rect class="cls-2" x="3.447" y="222.526" width="42.666" height="1" transform="translate(-100.234 36.677) rotate(-27.516)"/><rect class="cls-2" x="33.074" y="221.087" width="1" height="76.888" transform="translate(-176.774 103.848) rotate(-46.123)"/><rect class="cls-2" x="57.82" y="275.019" width="36.242" height="1" transform="translate(-147.502 97.331) rotate(-36.019)"/><rect class="cls-2" x="113.278" y="252.915" width="1" height="56.932" transform="translate(-181.4 210.737) rotate(-54.525)"/><rect class="cls-2" x="85.566" y="201.115" width="1" height="63.006" transform="translate(-32.553 14.793) rotate(-8.267)"/><rect class="cls-2" x="71.182" y="229.188" width="79.331" height=".999" transform="translate(-143.252 207.842) rotate(-59.324)"/><rect class="cls-2" x="28.204" y="317.652" width="112.526" height="1.001" transform="translate(-108.897 51.758) rotate(-21.106)"/><rect class="cls-2" x="16.686" y="311.789" width="59.888" height="1" transform="translate(-248.445 199.906) rotate(-60.657)"/><rect class="cls-2" x="2.802" y="356.288" width="40.761" height="1" transform="translate(-308.681 223.738) rotate(-64.436)"/><rect class="cls-2" x="45.075" y="350.426" width="122.485" height="1" transform="translate(-250.76 267.57) rotate(-60.005)"/><rect class="cls-2" x="44.532" y="355.71" width=".999" height="67.706" transform="translate(-326.732 264.746) rotate(-64.847)"/><rect class="cls-2" x="47.74" y="422.903" width="41.479" height="1" transform="translate(-352.316 340.395) rotate(-69.654)"/><rect class="cls-2" x="32.544" y="464.471" width="45.76" height="1" transform="translate(-408.252 399.592) rotate(-75.177)"/><rect class="cls-2" x="102.886" y="390.712" width=".999" height="71.244" transform="translate(-293.237 238.878) rotate(-51.072)"/><rect class="cls-2" x="107.705" y="468.468" width="40.924" height=".999" transform="translate(-354.288 528.924) rotate(-81.799)"/><rect class="cls-2" x="86.898" y="450.301" width="1" height="75.704" transform="translate(-403.022 561.77) rotate(-88.386)"/><rect class="cls-2" x="123.399" y="419.972" width="111.322" height="1" transform="translate(-188.735 149.204) rotate(-30.522)"/><rect class="cls-2" x="182.335" y="279.27" width="1" height="131.589" transform="translate(-188.823 225.196) rotate(-44.207)"/><rect class="cls-2" x="147.923" y="443.154" width="113.523" height="1" transform="translate(-283.903 441.118) rotate(-64.936)"/><rect class="cls-2" x="186.021" y="494.227" width="1" height="41.142" transform="translate(-138.966 74.497) rotate(-16.557)"/><rect class="cls-2" x="172.187" y="495.914" width="92.085" height=".999" transform="translate(-315.136 398.58) rotate(-55.875)"/><rect class="cls-2" x="235.049" y="391.171" width="1" height="69.882" transform="translate(-96.862 70.363) rotate(-14.124)"/><rect class="cls-2" x="175.715" y="476.195" width="73.306" height="1" transform="translate(-210.534 170.93) rotate(-30.12)"/><rect class="cls-2" x="245.175" y="456.748" width="1" height="50.108" transform="translate(-30.246 16.66) rotate(-3.659)"/><rect class="cls-2" x="251.837" y="503.632" width="1" height="43.65" transform="translate(-148.337 102.09) rotate(-17.771)"/><rect class="cls-2" x="249.573" y="522.026" width="69.094" height="1" transform="translate(-281.261 337.86) rotate(-43.377)"/><rect class="cls-2" x="276.159" y="440.197" width="1" height="76.726" transform="translate(-275.834 460.921) rotate(-58.139)"/><rect class="cls-2" x="319.059" y="493.476" width="1" height="39.18" transform="translate(-222.295 245.206) rotate(-31.779)"/><rect class="cls-2" x="355.223" y="514.389" width=".999" height="58.907" transform="translate(-292.09 595.239) rotate(-61.348)"/><rect class="cls-2" x="268.135" y="543.837" width="1" height="41.045" transform="translate(-233.552 192.238) rotate(-28.007)"/><rect class="cls-2" x="276.837" y="569.722" width="106.166" height="1" transform="translate(-122.584 91.431) rotate(-13.33)"/><rect class="cls-2" x="267.174" y="555.599" width="73.8" height="1" transform="translate(-306.092 384.622) rotate(-45.633)"/><rect class="cls-2" x="353.635" y="519.383" width="79.849" height="1" transform="translate(-220.598 738.923) rotate(-72.503)"/><rect class="cls-2" x="410.912" y="482.99" width="1" height="93.995" transform="translate(-62.893 55.455) rotate(-7.165)"/><rect class="cls-2" x="425.301" y="473.543" width="1.001" height="51.602" transform="translate(-229.97 524.138) rotate(-51.71)"/><rect class="cls-2" x="404.073" y="429.513" width="1" height="52.307" transform="translate(-16.741 15.432) rotate(-2.141)"/><rect class="cls-2" x="445.641" y="400.07" width=".999" height="90.899" transform="translate(-127.843 706.425) rotate(-69.404)"/><rect class="cls-2" x="432.817" y="488.586" width="70.702" height="1" transform="translate(-206.242 548.723) rotate(-51.305)"/><rect class="cls-2" x="463.938" y="502.867" width="1.001" height="39.584" transform="translate(-193.029 760.59) rotate(-68.27)"/><rect class="cls-2" x="451.39" y="495.247" width="68.73" height="1" transform="translate(-49.91 937.091) rotate(-85.069)"/><rect class="cls-2" x="503.641" y="515.3" width=".999" height="45.627" transform="translate(-178.264 817.484) rotate(-69.131)"/><rect class="cls-2" x="524.957" y="467.369" width="1" height="78.871"/><rect class="cls-2" x="507.793" y="445.953" width="1.001" height="36.405" transform="translate(-24.878 899.507) rotate(-81.634)"/><rect class="cls-2" x="505.959" y="437.009" width="63.511" height="1.001" transform="translate(-73.618 764.349) rotate(-67.264)"/><rect class="cls-2" x="513.715" y="408.514" width="36.274" height="1.001" transform="translate(-17.444 23.744) rotate(-2.516)"/><rect class="cls-2" x="505.505" y="379.044" width="1" height="31.963" transform="translate(-127.92 293.905) rotate(-28.915)"/><rect class="cls-2" x="397.748" y="404.783" width="106.379" height="1.001" transform="translate(-135.159 250.073) rotate(-27.115)"/><rect class="cls-2" x="298.977" y="463.013" width="116.532" height="1" transform="translate(-203.234 295.189) rotate(-35.661)"/><rect class="cls-2" x="483.922" y="281.669" width="1" height="101.3" transform="translate(-72.431 145.197) rotate(-15.876)"/><rect class="cls-2" x="537.924" y="350" width="1" height="61.274" transform="translate(-103.752 230.987) rotate(-22.14)"/><rect class="cls-2" x="526.432" y="347.762" width="36.243" height=".999" transform="translate(-63.47 128.871) rotate(-12.76)"/><rect class="cls-2" x="555.599" y="276.034" width="1" height="68.782" transform="translate(-46.417 104.065) rotate(-10.265)"/><rect class="cls-2" x="517.098" y="285.143" width="35.37" height="1.001" transform="translate(-70.826 314.33) rotate(-30.82)"/><rect class="cls-2" x="470.461" y="279.015" width="81.747" height="1.001" transform="translate(-18.615 37.141) rotate(-4.086)"/><rect class="cls-2" x="494.581" y="264.017" width=".999" height="50.27" transform="translate(103.726 708.145) rotate(-77.24)"/><rect class="cls-2" x="522.026" y="294.549" width="1" height="55.733" transform="translate(-31.015 56.751) rotate(-6.038)"/><rect class="cls-2" x="492.868" y="365.037" width="37.999" height="1" transform="translate(-109.657 462.147) rotate(-44.367)"/><rect class="cls-2" x="527.209" y="367.347" width="97.218" height="1" transform="translate(-41.814 660.094) rotate(-57.894)"/><rect class="cls-2" x="560.356" y="334.971" width="43.179" height="1.001" transform="translate(-86.153 265.86) rotate(-24.014)"/><rect class="cls-2" x="600.098" y="198.77" width="1" height="127.918" transform="translate(-4.294 10.044) rotate(-.955)"/><rect class="cls-2" x="158.31" y="471.369" width=".999" height="80.998" transform="translate(-354.343 357.261) rotate(-55.996)"/><rect class="cls-2" x="9.625" y="232.757" width="1" height="142.544" transform="translate(-18.168 1.15) rotate(-3.429)"/><rect class="cls-2" x="31.475" y="372.475" width="1" height="117.31" transform="translate(-127.794 29.422) rotate(-17.447)"/><rect class="cls-2" x="234.828" y="509.311" width="1" height="98.373" transform="translate(-367.028 491.664) rotate(-60.82)"/><rect class="cls-2" x="398.922" y="547.149" width="1" height="40.284" transform="translate(-288.336 658.646) rotate(-62.417)"/><rect class="cls-2" x="415.182" y="560.929" width="112.367" height="1" transform="translate(-134.278 148.411) rotate(-15.692)"/><rect class="cls-2" x="567.585" y="214.532" width="42.667" height="1" transform="translate(86.764 590.405) rotate(-56.838)"/><rect class="cls-2" x="537.851" y="254.234" width="51.509" height="1" transform="translate(49.2 598.141) rotate(-58.048)"/><rect class="cls-2" x="542.055" y="186.968" width=".999" height="72.116" transform="translate(179.683 683.928) rotate(-74.132)"/><rect class="cls-2" x="449.72" y="245.708" width="78.997" height="1.001" transform="translate(41.104 561.083) rotate(-61.809)"/><rect class="cls-2" x="571.054" y="154.863" width="1.001" height="64.56" transform="translate(190.974 652.821) rotate(-68.872)"/><rect class="cls-2" x="530.496" y="157.333" width="39.483" height="1" transform="translate(163.915 580.24) rotate(-63.56)"/><rect class="cls-2" x="586.243" y="97.203" width=".999" height="101.897" transform="translate(-18.176 165.151) rotate(-15.781)"/><rect class="cls-2" x="545.059" y="118.341" width="41.799" height="1" transform="translate(265.959 613.242) rotate(-70.61)"/><rect class="cls-2" x="502.009" y="98.623" width="70.878" height="1"/><rect class="cls-2" x="488.741" y="116.209" width="87.821" height="1" transform="translate(-2.156 223.102) rotate(-23.61)"/><rect class="cls-2" x="499.643" y="133.545" width="1" height="80.372" transform="translate(-24.073 99.414) rotate(-11.086)"/><rect class="cls-2" x="516.43" y="122.877" width="1" height="64.049" transform="translate(65.733 450.929) rotate(-49.95)"/><rect class="cls-2" x="500.601" y="193.66" width="48.113" height=".999" transform="translate(19.489 434.51) rotate(-45.752)"/><rect class="cls-2" x="370.889" y="146.407" width="123.147" height="1.001" transform="translate(-22.075 102.169) rotate(-13.141)"/><rect class="cls-2" x="475.129" y="43.455" width=".999" height="68.168" transform="translate(114.429 396.554) rotate(-50.71)"/><rect class="cls-2" x="450.082" y="55.909" width="1" height="37.4" transform="translate(-4.17 32.291) rotate(-4.086)"/><rect class="cls-2" x="470.333" y="83.999" width="1" height="59.558" transform="translate(63.975 376.638) rotate(-46.451)"/><rect class="cls-2" x="478.984" y="116.209" width="36.457" height="1" transform="translate(253.56 565.568) rotate(-74.715)"/><rect class="cls-2" x="342.644" y="120.739" width="82.646" height="1" transform="translate(161.009 456.529) rotate(-73.901)"/><rect class="cls-2" x="390.129" y="44.149" width="1" height="38.002" transform="translate(-3.291 100.645) rotate(-14.62)"/><rect class="cls-2" x="417.707" y="17.506" width="1.001" height="65.71" transform="translate(297.355 453.88) rotate(-80.194)"/><rect class="cls-2" x="422.503" y="59.204" width="1" height="56.39" transform="translate(249.563 482.985) rotate(-77.999)"/><rect class="cls-2" x="378.671" y="4.753" width="1" height="41.12" transform="translate(12.251 124.214) rotate(-18.905)"/><rect class="cls-2" x="312.724" y="32.541" width="72.141" height="1.001" transform="translate(94.511 274.059) rotate(-48.877)"/><rect class="cls-2" x="302.464" y="16.942" width="1" height="54.58" transform="translate(89.626 263.846) rotate(-54.137)"/><rect class="cls-2" x="266.225" y="-.965" width="1" height="36.038" transform="translate(87.705 215.509) rotate(-51.606)"/><rect class="cls-2" x="253.201" y="79.172" width="77.143" height="1" transform="translate(-.377 157.951) rotate(-30.273)"/><rect class="cls-2" x="206.517" y="33.518" width="65.527" height="1" transform="translate(111.013 238.859) rotate(-66.038)"/><rect class="cls-2" x="184.203" y="23.925" width="74.448" height="1.001" transform="translate(22.65 124.996) rotate(-33.132)"/><rect class="cls-2" x="241.711" y="57.589" width="1.001" height="47.895" transform="translate(8.995 186.057) rotate(-42.745)"/><rect class="cls-2" x="169.723" y="14.839" width=".999" height="43.331" transform="translate(71.575 179.951) rotate(-67.588)"/><rect class="cls-2" x="189.751" y="44.765" width="1" height="66.082"/><rect class="cls-2" x="29.78" y="83.701" width="147.746" height="1" transform="translate(-27.784 107.824) rotate(-49.277)"/><rect class="cls-2" x="92.822" y="113.278" width="62.697" height="1.001" transform="translate(-38.782 71.229) rotate(-27.865)"/><rect class="cls-2" x="170.566" y="84.925" width="1.001" height="40.121" transform="translate(20.677 237.908) rotate(-73.01)"/><rect class="cls-2" x="206.272" y="106.947" width="1" height="73.882" transform="translate(-42.519 107.662) rotate(-26.565)"/><rect class="cls-2" x="130.218" y="185.755" width="99.815" height="1" transform="translate(-31.581 36.868) rotate(-10.75)"/><rect class="cls-2" x="200.049" y="137.526" width="84.324" height="1" transform="translate(21.606 308.469) rotate(-67.367)"/><rect class="cls-2" x="314.988" y="65.172" width="1" height="129.721" transform="translate(50.825 345.426) rotate(-61.54)"/><rect class="cls-2" x="348.295" y="58.462" width="1" height="107.967" transform="translate(-13.939 164.656) rotate(-26.059)"/><rect class="cls-2" x="312.456" y="-55.385" width="1" height="120.719" transform="translate(303.377 317.823) rotate(-89.157)"/><rect class="cls-2" x="106.367" y="236.915" width="150.183" height="1" transform="translate(-117.307 243.11) rotate(-53.701)"/><rect class="cls-2" x="316.63" y="320.514" width="1" height="180.732" transform="translate(-150.359 636.374) rotate(-78.088)"/><rect class="cls-2" x="358.179" y="356.066" width="159.759" height=".999" transform="translate(-65.79 611.854) rotate(-66.015)"/><rect class="cls-2" x="421.038" y="143.753" width="1" height="157.036" transform="translate(-46.511 311.875) rotate(-38.64)"/><rect class="cls-2" x="222.865" y="168.435" width="150.071" height="1" transform="translate(-16.292 32.676) rotate(-6.112)"/></g><g id="dots_copy_4"><circle class="cls-2" cx="151.882" cy="28.245" r="5.862"/><circle class="cls-2" cx="190.252" cy="44.765" r="5.862"/><circle class="cls-2" cx="225.957" cy="63.95" r="5.862"/><circle class="cls-2" cx="258.465" cy="99.123" r="5.862"/><circle class="cls-2" cx="252.603" cy="5.862" r="5.862"/><circle class="cls-2" cx="280.848" cy="28.245" r="5.862"/><circle class="cls-2" cx="325.08" cy="61.818" r="5.862"/><circle class="cls-2" cx="372.509" cy="5.862" r="5.862"/><circle class="cls-2" cx="385.832" cy="44.765" r="5.862"/><circle class="cls-2" cx="395.425" cy="81.536" r="5.862"/><circle class="cls-2" cx="372.509" cy="160.941" r="5.862"/><circle class="cls-2" cx="190.252" cy="110.847" r="5.862"/><circle class="cls-2" cx="151.882" cy="99.123" r="5.862"/><circle class="cls-2" cx="223.293" cy="176.929" r="5.862"/><circle class="cls-2" cx="96.458" cy="128.433" r="5.862"/><circle class="cls-2" cx="131.098" cy="195.581" r="5.862"/><circle class="cls-2" cx="55.423" cy="140.157" r="5.862"/><circle class="cls-2" cx="81.536" cy="201.443" r="5.862"/><circle class="cls-2" cx="43.699" cy="213.167" r="5.862"/><circle class="cls-2" cx="90.596" cy="264.86" r="5.862"/><circle class="cls-2" cx="5.862" cy="232.885" r="5.862"/><circle class="cls-2" cx="61.286" cy="286.177" r="5.862"/><circle class="cls-2" cx="136.96" cy="297.901" r="5.862"/><circle class="cls-2" cx="14.389" cy="375.174" r="5.862"/><circle class="cls-2" cx="31.975" cy="338.403" r="5.862"/><circle class="cls-2" cx="75.674" cy="403.952" r="5.862"/><circle class="cls-2" cx="61.286" cy="442.855" r="5.862"/><circle class="cls-2" cx="49.561" cy="487.087" r="5.862"/><circle class="cls-2" cx="131.098" cy="448.717" r="5.862"/><circle class="cls-2" cx="125.236" cy="489.218" r="5.862"/><circle class="cls-2" cx="180.659" cy="495.081" r="5.862"/><circle class="cls-2" cx="192.383" cy="534.516" r="5.862"/><circle class="cls-2" cx="244.076" cy="458.309" r="5.862"/><circle class="cls-2" cx="227.023" cy="392.227" r="5.862"/><circle class="cls-2" cx="247.274" cy="506.805" r="5.862"/><circle class="cls-2" cx="258.998" cy="546.241" r="5.862"/><circle class="cls-2" cx="278.272" cy="582.479" r="5.862"/><circle class="cls-2" cx="309.242" cy="498.811" r="5.862"/><circle class="cls-2" cx="329.876" cy="529.72" r="5.862"/><circle class="cls-2" cx="381.569" cy="557.965" r="5.862"/><circle class="cls-2" cx="417.275" cy="576.617" r="5.862"/><circle class="cls-2" cx="482.823" cy="529.987" r="5.862"/><circle class="cls-2" cx="405.55" cy="483.356" r="5.862"/><circle class="cls-2" cx="405.55" cy="429.532" r="5.862"/><circle class="cls-2" cx="446.052" cy="515.331" r="5.862"/><circle class="cls-2" cx="525.457" cy="546.241" r="5.862"/><circle class="cls-2" cx="525.457" cy="467.369" r="5.862"/><circle class="cls-2" cx="513.733" cy="409.814" r="5.862"/><circle class="cls-2" cx="488.686" cy="461.507" r="5.862"/><circle class="cls-2" cx="498.278" cy="381.036" r="5.862"/><circle class="cls-2" cx="549.971" cy="408.215" r="5.862"/><circle class="cls-2" cx="525.457" cy="352.259" r="5.862"/><circle class="cls-2" cx="562.228" cy="344.265" r="5.862"/><circle class="cls-2" cx="601.664" cy="326.679" r="5.862"/><circle class="cls-2" cx="519.595" cy="294.704" r="5.862"/><circle class="cls-2" cx="470.566" cy="282.446" r="5.862"/><circle class="cls-2" cx="549.971" cy="276.584" r="5.862"/><circle class="cls-2" cx="578.749" cy="232.885" r="5.862"/><circle class="cls-2" cx="599.532" cy="198.778" r="5.862"/><circle class="cls-2" cx="507.871" cy="213.167" r="5.862"/><circle class="cls-2" cx="541.444" cy="176.929" r="5.862"/><circle class="cls-2" cx="559.031" cy="140.157" r="5.862"/><circle class="cls-2" cx="572.887" cy="99.123" r="5.862"/><circle class="cls-2" cx="502.008" cy="99.123" r="5.862"/><circle class="cls-2" cx="492.416" cy="134.295" r="5.862"/><circle class="cls-2" cx="451.914" cy="93.261" r="5.862"/><circle class="cls-2" cx="449.25" cy="55.956" r="5.862"/></g></g></svg>