<svg xmlns="http://www.w3.org/2000/svg" width="63.704" height="48.159" viewBox="0 0 63.704 48.159">
    <g transform="translate(-6108.092 -4969.502)">
        <path
            d="M1.3-1H9.468a2.3,2.3,0,1,1,0,4.6H1.3A2.3,2.3,0,1,1,1.3-1ZM9.468,1.824a.524.524,0,1,0,0-1.048H1.3a.524.524,0,1,0,0,1.048Z"
            transform="translate(6142.165 4970.502)" fill="#fff" />
        <path
            d="M6170.614,5003.853H6152.3a.888.888,0,0,1,0-1.776h18.316a1.326,1.326,0,0,0,1.324-1.324v-24.984a1.326,1.326,0,0,0-1.324-1.324H6128.32a1.325,1.325,0,0,0-1.324,1.324v2.938a.888.888,0,1,1-1.776,0v-2.938a3.1,3.1,0,0,1,3.1-3.1h42.294a3.1,3.1,0,0,1,3.1,3.1v24.984A3.1,3.1,0,0,1,6170.614,5003.853Z"
            transform="translate(-1.918 -0.355)" fill="#fff" />
        <path
            d="M-.112,3.967A.888.888,0,0,1-1,3.079V-.112A.888.888,0,0,1-.112-1a.888.888,0,0,1,.888.888V3.079A.888.888,0,0,1-.112,3.967Z"
            transform="translate(6124.302 4987.227)" fill="#fff" />
        <path
            d="M6133.553,5019.134a.888.888,0,0,1-.136-1.765l15.739-2.478v-6.384a.946.946,0,0,0-.944-.944H6130.53a.888.888,0,0,1,0-1.776h17.695a2.723,2.723,0,0,1,2.707,2.72v7.143a.889.889,0,0,1-.75.877l-16.489,2.6A.9.9,0,0,1,6133.553,5019.134Z"
            transform="translate(-2.414 -4.064)" fill="#fff" />
        <path
            d="M16.225,3.448a.894.894,0,0,1-.144-.012L-.255.764A.888.888,0,0,1-.988-.255.888.888,0,0,1,.031-.988L16.367,1.683a.888.888,0,0,1-.142,1.764Z"
            transform="translate(6147.742 5011.699)" fill="#fff" />
        <path
            d="M-.111,6.741A.888.888,0,0,1-.9,6.258a.888.888,0,0,1,.385-1.2L11.123-.9a.888.888,0,0,1,1.2.385.888.888,0,0,1-.385,1.2L.293,6.643A.884.884,0,0,1-.111,6.741Z"
            transform="translate(6152.87 4982.466)" fill="#fff" />
        <path
            d="M-.111,5.509a.887.887,0,0,1-.738-.393A.888.888,0,0,1-.607,3.883L6.444-.849a.888.888,0,0,1,1.232.242A.888.888,0,0,1,7.433.625L.383,5.358A.884.884,0,0,1-.111,5.509Z"
            transform="translate(6142.454 4990.417)" fill="#fff" />
        <path
            d="M-.113,2.385a.888.888,0,0,1-.867-.7A.888.888,0,0,1-.3.629L7.111-.98A.888.888,0,0,1,8.167-.3.888.888,0,0,1,7.488.756L.076,2.365A.891.891,0,0,1-.113,2.385Z"
            transform="translate(6131.562 4996.626)" fill="#fff" />
        <path
            d="M1.72-1A2.72,2.72,0,1,1-1,1.72,2.723,2.723,0,0,1,1.72-1Zm0,3.664A.944.944,0,1,0,.776,1.72.945.945,0,0,0,1.72,2.664Z"
            transform="translate(6139.035 4994.383)" fill="#fff" />
        <path
            d="M1.72-1A2.72,2.72,0,1,1-1,1.72,2.723,2.723,0,0,1,1.72-1Zm0,3.664A.944.944,0,1,0,.776,1.72.945.945,0,0,0,1.72,2.664Z"
            transform="translate(6149.264 4987.589)" fill="#fff" />
        <path
            d="M1.72-1A2.72,2.72,0,1,1-1,1.72,2.723,2.723,0,0,1,1.72-1Zm0,3.664A.944.944,0,1,0,.776,1.72.945.945,0,0,0,1.72,2.664Z"
            transform="translate(6164.378 4979.727)" fill="#fff" />
        <g transform="translate(6108.092 4975.833)">
            <g transform="translate(0 10.078)">
                <path
                    d="M6121.384,5019.731h-2.594c-3.221,0-5.7-2.423-6.3-6.173a.033.033,0,0,0,0-.007l-1.248-8.125a11.866,11.866,0,0,1-2.727-1.175.887.887,0,0,1-.4-.741c0-.546,0-1.092-.01-1.621a27.864,27.864,0,0,1,.52-7.182,7.978,7.978,0,0,1,4.281-5.341.89.89,0,0,1,1.137.289,7.329,7.329,0,0,0,12.1,0,.889.889,0,0,1,.661-.382l9.687-1.285a.887.887,0,0,1,.978.661l.587,2.3a.889.889,0,0,1-.362.955l-8.389,5.685-.292,7.169c0,.026,0,.052-.006.078l-.053.4c0,.006,0,.012,0,.018l-1.252,8.289c0,.014,0,.026-.007.04C6126.921,5017.435,6124.567,5019.731,6121.384,5019.731Zm-7.144-6.454c.368,2.262,1.756,4.678,4.55,4.678h2.594a3.9,3.9,0,0,0,2.954-1.266,6.989,6.989,0,0,0,1.6-3.427l1.248-8.259.046-.355.309-7.577a.887.887,0,0,1,.389-.7l8.244-5.586-.238-.934-8.57,1.136a9.1,9.1,0,0,1-14.3.324,6.181,6.181,0,0,0-2.73,3.851,26.685,26.685,0,0,0-.46,6.709c0,.364.007.736.009,1.112a14.013,14.013,0,0,0,2.389.9.887.887,0,0,1,.633.719Z"
                    transform="translate(-6108.092 -4987.979)" fill="#fff" />
            </g>
            <path
                d="M5.859-1A6.859,6.859,0,1,1-1,5.859,6.867,6.867,0,0,1,5.859-1Zm0,11.943A5.083,5.083,0,1,0,.776,5.859,5.089,5.089,0,0,0,5.859,10.943Z"
                transform="translate(5.97 1)" fill="#fff" />
        </g>
        <path
            d="M-.113,2.066a.888.888,0,0,1-.879-.771A.888.888,0,0,1-.229.3L9.5-.992a.888.888,0,0,1,1,.764.888.888,0,0,1-.764,1L0,2.058A.9.9,0,0,1-.113,2.066Z"
            transform="translate(6137.295 4986.438)" fill="#fff" />
        <path
            d="M-.112.777A.883.883,0,0,1-.658.589h0A.888.888,0,0,1-.812-.659.888.888,0,0,1,.435-.812.889.889,0,0,1,.588.435.887.887,0,0,1-.112.777Z"
            transform="translate(6137.294 4987.727)" fill="#fff" />
    </g>
</svg>