<?xml version="1.0" encoding="UTF-8"?>
<svg id="Layer_2" data-name="Layer 2" xmlns="http://www.w3.org/2000/svg" version="1.1" viewBox="0 0 65.9 52.1">
  <defs>
    <style>
      .cls-1 {
        fill: #fff;
        stroke-width: 0px;
      }
    </style>
  </defs>
  <g id="outlines">
    <path class="cls-1" d="M11.1,26c-3.9,0-7-3.1-7-7s3.1-7,7-7,7,3.1,7,7-3.1,7-7,7ZM11.1,14c-2.8,0-5,2.2-5,5s2.2,5,5,5,5-2.2,5-5-2.2-5-5-5Z"/>
    <path class="cls-1" d="M21.2,52.1H1c-.6,0-1-.4-1-1v-16.5c0-2.8,2.3-5.1,5.1-5.1h11.9c2.8,0,5.1,2.3,5.1,5.1v16.5c0,.6-.4,1-1,1ZM2,50.1h18.2v-15.5c0-1.7-1.4-3.1-3.1-3.1H5.1c-1.7,0-3.1,1.4-3.1,3.1v15.5Z"/>
  </g>
  <g id="blue_above" data-name="blue above">
    <path class="cls-1" d="M32.3,52.1h-1.8c-1.6,0-2.9-1.3-2.9-2.9v-14.2c0-1.6,1.3-2.9,2.9-2.9h1.8c1.6,0,2.9,1.3,2.9,2.9v14.2c0,1.6-1.3,2.9-2.9,2.9ZM30.6,34.1c-.5,0-.9.4-.9.9v14.2c0,.5.4.9.9.9h1.8c.5,0,.9-.4.9-.9v-14.2c0-.5-.4-.9-.9-.9h-1.8Z"/>
    <path class="cls-1" d="M60.4,52.1h-2.2c-1.5,0-2.7-1.2-2.7-2.7V7.7h-1.9c-.4,0-.8-.2-.9-.6-.2-.4,0-.8.2-1.1L58.6.3c.4-.4,1-.4,1.4,0l5.7,5.7c.3.3.4.7.2,1.1-.2.4-.5.6-.9.6h-1.9v41.8c0,1.5-1.2,2.7-2.7,2.7h0ZM56.1,5.7h.5c.6,0,1,.4,1,1v42.8c0,.4.3.7.7.7h2.2c.4,0,.7-.3.7-.7V6.7c0-.6.4-1,1-1h.5l-3.2-3.2-3.2,3.2h0Z"/>
    <path class="cls-1" d="M41.2,52.1h-1.8c-1.6,0-2.9-1.3-2.9-2.9v-25.1c0-1.6,1.3-2.9,2.9-2.9h1.8c1.6,0,2.9,1.3,2.9,2.9v25.1c0,1.6-1.3,2.9-2.9,2.9ZM39.5,23.2c-.5,0-.9.4-.9.9v25.1c0,.5.4.9.9.9h1.8c.5,0,.9-.4.9-.9v-25.1c0-.5-.4-.9-.9-.9,0,0-1.8,0-1.8,0Z"/>
    <path class="cls-1" d="M50.9,52.1h-1.8c-1.6,0-2.9-1.3-2.9-2.9v-29c0-1.6,1.3-2.9,2.9-2.9h1.8c1.6,0,2.9,1.3,2.9,2.9v29c0,1.6-1.3,2.9-2.9,2.9ZM49.1,19.3c-.5,0-.9.4-.9.9v29c0,.5.4.9.9.9h1.8c.5,0,.9-.4.9-.9v-29c0-.5-.4-.9-.9-.9,0,0-1.8,0-1.8,0Z"/>
  </g>
</svg>