<!--?xml version="1.0" encoding="UTF-8"?-->
<svg id="outlines" xmlns="http://www.w3.org/2000/svg" viewBox="0 0 75 75" style="width:100px; "
    role="img">
    <g>
        <path
            d="m18.214,31.484c-3.859,0-7-3.14-7-7s3.141-7,7-7,7,3.14,7,7-3.141,7-7,7Zm0-12c-2.757,0-5,2.243-5,5s2.243,5,5,5,5-2.243,5-5-2.243-5-5-5Z"
            style="width:100px; fill: #231f20; stroke-width: 0px;"></path>
        <path
            d="m23.453,57.587h-15.368c-.553,0-1-.448-1-1v-16.521c0-2.833,2.306-5.138,5.139-5.138h11.908c2.833,0,5.139,2.305,5.139,5.138v1.968c0,.552-.447,1-1,1s-1-.448-1-1v-1.968c0-1.73-1.408-3.138-3.139-3.138h-11.908c-1.73,0-3.139,1.408-3.139,3.138v15.521h14.368c.553,0,1,.448,1,1s-.447,1-1,1Z"
            style="width:100px; fill: #231f20; stroke-width: 0px;"></path>
    </g>
    <g>
        <path
            d="m56.86,31.404c-3.859,0-7-3.14-7-7s3.141-7,7-7,7,3.14,7,7-3.141,7-7,7Zm0-12c-2.757,0-5,2.243-5,5s2.243,5,5,5,5-2.243,5-5-2.243-5-5-5Z"
            style="width:100px; fill: #231f20; stroke-width: 0px;"></path>
        <path
            d="m66.916,57.507h-15.056c-.553,0-1-.448-1-1s.447-1,1-1h14.056v-15.521c0-1.73-1.408-3.138-3.139-3.138h-11.908c-1.73,0-3.139,1.408-3.139,3.138v1.996c0,.552-.447,1-1,1s-1-.448-1-1v-1.996c0-2.833,2.306-5.138,5.139-5.138h11.908c2.833,0,5.139,2.305,5.139,5.138v16.521c0,.552-.447,1-1,1Z"
            style="width:100px; fill: #231f20; stroke-width: 0px;"></path>
    </g>
    <g>
        <path
            d="m37.629,40.914c-3.859,0-7-3.14-7-7s3.141-7,7-7,7,3.14,7,7-3.141,7-7,7Zm0-12c-2.757,0-5,2.243-5,5s2.243,5,5,5,5-2.243,5-5-2.243-5-5-5Z"
            style="width:100px; fill: #231f20; stroke-width: 0px;"></path>
        <path d="m37.629,22.172c-3.859,0-7-3.14-7-7s3.141-7,7-7,7,3.14,7,7-3.141,7-7,7Z"
            style="width:100px; fill: #2677bd; stroke-width: 0px;"></path>
        <path
            d="m47.684,67.016h-20.185c-.553,0-1-.448-1-1v-16.52c0-2.833,2.305-5.138,5.138-5.138h11.909c2.833,0,5.138,2.305,5.138,5.138v16.52c0,.552-.447,1-1,1Zm-19.185-2h18.185v-15.52c0-1.73-1.407-3.138-3.138-3.138h-11.909c-1.73,0-3.138,1.408-3.138,3.138v15.52Z"
            style="width:100px; fill: #231f20; stroke-width: 0px;"></path>
    </g>
    <title> Empower scientists and engineers</title>
</svg>