<svg enable-background="new 0 0 408.788 408.788" viewBox="0 0 408.788 408.788"
    xmlns="http://www.w3.org/2000/svg" style="" role="img">
    <path
        d="m353.701 0h-298.614c-30.422 0-55.085 24.662-55.085 55.085v298.616c0 30.423 24.662 55.085 55.085 55.085h147.275l.251-146.078h-37.951c-4.932 0-8.935-3.988-8.954-8.92l-.182-47.087c-.019-4.959 3.996-8.989 8.955-8.989h37.882v-45.498c0-52.8 32.247-81.55 79.348-81.55h38.65c4.945 0 8.955 4.009 8.955 8.955v39.704c0 4.944-4.007 8.952-8.95 8.955l-23.719.011c-25.615 0-30.575 12.172-30.575 30.035v39.389h56.285c5.363 0 9.524 4.683 8.892 10.009l-5.581 47.087c-.534 4.506-4.355 7.901-8.892 7.901h-50.453l-.251 146.078h87.631c30.422 0 55.084-24.662 55.084-55.084v-298.619c-.001-30.423-24.663-55.085-55.086-55.085z"
        fill="#475993"></path>
</svg>