<?xml version="1.0" encoding="utf-8"?>

<svg version="1.1" xmlns="http://www.w3.org/2000/svg" xmlns:xlink="http://www.w3.org/1999/xlink" x="0px" y="0px"
	 viewBox="0 0 72 72" style="enable-background:new 0 0 72 72;" xml:space="preserve">
<style type="text/css">
	.st0{fill:#04304B;}
</style>
<path class="st0" d="M35.8,0C16,0-0.2,16.1-0.2,36s16.1,36,36,36s36-16.1,36-36S55.7,0,35.8,0z M66.3,31.6
	c-4.7,1.4-9.8,2.6-15.1,3.3c-0.1-5.7-0.9-11.1-2.2-16c3.4-0.9,6.6-2.2,9.5-3.7C62.6,19.6,65.4,25.3,66.3,31.6z M54.3,11.3
	c-2.2,1-4.4,1.9-6.9,2.6c-1-2.7-2.1-5.3-3.4-7.6C47.8,7.3,51.2,9,54.3,11.3z M35.8,36c-3.5,0-6.9-0.2-10.3-0.5
	c0-5.5,0.8-10.8,2.2-15.6c2.6,0.4,5.3,0.7,8.1,0.7s5.5-0.3,8.1-0.7c1.3,4.8,2.1,10.1,2.2,15.6C42.8,35.8,39.3,36,35.8,36z
	 M45.9,40.7c-0.3,4-1,7.8-2,11.4c-2.6-0.4-5.3-0.7-8.1-0.7s-5.5,0.3-8.1,0.7c-1-3.6-1.7-7.4-2-11.4c3.3,0.3,6.7,0.4,10.1,0.4
	C39.3,41.1,42.6,41,45.9,40.7z M37.2,5.3c2,2.8,3.7,6.1,5.1,9.7c-2.1,0.3-4.3,0.5-6.5,0.5c-2.2,0-4.4-0.2-6.5-0.5
	c1.4-3.6,3.1-6.9,5.1-9.7c0.5,0,0.9-0.1,1.3-0.1C36.3,5.1,36.7,5.2,37.2,5.3z M27.7,6.3c-1.3,2.3-2.4,4.9-3.4,7.6
	c-2.4-0.6-4.7-1.5-6.9-2.6C20.4,9,23.9,7.3,27.7,6.3z M13.1,15.2c3,1.5,6.1,2.8,9.5,3.7c-1.3,5-2.1,10.4-2.2,16
	C15.1,34.2,10,33,5.3,31.6C6.2,25.3,9,19.6,13.1,15.2z M5,37.4c4.9,1.3,10.1,2.2,15.6,2.8c0.3,4.5,0.9,8.9,2,12.9
	c-3.4,0.9-6.6,2.2-9.5,3.7C8.4,51.7,5.4,44.9,5,37.4z M17.4,60.7c2.2-1,4.4-1.9,6.9-2.6c1,2.7,2.1,5.3,3.4,7.6
	C23.9,64.7,20.4,63,17.4,60.7z M34.5,66.7c-2-2.8-3.7-6.1-5.1-9.7c2.1-0.3,4.3-0.5,6.5-0.5c2.2,0,4.4,0.2,6.5,0.5
	c-1.4,3.6-3.1,6.9-5.1,9.7c-0.5,0-0.9,0.1-1.3,0.1C35.4,66.9,34.9,66.8,34.5,66.7z M44,65.7c1.3-2.3,2.4-4.9,3.4-7.6
	c2.4,0.7,4.7,1.5,6.9,2.6C51.2,63,47.8,64.7,44,65.7z M58.5,56.8c-3-1.5-6.1-2.8-9.5-3.7c1.1-4,1.7-8.4,2-12.9
	c5.5-0.6,10.7-1.6,15.6-2.9C66.3,44.9,63.3,51.6,58.5,56.8z"/>
</svg>
