<?xml version="1.0" encoding="UTF-8"?>
<svg id="outlines" xmlns="http://www.w3.org/2000/svg" viewBox="0 0 75 75">
  <circle cx="23.38" cy="26.32" r="3.96" style="fill: #0076bd; stroke: #0076bd; stroke-miterlimit: 10; stroke-width: 1.87px;"/>
  <circle cx="8.96" cy="34.94" r="3.96" style="fill: #0076bd; stroke: #0076bd; stroke-miterlimit: 10; stroke-width: 1.87px;"/>
  <circle cx="37.8" cy="38.83" r="3.96" style="fill: #0076bd; stroke: #0076bd; stroke-miterlimit: 10; stroke-width: 1.87px;"/>
  <circle cx="66.04" cy="10.6" r="3.96" style="fill: #0076bd; stroke: #0076bd; stroke-miterlimit: 10; stroke-width: 1.87px;"/>
  <line x1="66.49" y1="10.6" x2="37.84" y2="38.65" style="fill: #0076bd; stroke: #0076bd; stroke-miterlimit: 10; stroke-width: 1.87px;"/>
  <line x1="37.84" y1="38.65" x2="23.38" y2="26.32" style="fill: none; stroke: #0076bd; stroke-miterlimit: 10; stroke-width: 1.87px;"/>
  <line x1="8.96" y1="34.94" x2="23.38" y2="26.32" style="fill: none; stroke: #0076bd; stroke-miterlimit: 10; stroke-width: 1.87px;"/>
  <path d="m9.01,71.7h-.1c-2.73,0-4.95-2.22-4.95-4.95v-16.1c0-2.73,2.22-4.95,4.95-4.95h.1c2.73,0,4.95,2.22,4.95,4.95v16.1c0,2.73-2.22,4.95-4.95,4.95Zm-.1-24c-1.63,0-2.95,1.32-2.95,2.95v16.1c0,1.63,1.32,2.95,2.95,2.95h.1c1.63,0,2.95-1.32,2.95-2.95v-16.1c0-1.63-1.32-2.95-2.95-2.95h-.1Z" style="fill: #231f20;"/>
  <path d="m23.43,71.6h-.1c-2.73,0-4.95-2.22-4.95-4.95v-24.1c0-2.73,2.22-4.95,4.95-4.95h.1c2.73,0,4.95,2.22,4.95,4.95v24.1c0,2.73-2.22,4.95-4.95,4.95Zm-.1-32c-1.63,0-2.95,1.32-2.95,2.95v24.1c0,1.63,1.32,2.95,2.95,2.95h.1c1.63,0,2.95-1.32,2.95-2.95v-24.1c0-1.63-1.32-2.95-2.95-2.95h-.1Z" style="fill: #231f20;"/>
  <path d="m37.8,71.25c-2.76,0-5-2.24-5-5v-8c0-2.76,2.24-5,5-5s5,2.24,5,5v8c0,2.76-2.24,5-5,5Zm0-16c-1.65,0-3,1.35-3,3v8c0,1.65,1.35,3,3,3s3-1.35,3-3v-8c0-1.65-1.35-3-3-3Z" style="fill: #231f20;"/>
  <path d="m66.09,71.28h-.1c-2.73,0-4.95-2.22-4.95-4.95v-32.1c0-2.73,2.22-4.95,4.95-4.95h.1c2.73,0,4.95,2.22,4.95,4.95v32.1c0,2.73-2.22,4.95-4.95,4.95Zm-.1-40c-1.63,0-2.95,1.32-2.95,2.95v32.1c0,1.63,1.32,2.95,2.95,2.95h.1c1.63,0,2.95-1.32,2.95-2.95v-32.1c0-1.63-1.32-2.95-2.95-2.95h-.1Z" style="fill: #231f20;"/>
</svg>