<?xml version="1.0" encoding="UTF-8"?>
<svg id="labels" xmlns="http://www.w3.org/2000/svg" viewBox="0 0 75 75">
  <path d="M37.599,13.983c-.552,0-1-.448-1-1v-7.281c0-.552.448-1,1-1s1,.448,1,1v7.281c0,.552-.448,1-1,1Z" style="fill: #333; stroke-width: 0px;"/>
  <path d="M69.267,38.59h-7.282c-.552,0-1-.448-1-1s.448-1,1-1h7.282c.552,0,1,.448,1,1s-.448,1-1,1Z" style="fill: #333; stroke-width: 0px;"/>
  <path d="M13.015,38.59h-7.282c-.552,0-1-.448-1-1s.448-1,1-1h7.282c.552,0,1,.448,1,1s-.448,1-1,1Z" style="fill: #333; stroke-width: 0px;"/>
  <path d="M20.328,21.416c-.256,0-.512-.098-.707-.293l-5.149-5.149c-.391-.391-.391-1.023,0-1.414s1.023-.391,1.414,0l5.149,5.149c.391.391.391,1.023,0,1.414-.195.195-.451.293-.707.293Z" style="fill: #333; stroke-width: 0px;"/>
  <path d="M54.906,21.252c-.256,0-.512-.098-.707-.293-.391-.391-.391-1.023,0-1.414l5.149-5.149c.391-.391,1.023-.391,1.414,0s.391,1.023,0,1.414l-5.149,5.149c-.195.195-.451.293-.707.293Z" style="fill: #333; stroke-width: 0px;"/>
  <path d="M41.946,58.107c-.552,0-1-.448-1-1s.448-1,1-1c.941,0,1.707-.766,1.707-1.707v-3.531c0-1.159.789-2.61,2.557-4.705,1.25-1.482,2.393-3.886,2.404-3.91,1.058-1.916,1.602-4.028,1.602-6.165,0-7.042-5.485-12.566-12.51-12.627-6.91.062-12.513,5.703-12.513,12.627,0,2.137.544,4.249,1.573,6.107.041.082,1.183,2.485,2.433,3.968,1.768,2.095,2.557,3.546,2.557,4.705v3.531c0,.941.766,1.707,1.707,1.707.552,0,1,.448,1,1s-.448,1-1,1c-2.044,0-3.707-1.663-3.707-3.707v-3.531c0-.353-.271-1.265-2.085-3.415-1.421-1.685-2.633-4.239-2.684-4.347-1.163-2.097-1.793-4.543-1.793-7.019,0-7.961,6.392-14.457,14.313-14.624.027-.002.054-.003.082-.003h.232c.028,0,.055,0,.082.003,7.921.167,14.313,6.663,14.313,14.624,0,2.475-.63,4.922-1.823,7.076-.021.05-1.233,2.604-2.655,4.289-1.814,2.15-2.085,3.062-2.085,3.415v3.531c0,2.044-1.663,3.707-3.707,3.707Z" style="fill: #333; stroke-width: 0px;"/>
  <path d="M40.123,70.299h-4.254c-.65,0-1.181-.419-1.181-.931v-.668c0-.089.092-.161.205-.161l6.233-.555c.098,0,.178.063.178.14v1.244c0,.512-.532.931-1.181.931Z" style="fill: #333; stroke: #333; stroke-miterlimit: 10; stroke-width: 0px;"/>
  <path d="M32.171,63.102c-.492,0-.92-.363-.989-.864-.075-.547.308-1.052.854-1.127l11.321-1.555c.546-.08,1.052.307,1.127.854s-.308,1.052-.854,1.127l-11.321,1.555c-.046.006-.092.009-.138.009Z" style="fill: #333; stroke-width: 0px;"/>
  <path d="M32.94,67.135c-.49,0-.918-.361-.989-.86-.077-.547.303-1.053.85-1.13l9.801-1.386c.545-.081,1.052.303,1.13.85.077.547-.303,1.053-.85,1.13l-9.801,1.386c-.048.007-.095.01-.142.01Z" style="fill: #333; stroke-width: 0px;"/>
  <path d="M46.292,35.529h-1.354l-.012-.002-.003-.018c-.182-.697-.465-1.353-.832-1.953l.982-.969c.309-.309.309-.815,0-1.124l-1.382-1.382c-.309-.309-.815-.309-1.124,0l-.986.986-.003.005c-.6-.357-1.255-.63-1.95-.805l-.003-.019v-1.387c0-.437-.358-.795-.795-.795h-1.954c-.437,0-.795.358-.795.795v1.395l-.008.007c-.694.172-1.349.444-1.949.798l.031.037-1.017-1.017c-.309-.309-.815-.309-1.124,0l-1.382,1.382c-.309.309-.309.815,0,1.124l.929.929.033.035c-.37.604-.655,1.266-.838,1.969l-.003.009h-1.339c-.437,0-.795.358-.795.795v1.954c0,.437.358.795.795.795h1.307c.173.73.451,1.404.824,2.031l-.912.912c-.309.309-.309.815,0,1.124l1.382,1.382c.309.309.815.309,1.124,0l.899-.898c.625.382,1.303.668,2.034.85l.01.002v1.265c0,.437.358.795.795.795h1.954c.437,0,.795-.358.795-.795v-1.271c.731-.182,1.412-.473,2.038-.856l.904.909c.309.309.815.309,1.124,0l1.382-1.382c.309-.309.309-.815,0-1.124l-.929-.922c.367-.621.646-1.3.818-2.021h.024s1.307,0,1.307,0c.437,0,.795-.358.795-.795v-1.954c0-.437-.358-.795-.795-.795ZM37.854,40.995c-1.979,0-3.584-1.605-3.584-3.584s1.605-3.584,3.584-3.584,3.584,1.605,3.584,3.584-1.605,3.584-3.584,3.584Z" style="fill: #0076bd; stroke-width: 0px;"/>
</svg>