<svg enable-background="new 0 0 121 60" viewBox="0 0 121 60" xmlns="http://www.w3.org/2000/svg"><g fill="#fff"><path d="m14.49 12.13c0 3.67-.75 6.47-2.24 8.4s-3.58 2.9-6.27 2.9h-5.19v-22.66h5.22c2.69 0 4.77.97 6.26 2.91 1.48 1.95 2.22 4.76 2.22 8.45zm-2.88 0c0-1.49-.14-2.79-.43-3.9s-.68-2.03-1.18-2.75c-.5-.73-1.1-1.27-1.79-1.63-.69-.37-1.43-.55-2.21-.55h-2.33v17.6h2.33c.79 0 1.52-.18 2.22-.54.68-.36 1.28-.91 1.78-1.63s.89-1.64 1.18-2.74c.28-1.1.43-2.38.43-3.86z"/><path d="m17.21 23.43v-22.66h2.88v22.66z"/><path d="m34.04 17.41c0 1.02-.16 1.95-.48 2.77s-.75 1.51-1.3 2.06c-.54.56-1.19.98-1.94 1.28s-1.55.45-2.4.45c-1.15 0-2.25-.24-3.28-.72s-1.86-1.11-2.48-1.9l1.7-2.08c.49.64 1.1 1.14 1.84 1.5s1.48.54 2.22.54c.96 0 1.75-.32 2.37-.96s.93-1.57.93-2.79c0-.58-.1-1.08-.29-1.52s-.46-.83-.8-1.18-.73-.67-1.17-.96-.91-.56-1.42-.82c-.62-.3-1.2-.63-1.74-1.01-.54-.37-1.03-.8-1.46-1.29s-.76-1.07-1.01-1.74-.37-1.47-.37-2.38c0-1.09.17-2.04.51-2.85.35-.81.8-1.48 1.37-2.01.56-.53 1.21-.93 1.94-1.18s1.46-.38 2.21-.38c1.09 0 2.06.18 2.93.54.86.36 1.58.91 2.16 1.63l-1.73 2.05c-.81-1.07-1.9-1.6-3.26-1.6-.41 0-.81.07-1.2.21-.4.14-.75.36-1.07.67s-.58.7-.77 1.17-.29 1.03-.29 1.7c0 .58.09 1.07.27 1.49s.43.79.74 1.12.67.63 1.07.9.84.52 1.31.75c.6.3 1.18.64 1.76 1.01s1.1.82 1.57 1.33.85 1.12 1.14 1.81c.28.67.42 1.48.42 2.39z"/><path d="m46.9 23.16c-.9.54-1.98.82-3.26.82-1.26 0-2.39-.3-3.39-.9s-1.84-1.43-2.53-2.5c-.68-1.07-1.21-2.32-1.57-3.76s-.54-3.01-.54-4.72.19-3.28.56-4.74c.37-1.45.91-2.7 1.6-3.76s1.54-1.88 2.53-2.48 2.11-.9 3.34-.9c1.15 0 2.21.22 3.17.67s1.75 1.13 2.37 2.05l-1.8 1.96c-.47-.68-1.01-1.19-1.63-1.52s-1.28-.5-1.98-.5c-.88 0-1.63.25-2.27.74s-1.17 1.15-1.58 1.98c-.42.83-.73 1.81-.94 2.93s-.32 2.31-.32 3.57.11 2.44.32 3.55.53 2.09.96 2.93.96 1.51 1.62 2c.65.49 1.41.74 2.29.74.79 0 1.49-.21 2.1-.64s1.09-.95 1.46-1.57l1.7 1.89c-.58.89-1.31 1.62-2.21 2.16z"/><path d="m65.4 12.07c0 1.77-.18 3.39-.53 4.85s-.86 2.72-1.54 3.76c-.67 1.05-1.48 1.86-2.43 2.43-.95.58-2.03.86-3.25.86s-2.3-.29-3.26-.86c-.96-.58-1.78-1.39-2.45-2.43s-1.18-2.3-1.54-3.76c-.35-1.46-.53-3.08-.53-4.85s.17-3.39.51-4.85.84-2.71 1.5-3.74 1.48-1.83 2.45-2.4c.97-.56 2.08-.85 3.31-.85 1.22 0 2.3.28 3.25.85s1.76 1.37 2.43 2.4c.67 1.04 1.18 2.28 1.54 3.74s.54 3.08.54 4.85zm-3.04 0c0-1.28-.1-2.48-.3-3.62s-.5-2.11-.9-2.94-.89-1.49-1.47-1.97-1.26-.72-2.03-.72c-.79 0-1.48.24-2.08.72s-1.09 1.14-1.49 1.97-.69 1.81-.88 2.94-.29 2.34-.29 3.62.1 2.49.29 3.62.49 2.11.88 2.94.89 1.49 1.49 1.97 1.29.72 2.08.72c.77 0 1.44-.24 2.03-.72s1.08-1.14 1.47-1.97.69-1.81.9-2.94c.2-1.13.3-2.34.3-3.62z"/><path d="m75.06 23.43h-3.71l-5.57-22.66h3.17l4.32 19.33h.06l4.32-19.33h3.07z"/><path d="m82.1 23.43v-22.66h9.54v2.56h-6.75v7.14h6.3v2.4h-6.3v7.97h7.07v2.59z"/><path d="m103.73 23.43-3.84-10.11h-2.62v10.11h-2.82v-22.66h5.87c.83 0 1.62.11 2.36.34.74.22 1.39.58 1.94 1.07.56.49.99 1.13 1.32 1.92.32.79.48 1.74.48 2.85 0 .92-.12 1.72-.36 2.4s-.54 1.26-.92 1.74-.79.86-1.24 1.14-.89.46-1.32.54l4.26 10.66zm-.19-16.37c0-.77-.11-1.4-.32-1.9-.21-.49-.49-.89-.83-1.19s-.74-.51-1.18-.63c-.45-.12-.9-.18-1.34-.18h-2.59v7.9h2.66c1.09 0 1.96-.35 2.62-1.04.65-.68.98-1.67.98-2.96z"/><path d="m114.84 14.38v9.06h-2.88v-9.06l-5.63-13.6h3.14l3.95 10.66 4.05-10.66h3.07z"/><path d="m15.65 50.65c0 1.35-.2 2.54-.6 3.59s-.95 1.94-1.66 2.67c-.7.73-1.53 1.29-2.47 1.68-.95.39-1.95.58-3.01.58-1.55 0-2.97-.33-4.28-.99s-2.36-1.53-3.16-2.62l1.85-2.11c.66.95 1.49 1.68 2.49 2.19s2.02.77 3.05.77c1.38 0 2.53-.49 3.46-1.46s1.4-2.37 1.4-4.17c0-.86-.14-1.62-.43-2.28s-.67-1.25-1.16-1.76-1.04-.97-1.66-1.38c-.62-.4-1.27-.78-1.96-1.12-.83-.4-1.62-.85-2.36-1.35-.75-.5-1.4-1.08-1.96-1.74s-1.01-1.44-1.35-2.34-.52-1.96-.52-3.16c0-1.4.21-2.63.64-3.68s1.01-1.92 1.74-2.62 1.55-1.23 2.47-1.57 1.88-.52 2.88-.52c1.38 0 2.62.24 3.72.71s2.03 1.21 2.77 2.21l-1.85 2.11c-.57-.83-1.25-1.43-2.02-1.79s-1.62-.54-2.54-.54c-.6 0-1.2.11-1.79.32s-1.08.56-1.54 1.02-.83 1.05-1.12 1.76c-.29.72-.43 1.56-.43 2.54 0 .86.13 1.61.39 2.24s.61 1.19 1.05 1.68.96.92 1.55 1.29 1.2.72 1.83 1.03c.8.4 1.6.86 2.39 1.38s1.5 1.12 2.13 1.81 1.13 1.49 1.5 2.41c.37.9.56 1.98.56 3.21z"/><path d="m35.96 52.22c-.3 1.39-.79 2.6-1.46 3.63s-1.57 1.84-2.69 2.43-2.49.88-4.13.88-3-.29-4.11-.88c-1.1-.59-1.99-1.4-2.67-2.43-.67-1.03-1.15-2.24-1.44-3.63s-.43-2.87-.43-4.45v-19.78h3.01v19.39c0 1.12.08 2.22.24 3.31s.44 2.06.86 2.9c.42.85.99 1.53 1.72 2.04.73.52 1.68.77 2.86.77 1.15 0 2.09-.26 2.84-.77.75-.52 1.33-1.2 1.74-2.04.42-.85.7-1.81.86-2.88.16-1.08.24-2.19.24-3.33v-19.39h3.01v19.78c0 1.58-.15 3.06-.45 4.45z"/><path d="m62.09 58.43v-26.44h-.13l-7.46 26.44h-2.8l-7.42-26.44h-.13v26.44h-2.84v-30.44h4.47l7.27 25.71h.17l7.18-25.71h4.64v30.44z"/><path d="m91.07 58.43v-26.44h-.13l-7.46 26.44h-2.79l-7.42-26.44h-.13v26.44h-2.84v-30.44h4.47l7.27 25.71h.17l7.18-25.71h4.64v30.44z"/><path d="m99.28 58.43v-30.44h3.01v30.44z"/><path d="m113.94 30.57v27.86h-2.97v-27.86h-5.85v-2.58h14.71v2.58z"/></g></svg>