<?xml version="1.0" encoding="UTF-8"?>
<svg id="outlines" xmlns="http://www.w3.org/2000/svg" viewBox="0 0 75 75">
  <path d="m66.3,19.8v-6.09c0-2.44-1.98-4.42-4.42-4.42h-5.93" style="fill: none; stroke: #231f20; stroke-miterlimit: 10; stroke-width: 2px;"/>
  <path d="m61.88,66.78c2.44,0,4.42-1.98,4.42-4.42V19.8" style="fill: none; stroke: #231f20; stroke-linecap: round; stroke-miterlimit: 10; stroke-width: 2px;"/>
  <path d="m55.94,9.29H13.23c-2.44,0-4.42,1.98-4.42,4.42v48.65c0,2.44,1.98,4.42,4.42,4.42h25.13" style="fill: none; stroke: #231f20; stroke-linecap: round; stroke-miterlimit: 10; stroke-width: 2px;"/>
  <circle cx="13.68" cy="14.15" r="1.77" style="fill: #231f20;"/>
  <circle cx="18.92" cy="14.15" r="1.77" style="fill: #231f20;"/>
  <circle cx="24.23" cy="14.15" r="1.77" style="fill: #231f20;"/>
  <g>
    <polyline points="30.39 45.02 21.66 38.07 30.52 31.25" style="fill: none; stroke: #231f20; stroke-linecap: round; stroke-linejoin: round; stroke-width: 2px;"/>
    <polyline points="44.13 31.28 52.72 38.07 44.23 44.99" style="fill: none; stroke: #231f20; stroke-linecap: round; stroke-linejoin: round; stroke-width: 2px;"/>
    <line x1="34.31" y1="45.4" x2="40.02" y2="31.3" style="fill: none; stroke: #231f20; stroke-linecap: round; stroke-linejoin: round; stroke-width: 2px;"/>
  </g>
  <g>
    <line x1="42.52" y1="69.88" x2="57.53" y2="54.87" style="fill: none; stroke: #0076bd; stroke-linecap: round; stroke-linejoin: round; stroke-width: 4px;"/>
    <line x1="42.52" y1="54.87" x2="57.53" y2="69.88" style="fill: none; stroke: #0076bd; stroke-linecap: round; stroke-linejoin: round; stroke-width: 4px;"/>
  </g>
</svg>