<svg xmlns="http://www.w3.org/2000/svg" width="63.32" height="52.781" viewBox="0 0 63.32 52.781">
    <g transform="translate(-289.457 322.007)">
        <path
            d="M7299,93.179h-25.028a10.416,10.416,0,0,1-10.387-10.387v-.733a10.415,10.415,0,0,1,10.387-10.387h20.74a.87.87,0,0,1,0,1.739h-20.74a8.675,8.675,0,0,0-8.647,8.647v.733a8.676,8.676,0,0,0,8.647,8.647H7299a.87.87,0,0,1,0,1.739Z"
            transform="translate(-6974 -386.932)" fill="#fff" />
        <path
            d="M3.784-1H22.81a4.789,4.789,0,0,1,4.784,4.784V9.451a4.789,4.789,0,0,1-4.784,4.784H3.784A4.789,4.789,0,0,1-1,9.451V3.784A4.789,4.789,0,0,1,3.784-1ZM22.81,12.235a2.787,2.787,0,0,0,2.784-2.784V3.784A2.787,2.787,0,0,0,22.81,1H3.784A2.787,2.787,0,0,0,1,3.784V9.451a2.787,2.787,0,0,0,2.784,2.784Z"
            transform="translate(290.457 -283.461)" fill="#fff" />
        <path
            d="M4,4.75a.748.748,0,0,1-.53-.22l-4-4A.75.75,0,0,1-.53-.53.75.75,0,0,1,.53-.53l4,4A.75.75,0,0,1,4,4.75Z"
            transform="translate(317.051 -318.39)" fill="#fff" />
        <path
            d="M0,4.75a.748.748,0,0,1-.53-.22.75.75,0,0,1,0-1.061l4-4a.75.75,0,0,1,1.061,0A.75.75,0,0,1,4.53.53l-4,4A.748.748,0,0,1,0,4.75Z"
            transform="translate(317.051 -314.39)" fill="#fff" />
        <path
            d="M3.784-1H22.551a4.789,4.789,0,0,1,4.784,4.784V9.451a4.789,4.789,0,0,1-4.784,4.784H3.784A4.789,4.789,0,0,1-1,9.451V3.784A4.789,4.789,0,0,1,3.784-1ZM22.551,12.235a2.787,2.787,0,0,0,2.784-2.784V3.784A2.787,2.787,0,0,0,22.551,1H3.784A2.787,2.787,0,0,0,1,3.784V9.451a2.787,2.787,0,0,0,2.784,2.784Z"
            transform="translate(325.442 -321.007)" fill="#fff" />
        <path
            d="M3.784-1H22.81a4.789,4.789,0,0,1,4.784,4.784V9.451a4.789,4.789,0,0,1-4.784,4.784H3.784A4.789,4.789,0,0,1-1,9.451V3.784A4.789,4.789,0,0,1,3.784-1ZM22.81,12.235a2.787,2.787,0,0,0,2.784-2.784V3.784A2.787,2.787,0,0,0,22.81,1H3.784A2.787,2.787,0,0,0,1,3.784V9.451a2.787,2.787,0,0,0,2.784,2.784Z"
            transform="translate(325.183 -302.461)" fill="#fff" />
        <path
            d="M7316.259,110.958h-7.57a.87.87,0,0,1,0-1.739h7.57a8.676,8.676,0,0,0,8.648-8.648V97.56a.87.87,0,0,1,1.739,0v3.01a10.415,10.415,0,0,1-10.388,10.388Z"
            transform="translate(-6987.167 -386.654)" fill="#fff" />
        <path
            d="M4,4.75a.748.748,0,0,1-.53-.22l-4-4A.75.75,0,0,1-.53-.53.75.75,0,0,1,.53-.53l4,4A.75.75,0,0,1,4,4.75Z"
            transform="translate(325.002 -272.844) rotate(180)" fill="#fff" />
        <path
            d="M0,4.75a.748.748,0,0,1-.53-.22.75.75,0,0,1,0-1.061l4-4a.75.75,0,0,1,1.061,0A.75.75,0,0,1,4.53.53l-4,4A.748.748,0,0,1,0,4.75Z"
            transform="translate(325.002 -276.844) rotate(180)" fill="#fff" />
    </g>
</svg>