<?xml version="1.0" encoding="UTF-8"?><svg id="Layer_2" xmlns="http://www.w3.org/2000/svg" viewBox="0 0 21.046 73.936"><defs><style>.cls-1{fill:#0076bd;}</style></defs><g id="blue_above"><path class="cls-1" d="M21.046,64.845c0-.13-.026-.26-.077-.382-.051-.123-.124-.234-.217-.326l-8.09-8.091c-.391-.391-1.023-.391-1.414,0-.391.39-.391,1.023,0,1.414l6.384,6.385H2V1c0-.552-.447-1-1-1S0,.448,0,1v63.845c0,.552.447,1,1,1h16.632l-6.384,6.384c-.391.391-.391,1.023,0,1.414.195.195.451.293.707.293s.512-.098.707-.293l8.09-8.091c.092-.092.166-.203.217-.326.051-.122.077-.252.077-.382Z"/></g></svg>