<?xml version="1.0" encoding="UTF-8"?>
<svg id="labels" xmlns="http://www.w3.org/2000/svg" viewBox="0 0 75 75">
  <path d="M43.014,24.126c-.533,0-.963-.431-.963-.963,0-2.564-2.086-4.651-4.651-4.651s-4.651,2.086-4.651,4.651c0,.532-.431.963-.963.963s-.963-.431-.963-.963c0-3.627,2.95-6.577,6.577-6.577s6.577,2.95,6.577,6.577c0,.532-.431.963-.963.963Z" style="fill: #333; stroke-width: 0px;"/>
  <path d="M61.634,31.929c-1.751,0-3.176-1.425-3.176-3.176s1.425-3.176,3.176-3.176,3.176,1.425,3.176,3.176-1.425,3.176-3.176,3.176Z" style="fill: #2677bd; stroke-width: 0px;"/>
  <path d="M58.458,23.532c-.876,0-1.588-.712-1.588-1.588s.712-1.588,1.588-1.588,1.588.712,1.588,1.588-.712,1.588-1.588,1.588Z" style="fill: #2677bd; stroke-width: 0px;"/>
  <path d="M14.526,68.854c-.876,0-1.588-.712-1.588-1.588s.712-1.588,1.588-1.588,1.588.712,1.588,1.588-.712,1.588-1.588,1.588Z" style="fill: #2677bd; stroke-width: 0px;"/>
  <path d="M43.634,10.08c-.298,0-.592-.138-.781-.398l-.299-.412c-.312-.43-.216-1.033.214-1.345.432-.314,1.033-.216,1.346.214l.299.412c.312.43.216,1.033-.214,1.345-.171.124-.37.184-.565.184Z" style="fill: #333; stroke-width: 0px;"/>
  <path d="M51.226,55.564h-27.653V21.792c0-2.197.591-4.35,1.709-6.227l.24-.336,8.903-12.191c.735-.725,1.642-1.096,2.601-1.096h.745c.961,0,1.867.371,2.552,1.044l.172.192,1.42,1.942c.313.43.218,1.033-.212,1.346s-1.032.218-1.346-.212l-1.434-1.948c-.273-.265-.7-.439-1.152-.439h-.745c-.452,0-.879.175-1.202.492l-.073.088-8.863,12.177c-.891,1.504-1.389,3.317-1.389,5.167v31.845h23.799v-31.845c0-1.849-.498-3.661-1.439-5.24l-.142-.19-2.646-3.632c-.313-.43-.218-1.033.212-1.346.431-.313,1.032-.219,1.346.211l2.838,3.898c1.167,1.95,1.758,4.103,1.758,6.299v33.772Z" style="fill: #333; stroke-width: 0px;"/>
  <g>
    <path d="M29.289,54.601h16.22c2.623,0,4.753,2.13,4.753,4.753v1.361h-25.726v-1.361c0-2.623,2.13-4.753,4.753-4.753Z" style="fill: #2677bd; stroke-width: 0px;"/>
    <path d="M51.226,61.679h-27.653v-2.498c0-3.056,2.487-5.542,5.542-5.542h16.568c3.056,0,5.542,2.486,5.542,5.542v2.498ZM25.5,59.752h23.799v-.572c0-1.994-1.622-3.616-3.616-3.616h-16.568c-1.994,0-3.616,1.622-3.616,3.616v.572Z" style="fill: #333; stroke-width: 0px;"/>
  </g>
  <path d="M37.4,73.058c-.533,0-.963-.431-.963-.963v-28.821c0-.532.431-.963.963-.963s.963.431.963.963v28.821c0,.532-.431.963-.963.963Z" style="fill: #333; stroke-width: 0px;"/>
  <path d="M43.633,69.669c-.533,0-.963-.431-.963-.963v-7.99c0-.532.431-.963.963-.963s.963.431.963.963v7.99c0,.532-.431.963-.963.963Z" style="fill: #333; stroke-width: 0px;"/>
  <path d="M30.741,66.642c-.533,0-.963-.431-.963-.963v-4.963c0-.532.431-.963.963-.963s.963.431.963.963v4.963c0,.532-.431.963-.963.963Z" style="fill: #333; stroke-width: 0px;"/>
  <path d="M30.741,71.484c-.533,0-.963-.431-.963-.963v-.908c0-.532.431-.963.963-.963s.963.431.963.963v.908c0,.532-.431.963-.963.963Z" style="fill: #333; stroke-width: 0px;"/>
  <g>
    <path d="M24.536,40.74v13.862h-14.347v-8.994c0-.574.786-1.112,2.153-1.572l.261-.072,11.933-3.285v.06Z" style="fill: #2677bd; stroke-width: 0px;"/>
    <path d="M25.5,55.565H9.227v-9.957c0-1.54,2.114-2.251,2.808-2.485l13.465-3.708v16.15ZM11.153,53.638h12.42v-11.694l-10.976,3.021c-1.026.347-1.358.639-1.444.735v7.938Z" style="fill: #333; stroke-width: 0px;"/>
  </g>
  <g>
    <path d="M50.463,40.74v13.862s2.996,0,2.996,0h11.351s0-8.463,0-8.463v-.531c0-.574-.786-1.112-2.153-1.572l-.261-.072-11.933-3.285v.06Z" style="fill: #2677bd; stroke-width: 0px;"/>
    <path d="M65.773,55.565h-16.274v-16.15l13.412,3.692c.747.25,2.862.961,2.862,2.501v9.957ZM51.427,53.638h12.42v-7.938c-.087-.095-.426-.39-1.497-.751l-.209-.056-10.714-2.95v11.694Z" style="fill: #333; stroke-width: 0px;"/>
  </g>
</svg>