<svg xmlns="http://www.w3.org/2000/svg" width="67.855" height="62.1" viewBox="0 0 67.855 62.1">
    <g transform="translate(-6252.418 -4962.579)">
        <g transform="translate(6265.279 4973.788)">
            <path
                d="M6291.713,5026.22a25.437,25.437,0,0,1-19.651-41.612c.015-.019.031-.037.048-.054l.085-.088a.928.928,0,0,1,.641-.284,1.882,1.882,0,0,1,1.531.528,2.344,2.344,0,0,1,.36,1.957,3.526,3.526,0,0,1-.544,1.263c-.069.116-.174.291-.2.353-.684,1.9-1.044,3.063-.465,4.879l.1.318c.64,2.024,1.1,3.292,2.466,3.829a3.072,3.072,0,0,1,1.667,1.3,5.529,5.529,0,0,0,.438.569c.084.058.209.138.319.2h.049a.929.929,0,0,1,.917.789v0h0a2.975,2.975,0,0,1-.739,2.164,3.289,3.289,0,0,0-.377.618,3.126,3.126,0,0,0-.085,1.947,2.9,2.9,0,0,0,.94,1.176,3.287,3.287,0,0,1,1.4,2.453.929.929,0,0,1-1.857,0c0-.327-.24-.58-.789-1.079a4.528,4.528,0,0,1-1.466-2,4.948,4.948,0,0,1,.117-3.131,4.624,4.624,0,0,1,.6-1.048c.081-.115.167-.236.239-.352a3.456,3.456,0,0,1-.569-.41l-.005-.006a7.346,7.346,0,0,1-.652-.828,1.307,1.307,0,0,0-.821-.633c-2.259-.887-2.919-2.976-3.558-5l-.1-.315c-.742-2.332-.289-3.919.488-6.075a4.067,4.067,0,0,1,.349-.672l.048-.081a23.594,23.594,0,1,0,42.666,13.876c0-.465-.013-.929-.04-1.377a.928.928,0,0,1,.872-.981l.056,0a.928.928,0,0,1,.926.874c.029.484.043.985.043,1.487a25.425,25.425,0,0,1-25.445,25.445Z"
                transform="translate(-6266.268 -4975.329)" fill="#fff" />
            <path
                d="M6284.114,5021.6a1.418,1.418,0,0,1-.835-.39c-.172-.129-.4-.3-.624-.481a9.347,9.347,0,0,1-1.15-.978,7.078,7.078,0,0,1-1.638-3.519,21.56,21.56,0,0,1-.351-8.172.929.929,0,1,1,1.832.307,19.706,19.706,0,0,0,.333,7.466,5.252,5.252,0,0,0,1.211,2.683c.068.069.246.219.463.4.036-.332.073-.661.109-.986.063-.554.127-1.125.182-1.684.008-.078.015-.156.022-.235a4.363,4.363,0,0,1,1.315-3.234,4.805,4.805,0,0,1,1.13-.669,2.64,2.64,0,0,0,.785-.472,11.255,11.255,0,0,0,2.015-3.031c.057-.134.118-.271.182-.417.486-1.092.851-2.035.4-2.5a4.227,4.227,0,0,0-.683-.438,6.032,6.032,0,0,1-1.073-.715l-.138-.126a1.872,1.872,0,0,0-.814-.546,3.2,3.2,0,0,0-.552-.137,2.079,2.079,0,0,1-1.311-.683,5.719,5.719,0,0,1-.729-.992,4.008,4.008,0,0,0-.662-.877,4.622,4.622,0,0,0-1.456-.762,6.757,6.757,0,0,1-1.825-.944,2.75,2.75,0,0,1-1.116-2.861h0a1.544,1.544,0,0,1-1.235-.536c-.708-.864-.049-2.086.167-2.488.631-1.169,2.941-2.453,4.486-1.769a1.963,1.963,0,0,1,.431.262l.023-.161a3.745,3.745,0,0,1,.313-1.186,8.417,8.417,0,0,1,1.716-2.119c.3-.278.683-.57,1.129-.908,1.05-.8,2.807-2.129,2.667-3.1a.81.81,0,0,0-.5-.475.472.472,0,0,0-.306-.026c0,.043,0,.093,0,.134a2.124,2.124,0,0,1-.208,1.032,5.314,5.314,0,0,1-1.579,1.538c-.229.17-.446.331-.588.458a.929.929,0,0,1-1.215.024,4.469,4.469,0,0,0-.513-.337,3.051,3.051,0,0,1-1.64-1.8,2.76,2.76,0,0,1,.516-2.144,4.8,4.8,0,0,1,2.381-1.621,6.818,6.818,0,0,0,1.417-.721.974.974,0,0,0-.506-.286c-1.91,1.222-5,1.125-7.281,1.055-.377-.012-.734-.023-1.05-.027a.931.931,0,0,1-.652-.279l-.061-.062a.929.929,0,0,1,.107-1.392,24.808,24.808,0,0,1,7.111-3.7,26.061,26.061,0,0,1,8.2-1.309,25.348,25.348,0,0,1,16.313,5.917.926.926,0,0,1,.22.27,1.658,1.658,0,0,1,.263.834.96.96,0,0,1-.353.744,1.46,1.46,0,0,1-1.291.173,1.3,1.3,0,0,0-.2-.015,6.633,6.633,0,0,0-2.444.874,3.8,3.8,0,0,1-1.462.547l-.116,0a2.066,2.066,0,0,1-1.623-.664c-.109-.108-.138-.133-.2-.156-.34-.132-.792-.265-1.005-.142a3.226,3.226,0,0,0-.729.949l-.1.166a3.865,3.865,0,0,1-.305.4l-.072.086c.088-.034.18-.071.25-.1a1.7,1.7,0,0,1,1.782-.027,1.484,1.484,0,0,1,.452,1.483,2.1,2.1,0,0,1-1.421,1.729,5.587,5.587,0,0,1-1.669.256c-.162.008-.316.015-.439.027-.081.008-.178.011-.326.016-.163,0-.614.019-.842.053-.742.7-.82,1.054-.818,1.175,0,.021,0,.072.1.165a3.788,3.788,0,0,0,.829-.3,6.551,6.551,0,0,1,.708-.284c.1-.032.257-.087.422-.147a4.379,4.379,0,0,1,2.593-.437c.119.038.439.141,1.288,1.078.833.92.958,1.348.967,1.673a2.383,2.383,0,0,0,.107.423,1.775,1.775,0,0,1-.021,1.54,1.3,1.3,0,0,1-.952.589.92.92,0,0,1-.359-.016,30.554,30.554,0,0,0-3.66-.041c-2.465.1-3.474.431-3.667.591a2.614,2.614,0,0,1-1.607.736c-.347.055-.444.082-.526.177a6.085,6.085,0,0,0-.872,2.147,6.352,6.352,0,0,0-.234,2.353c.388,1.825,1.789,2.881,4.408,3.326.466.079,1.434.278,2.3.474.471.106.875.2,1.167.281.5.131.824.217,1.05.542.331.479.2,1.062.009,1.87a6.447,6.447,0,0,0-.152.781,8.079,8.079,0,0,0,.348,1.471,6.814,6.814,0,0,1,.4,2.688,7.965,7.965,0,0,0,.2,2.977,4.314,4.314,0,0,0,1.2,1.979.79.79,0,0,1,.263.252,2.089,2.089,0,0,0,.763-.3c.208-.524.794-2.713.853-3.082.01-.085.019-.165.028-.239a3.111,3.111,0,0,1,.851-2.068c.264-.322.533-.612.792-.893a4.516,4.516,0,0,0,1.58-2.868,4.612,4.612,0,0,0-.222-1.544,3.5,3.5,0,0,1,.622-3.643c.059-.067.139-.145.7-.676l-.076-.027c-.647-.249-1.195-1.016-1.9-2.072-.139-.209-.27-.407-.352-.514-.118-.154-.2-.268-.257-.359a.963.963,0,0,1,.134-1.3.949.949,0,0,1,1.2-.032,2.239,2.239,0,0,1,.191.153c.094.083.21.191.356.334.124.121.244.243.332.332a2.073,2.073,0,0,0,1.089-.128l.1-.051c-.021-.062-.045-.128-.07-.2a7.37,7.37,0,0,0-1.388-2.346,1.076,1.076,0,0,1,1.141-1.788,5.078,5.078,0,0,1,1.8,1.53,3.653,3.653,0,0,0,1.279,1.132,2.419,2.419,0,0,0,1.045.036,5.044,5.044,0,0,1,1.326-.006,3.769,3.769,0,0,1,2.119,1.126,5.118,5.118,0,0,1,1.157,1.891.928.928,0,1,1-1.753.611,2.586,2.586,0,0,0-1.8-1.792,3.366,3.366,0,0,0-.859.018,4.129,4.129,0,0,1-1.82-.122q-.123-.042-.239-.093a1.281,1.281,0,0,1-.076.763,1.9,1.9,0,0,1-.976.875,1.492,1.492,0,0,1,1.332.361l.01.01a.936.936,0,0,1,.263.67,1.17,1.17,0,0,1-.433.82c-.1.106-.247.247-.438.431-.341.328-.773.734-1.12,1.062-.257.242-.548.515-.621.588-.553.645-.446,1.052-.214,1.938a6.339,6.339,0,0,1,.277,2.151,6.193,6.193,0,0,1-2.068,3.991c-.241.261-.49.531-.721.812a1.406,1.406,0,0,0-.441,1.1c-.009.079-.019.164-.03.257a24.333,24.333,0,0,1-1.109,3.835,3.214,3.214,0,0,1-2.47,1.181,2.078,2.078,0,0,1-.291-.02,1.489,1.489,0,0,1-1.129-.744,6.322,6.322,0,0,1-1.68-2.722,9.515,9.515,0,0,1-.3-3.712,5.077,5.077,0,0,0-.321-2.019,9.815,9.815,0,0,1-.418-1.816,4.353,4.353,0,0,1,.189-1.4c.017-.074.038-.163.059-.254-.862-.215-2.408-.548-3.085-.663a9.011,9.011,0,0,1-3.6-1.315,5.388,5.388,0,0,1-2.315-3.455,8.31,8.31,0,0,1,.247-3.185,8.035,8.035,0,0,1,1.267-2.913,2.488,2.488,0,0,1,1.642-.8c.333-.053.459-.082.562-.189.443-.464,1.411-1.016,4.994-1.162,1-.041,2.248-.041,3.133,0a2.927,2.927,0,0,1-.083-.441,7.143,7.143,0,0,0-1.031-1.165,8.514,8.514,0,0,0-1.339.4c-.192.069-.359.129-.5.174a5.209,5.209,0,0,0-.5.206c-.733.328-1.841.823-2.737.068a2.093,2.093,0,0,1-.8-1.59,3.9,3.9,0,0,1,1.547-2.7c.351-.318.862-.389,1.866-.421a1.468,1.468,0,0,1-.589-.774,2.214,2.214,0,0,1,.713-2.035c.057-.068.135-.162.158-.2l.1-.159a4.252,4.252,0,0,1,1.379-1.575,2.984,2.984,0,0,1,2.6.021,2.3,2.3,0,0,1,.832.568,1.25,1.25,0,0,0,.114.105h0a.614.614,0,0,0,.2.021h.008c.14-.046.48-.219.734-.348a12.071,12.071,0,0,1,2.057-.881,23.477,23.477,0,0,0-13.727-4.4,24.206,24.206,0,0,0-7.617,1.215,23.174,23.174,0,0,0-4.227,1.88h.03c1.711,0,3.515-.143,4.532-.861a.916.916,0,0,1,.234-.12,2.72,2.72,0,0,1,2.783,1l.089.089a.928.928,0,0,1,.431,1.261,3.5,3.5,0,0,1-1.27,1.356,2.3,2.3,0,0,1,1.532.051,2.6,2.6,0,0,1,1.688,1.95c.3,2.058-1.83,3.67-3.383,4.848-.389.295-.755.573-.984.787a6.5,6.5,0,0,0-1.318,1.583,2.283,2.283,0,0,0-.14.621,3.383,3.383,0,0,1-.33,1.194c-.2.381-.585,1.092-1.306,1.135-.024,0-.048,0-.072,0a1.358,1.358,0,0,1-1.1-.71,1.118,1.118,0,0,0-.238-.281,1.656,1.656,0,0,0-1.091.2,2.368,2.368,0,0,0-1.01.755c-.045.084-.083.159-.114.226.063-.016.132-.035.209-.059a.929.929,0,0,1,1.188.741,5.111,5.111,0,0,1,0,1.438c-.071.648-.088.8.414,1.2a5.156,5.156,0,0,0,1.35.674,6.293,6.293,0,0,1,2.011,1.1,5.505,5.505,0,0,1,1.01,1.286,4.337,4.337,0,0,0,.484.681.714.714,0,0,0,.135.119c.02.007.1.022.167.033a4.965,4.965,0,0,1,.842.212,3.623,3.623,0,0,1,1.456.928l.133.121a4.826,4.826,0,0,0,.746.479,4.892,4.892,0,0,1,1.1.757,2.736,2.736,0,0,1,.677,2.508,8.9,8.9,0,0,1-.708,2.043c-.061.137-.119.268-.169.388a13.031,13.031,0,0,1-2.417,3.625,4.274,4.274,0,0,1-1.309.837,3.2,3.2,0,0,0-.72.407c-.489.411-.569,1.022-.66,1.985-.007.082-.015.163-.023.244-.056.57-.121,1.149-.184,1.708-.1.857-.2,1.743-.264,2.606,0,.006,0,.012,0,.018a.929.929,0,0,1-.639.794A.951.951,0,0,1,6284.114,5021.6Zm2.657-38.9c-.292.142-.588.267-.873.387a3.685,3.685,0,0,0-1.537.909,1.2,1.2,0,0,0-.273.719c.043.184.474.442.789.631l.106.064.147-.109a5.513,5.513,0,0,0,1.029-.889c.006-.045.006-.138.006-.2a1.826,1.826,0,0,1,.578-1.487Z"
                transform="translate(-6267.019 -4974.649)" fill="#fff" />
            <path
                d="M6319.279,5000.029a.929.929,0,0,1-.927-.889,22.864,22.864,0,0,0-1.225-5.658,27.043,27.043,0,0,0-2.533-5.407,26.068,26.068,0,0,0-4.7-5.672.928.928,0,0,1,1.249-1.375,27.9,27.9,0,0,1,5.056,6.117,28.84,28.84,0,0,1,2.707,5.808,24.131,24.131,0,0,1,1.3,6.107.929.929,0,0,1-.888.967Z"
                transform="translate(-6269.36 -4975.087)" fill="#fff" />
            <path
                d="M6273.108,4985.928a.928.928,0,0,1-.79-1.415,16.742,16.742,0,0,1,5.3-5.033.929.929,0,1,1,.952,1.6,14.991,14.991,0,0,0-4.672,4.411A.928.928,0,0,1,6273.108,4985.928Z"
                transform="translate(-6266.689 -4974.984)" fill="#fff" />
        </g>
        <path
            d="M6282.458,5010.3l-.065,0c-1.159-.08-2.325-.182-3.465-.3a.929.929,0,0,1,.1-1.853.941.941,0,0,1,.1,0c1.119.117,2.264.217,3.4.3a.929.929,0,0,1-.063,1.855Zm-8.828-1.026a.966.966,0,0,1-.154-.013c-1.171-.2-2.325-.416-3.428-.653a.929.929,0,0,1,.194-1.837.9.9,0,0,1,.2.021c1.075.231,2.2.445,3.344.636a.929.929,0,0,1-.152,1.845Zm-8.65-2.02a.921.921,0,0,1-.279-.043c-1.171-.368-2.286-.767-3.315-1.185a.929.929,0,1,1,.7-1.721c.983.4,2.05.781,3.173,1.133a.929.929,0,0,1-.278,1.815Zm-8.065-3.668a.926.926,0,0,1-.524-.163,12.976,12.976,0,0,1-2.761-2.465.929.929,0,1,1,1.443-1.169,11.13,11.13,0,0,0,2.369,2.1.929.929,0,0,1-.526,1.695Zm-3.567-7.352a.944.944,0,0,1-.346-.067.929.929,0,0,1-.515-1.208,8.032,8.032,0,0,1,1.751-2.578c.166-.17.343-.34.527-.507a.929.929,0,0,1,1.247,1.376c-.156.141-.305.285-.444.427a6.2,6.2,0,0,0-1.357,1.973A.928.928,0,0,1,6253.347,4996.23Zm6.619-5.652a.929.929,0,0,1-.4-1.769c1-.47,2.1-.92,3.273-1.337a.929.929,0,1,1,.622,1.75c-1.117.4-2.161.823-3.1,1.268A.931.931,0,0,1,6259.965,4990.578Zm8.409-2.833a.929.929,0,0,1-.216-1.832c.82-.2,1.676-.386,2.542-.56a.929.929,0,0,1,.366,1.821c-.843.169-1.675.352-2.473.544A.931.931,0,0,1,6268.375,4987.744Z"
            transform="translate(0 -1.624)" fill="#fff" />
        <path
            d="M6309.428,4990.2a.915.915,0,0,1-.2-.023.928.928,0,0,1-.7-1.109c.11-.494.217-.991.317-1.479a.929.929,0,1,1,1.819.374c-.1.5-.211,1.006-.325,1.511A.927.927,0,0,1,6309.428,4990.2Zm1.229-6.86a.917.917,0,0,1-.121-.008.928.928,0,0,1-.8-1.041c.15-1.158.266-2.293.342-3.374a.929.929,0,0,1,.926-.863l.066,0a.929.929,0,0,1,.86.992c-.079,1.117-.2,2.289-.353,3.482A.93.93,0,0,1,6310.656,4983.338Zm-18.638-8.478a.929.929,0,0,1-.762-1.459c.692-.993,1.4-1.94,2.094-2.813a.929.929,0,0,1,1.452,1.158c-.673.842-1.353,1.756-2.021,2.717A.927.927,0,0,1,6292.019,4974.86Zm19.037-.391a.929.929,0,0,1-.926-.871,24.03,24.03,0,0,0-.416-3.288.928.928,0,1,1,1.819-.371,25.742,25.742,0,0,1,.45,3.543.928.928,0,0,1-.869.984Zm-13.3-6.377a.928.928,0,0,1-.628-1.612,21.14,21.14,0,0,1,2.835-2.222.929.929,0,0,1,1,1.563,19.3,19.3,0,0,0-2.583,2.026A.925.925,0,0,1,6297.758,4968.092Zm10.744-1.992a.925.925,0,0,1-.707-.327,3.628,3.628,0,0,0-2.342-1.346.929.929,0,1,1,.245-1.841,5.47,5.47,0,0,1,3.51,1.982.928.928,0,0,1-.706,1.531Z"
            transform="translate(-2.76)" fill="#fff" />
        <circle cx="2.057" cy="2.057" r="2.057" transform="translate(6280.778 5005.69)" fill="#fff" />
        <circle cx="2.057" cy="2.057" r="2.057" transform="translate(6304.867 4986.723)" fill="#fff" />
        <path
            d="M6317.536,5020.283a.928.928,0,0,1-.265-.039,15.13,15.13,0,0,1-3.179-1.413.928.928,0,1,1,.924-1.611,13.3,13.3,0,0,0,2.783,1.243.929.929,0,0,1-.264,1.819Zm4.847-1.094a.929.929,0,0,1-.768-1.45,5.023,5.023,0,0,0,.688-2.629.929.929,0,0,1,.927-.9h.035a.929.929,0,0,1,.894.962,6.8,6.8,0,0,1-1.006,3.6A.927.927,0,0,1,6322.383,5019.189Zm-12.17-3.351a.924.924,0,0,1-.6-.221c-.81-.687-1.639-1.443-2.463-2.249a.928.928,0,1,1,1.3-1.328c.794.775,1.59,1.5,2.367,2.161a.929.929,0,0,1-.6,1.637Zm12.273-5.044a.929.929,0,0,1-.9-.686c-.26-.958-.592-1.977-.986-3.026a.928.928,0,1,1,1.738-.653c.415,1.1.764,2.177,1.04,3.192a.93.93,0,0,1-.9,1.172Z"
            transform="translate(-3.886 -3.087)" fill="#fff" />
        <circle cx="2.057" cy="2.057" r="2.057" transform="translate(6300.104 5004.914)" fill="#fff" />
    </g>
</svg>