<!--?xml version="1.0" encoding="UTF-8"?-->
<svg id="labels" xmlns="http://www.w3.org/2000/svg" viewBox="0 0 75 75" style="width:100px; "
    role="img">
    <g>
        <g>
            <path
                d="M6.384,32.918H2.016c-.591,0-1.07-.479-1.07-1.07s.479-1.07,1.07-1.07h4.368c.591,0,1.07.479,1.07,1.07s-.479,1.07-1.07,1.07Z"
                class="transparent" style="width:100px; fill: #333; stroke-width: 0px;"></path>
            <path
                d="M6.384,43.74H2.016c-.591,0-1.07-.479-1.07-1.07s.479-1.07,1.07-1.07h4.368c.591,0,1.07.479,1.07,1.07s-.479,1.07-1.07,1.07Z"
                class="transparent" style="width:100px; fill: #333; stroke-width: 0px;"></path>
            <path
                d="M6.384,54.664H2.016c-.591,0-1.07-.479-1.07-1.07s.479-1.07,1.07-1.07h4.368c.591,0,1.07.479,1.07,1.07s-.479,1.07-1.07,1.07Z"
                class="transparent" style="width:100px; fill: #333; stroke-width: 0px;"></path>
            <path
                d="M6.384,22.046H2.016c-.591,0-1.07-.479-1.07-1.07s.479-1.07,1.07-1.07h4.368c.591,0,1.07.479,1.07,1.07s-.479,1.07-1.07,1.07Z"
                class="transparent" style="width:100px; fill: #333; stroke-width: 0px;"></path>
        </g>
        <g>
            <path
                d="M43.63,7.408c-.591,0-1.07-.479-1.07-1.07V1.971c0-.591.479-1.07,1.07-1.07s1.07.479,1.07,1.07v4.368c0,.591-.479,1.07-1.07,1.07Z"
                class="transparent" style="width:100px; fill: #333; stroke-width: 0px;"></path>
            <path
                d="M32.809,7.408c-.591,0-1.07-.479-1.07-1.07V1.971c0-.591.479-1.07,1.07-1.07s1.07.479,1.07,1.07v4.368c0,.591-.479,1.07-1.07,1.07Z"
                class="transparent" style="width:100px; fill: #333; stroke-width: 0px;"></path>
            <path
                d="M21.885,7.408c-.591,0-1.07-.479-1.07-1.07V1.971c0-.591.479-1.07,1.07-1.07s1.07.479,1.07,1.07v4.368c0,.591-.479,1.07-1.07,1.07Z"
                class="transparent" style="width:100px; fill: #333; stroke-width: 0px;"></path>
            <path
                d="M54.503,7.408c-.591,0-1.07-.479-1.07-1.07V1.971c0-.591.479-1.07,1.07-1.07s1.07.479,1.07,1.07v4.368c0,.591-.479,1.07-1.07,1.07Z"
                class="transparent" style="width:100px; fill: #333; stroke-width: 0px;"></path>
        </g>
        <g>
            <path
                d="M43.63,73.748c-.591,0-1.07-.479-1.07-1.07v-4.368c0-.591.479-1.07,1.07-1.07s1.07.479,1.07,1.07v4.368c0,.591-.479,1.07-1.07,1.07Z"
                class="transparent" style="width:100px; fill: #333; stroke-width: 0px;"></path>
            <path
                d="M32.809,73.748c-.591,0-1.07-.479-1.07-1.07v-4.368c0-.591.479-1.07,1.07-1.07s1.07.479,1.07,1.07v4.368c0,.591-.479,1.07-1.07,1.07Z"
                class="transparent" style="width:100px; fill: #333; stroke-width: 0px;"></path>
            <path
                d="M21.885,73.748c-.591,0-1.07-.479-1.07-1.07v-4.368c0-.591.479-1.07,1.07-1.07s1.07.479,1.07,1.07v4.368c0,.591-.479,1.07-1.07,1.07Z"
                class="transparent" style="width:100px; fill: #333; stroke-width: 0px;"></path>
            <path
                d="M54.503,73.748c-.591,0-1.07-.479-1.07-1.07v-4.368c0-.591.479-1.07,1.07-1.07s1.07.479,1.07,1.07v4.368c0,.591-.479,1.07-1.07,1.07Z"
                class="transparent" style="width:100px; fill: #333; stroke-width: 0px;"></path>
        </g>
        <path
            d="M72.984,32.148h-4.368c-.591,0-1.07-.479-1.07-1.07s.479-1.07,1.07-1.07h4.368c.591,0,1.07.479,1.07,1.07s-.479,1.07-1.07,1.07Z"
            class="transparent" style="width:100px; fill: #333; stroke-width: 0px;"></path>
        <path
            d="M72.984,42.97h-4.368c-.591,0-1.07-.479-1.07-1.07s.479-1.07,1.07-1.07h4.368c.591,0,1.07.479,1.07,1.07s-.479,1.07-1.07,1.07Z"
            class="transparent" style="width:100px; fill: #333; stroke-width: 0px;"></path>
        <path
            d="M72.984,53.894h-4.368c-.591,0-1.07-.479-1.07-1.07s.479-1.07,1.07-1.07h4.368c.591,0,1.07.479,1.07,1.07s-.479,1.07-1.07,1.07Z"
            class="transparent" style="width:100px; fill: #333; stroke-width: 0px;"></path>
        <path
            d="M72.984,21.276h-4.368c-.591,0-1.07-.479-1.07-1.07s.479-1.07,1.07-1.07h4.368c.591,0,1.07.479,1.07,1.07s-.479,1.07-1.07,1.07Z"
            class="transparent" style="width:100px; fill: #333; stroke-width: 0px;"></path>
    </g>
    <path
        d="M60.65,64.267H14.192c-2.244,0-4.069-1.825-4.069-4.068V13.74c0-2.243,1.826-4.068,4.069-4.068h46.458c2.244,0,4.068,1.825,4.068,4.068v46.458c0,2.244-1.824,4.068-4.068,4.068ZM14.192,11.855c-1.04,0-1.885.845-1.885,1.884v46.458c0,1.039.846,1.885,1.885,1.885h46.458c1.039,0,1.884-.846,1.884-1.885V13.74c0-1.039-.846-1.884-1.884-1.884H14.192Z"
        class="transparent" style="width:100px; fill: #333; stroke-width: 0px;"></path>
    <path
        d="M52.211,20.15h-9.055v3.641s.007.004.011.007l3.8,3.8c.325.325.504.759.504,1.219v4.748c.687.237,1.184.883,1.184,1.65,0,.968-.785,1.753-1.753,1.753s-1.753-.785-1.753-1.753c0-.768.497-1.413,1.184-1.65v-4.748c0-.157-.061-.304-.172-.414l-3.005-3.005v3.749c0,.527-.25,1.034-.666,1.356l-1.911,1.478c-.101.078-.159.195-.159.321v5.686c0,.153.063.302.173.409l2.093,2.033c.363.351.572.844.572,1.35v3.306c.687.237,1.183.883,1.183,1.65,0,.968-.785,1.753-1.753,1.753s-1.753-.785-1.753-1.753c0-.768.497-1.413,1.184-1.651v-3.306c0-.199-.082-.394-.225-.533l-2.094-2.034c-.329-.321-.518-.767-.518-1.226v-5.686c0-.483.22-.928.601-1.223l1.911-1.477c.141-.108.224-.278.224-.455v-8.998h-2.515v6.337c0,.421-.164.817-.461,1.114l-2.433,2.432c-.119.12-.186.28-.186.451v11.52c.687.237,1.183.883,1.183,1.65,0,.968-.785,1.753-1.753,1.753s-1.753-.785-1.753-1.753c0-.768.497-1.413,1.184-1.65v-11.52c0-.474.184-.92.519-1.255l2.433-2.432c.082-.082.127-.192.127-.309v-6.337h-2.562v2.429c.64.261,1.091.888,1.091,1.622,0,.968-.785,1.753-1.753,1.753s-1.753-.785-1.753-1.753c0-.759.486-1.399,1.161-1.643v-2.408h-5.1v4.618c0,.16.065.318.179.432l2.003,2.003c.318.318.493.741.493,1.189v5.737c0,.384-.156.759-.427,1.029l-2.152,2.152c-.139.138-.218.329-.218.525v2.422c.673.245,1.156.884,1.156,1.642,0,.968-.785,1.753-1.753,1.753s-1.753-.785-1.753-1.753c0-.778.51-1.43,1.211-1.659v-2.405c0-.495.2-.979.55-1.33l2.153-2.153c.06-.059.093-.14.093-.223v-5.737c0-.143-.058-.284-.159-.385l-2.003-2.003c-.326-.326-.513-.777-.513-1.237v-4.618h-5.678c-1.116,0-2.029.913-2.029,2.028v29.581c0,1.116.913,2.028,2.029,2.028h29.581c1.116,0,2.029-.913,2.029-2.028v-29.581c0-1.116-.913-2.028-2.029-2.028Z"
        class="transparent" style="width:100px; fill: #0076bd; stroke-width: 0px;"></path>
    <title>Semiconductor</title>
</svg>