<?xml version="1.0" encoding="UTF-8"?>
<svg id="blue_above" data-name="blue above" xmlns="http://www.w3.org/2000/svg" viewBox="0 0 75 75">
  <g>
    <path d="m48.07,31.4h-4.23c-1.59,0-2.89-1.29-2.89-2.89v-15.24c0-1.59,1.29-2.88,2.89-2.88h4.23c1.59,0,2.88,1.29,2.88,2.88v15.24c0,1.59-1.29,2.89-2.88,2.89Z" style="fill: #0076bd;"/>
    <path d="m45.94,12.2c-.55,0-1-.45-1-1v-5.95c0-.55.45-1,1-1s1,.45,1,1v5.95c0,.55-.45,1-1,1Z" style="fill: #0076bd;"/>
    <path d="m45.94,37.39c-.55,0-1-.45-1-1v-5.62c0-.55.45-1,1-1s1,.45,1,1v5.62c0,.55-.45,1-1,1Z" style="fill: #0076bd;"/>
    <path d="m47.92,5.61h-3.99c-.55,0-1-.45-1-1s.45-1,1-1h3.99c.55,0,1,.45,1,1s-.45,1-1,1Z" style="fill: #0076bd;"/>
    <path d="m47.92,37.61h-3.99c-.55,0-1-.45-1-1s.45-1,1-1h3.99c.55,0,1,.45,1,1s-.45,1-1,1Z" style="fill: #0076bd;"/>
  </g>
  <g>
    <path d="m62.16,45.37h-4.23c-1.59,0-2.88-1.29-2.88-2.88v-15.24c0-1.59,1.29-2.89,2.88-2.89h4.23c1.59,0,2.89,1.29,2.89,2.89v15.24c0,1.59-1.29,2.88-2.89,2.88Z" style="fill: #0076bd;"/>
    <path d="m60.02,26.17c-.55,0-1-.45-1-1v-5.95c0-.55.45-1,1-1s1,.45,1,1v5.95c0,.55-.45,1-1,1Z" style="fill: #0076bd;"/>
    <path d="m60.02,51.36c-.55,0-1-.45-1-1v-5.62c0-.55.45-1,1-1s1,.45,1,1v5.62c0,.55-.45,1-1,1Z" style="fill: #0076bd;"/>
    <path d="m62,19.59h-3.99c-.55,0-1-.45-1-1s.45-1,1-1h3.99c.55,0,1,.45,1,1s-.45,1-1,1Z" style="fill: #0076bd;"/>
    <path d="m62,51.59h-3.99c-.55,0-1-.45-1-1s.45-1,1-1h3.99c.55,0,1,.45,1,1s-.45,1-1,1Z" style="fill: #0076bd;"/>
  </g>
  <g>
    <path d="m34.01,50.3h-4.23c-1.59,0-2.88-1.29-2.88-2.89v-15.24c0-1.59,1.29-2.88,2.88-2.88h4.23c1.59,0,2.89,1.29,2.89,2.88v15.24c0,1.59-1.29,2.89-2.89,2.89Z" style="fill: #0076bd;"/>
    <path d="m31.87,31.1c-.55,0-1-.45-1-1v-5.95c0-.55.45-1,1-1s1,.45,1,1v5.95c0,.55-.45,1-1,1Z" style="fill: #0076bd;"/>
    <path d="m31.87,56.29c-.55,0-1-.45-1-1v-5.62c0-.55.45-1,1-1s1,.45,1,1v5.62c0,.55-.45,1-1,1Z" style="fill: #0076bd;"/>
    <path d="m33.86,24.51h-3.99c-.55,0-1-.45-1-1s.45-1,1-1h3.99c.55,0,1,.45,1,1s-.45,1-1,1Z" style="fill: #0076bd;"/>
    <path d="m33.86,56.51h-3.99c-.55,0-1-.45-1-1s.45-1,1-1h3.99c.55,0,1,.45,1,1s-.45,1-1,1Z" style="fill: #0076bd;"/>
  </g>
  <g>
    <path d="m18.06,56.8h-4.23c-1.59,0-2.88-1.29-2.88-2.89v-15.24c0-1.59,1.29-2.89,2.88-2.89h4.23c1.59,0,2.88,1.29,2.88,2.89v15.24c0,1.59-1.29,2.89-2.88,2.89Z" style="fill: #0076bd;"/>
    <line x1="15.92" y1="30.66" x2="15.92" y2="36.6" style="fill: #0076bd; stroke: #0076bd; stroke-linecap: round; stroke-linejoin: round; stroke-width: 2px;"/>
    <line x1="15.92" y1="56.18" x2="15.92" y2="61.79" style="fill: #0076bd; stroke: #0076bd; stroke-linecap: round; stroke-linejoin: round; stroke-width: 2px;"/>
    <line x1="13.91" y1="30.02" x2="17.9" y2="30.02" style="fill: #0076bd; stroke: #0076bd; stroke-linecap: round; stroke-linejoin: round; stroke-width: 2px;"/>
    <line x1="13.91" y1="62.02" x2="17.9" y2="62.02" style="fill: #0076bd; stroke: #0076bd; stroke-linecap: round; stroke-linejoin: round; stroke-width: 2px;"/>
  </g>
  <path d="m5.17,5.19v60.19c0,2.76,2.24,5,5,5h59.66" style="fill: none; stroke: #333; stroke-linecap: round; stroke-miterlimit: 10; stroke-width: 2px;"/>
</svg>