<svg xmlns="http://www.w3.org/2000/svg" width="62.928" height="76.904" viewBox="0 0 62.928 76.904">
    <g transform="translate(-1937.69 -1352.763)">
        <path
            d="M6.548-.864A7.412,7.412,0,1,1-.864,6.548,7.42,7.42,0,0,1,6.548-.864Zm0,13.1A5.684,5.684,0,1,0,.864,6.548,5.691,5.691,0,0,0,6.548,12.233Z"
            transform="translate(1963.596 1374.145)" fill="#fff" />
        <path
            d="M1986.437,1368.267h0a2.31,2.31,0,0,1,.913.188l.388.166a2.337,2.337,0,0,1,1.228,3.061l-9.1,21.378a2.147,2.147,0,0,0-.175.838c0,.025,0,.05,0,.074l-2.96,32.328a3.412,3.412,0,0,1-3.408,3.366H1967a3.412,3.412,0,0,1-3.408-3.364l-3.145-32.263c0-.025,0-.049,0-.074a2.492,2.492,0,0,0-.2-.959l0-.009-8.713-20.971a2.335,2.335,0,0,1,1.23-3.056l.387-.166a2.306,2.306,0,0,1,.913-.187,2.331,2.331,0,0,1,2.14,1.4l9.114,19.064a.956.956,0,0,0,.855.535h8.039a.73.73,0,0,0,.655-.412l9.442-19.537A2.333,2.333,0,0,1,1986.437,1368.267Zm-8.471,25.583a3.857,3.857,0,0,1,.313-1.468l9.1-21.377a.607.607,0,0,0-.318-.8l-.388-.166a.592.592,0,0,0-.234-.048.607.607,0,0,0-.56.367l-.016.036-9.448,19.55a2.465,2.465,0,0,1-2.212,1.391h-8.039a2.694,2.694,0,0,1-2.412-1.514l-9.123-19.082-.015-.033a.606.606,0,0,0-.559-.365.589.589,0,0,0-.233.048l-.388.166a.608.608,0,0,0-.319.793l0,.009,8.712,20.971a4.21,4.21,0,0,1,.34,1.577l3.146,32.267q0,.042,0,.084a1.683,1.683,0,0,0,1.681,1.681h6.322a1.683,1.683,0,0,0,1.681-1.681c0-.026,0-.053,0-.079Z"
            fill="#fff" />
        <path
            d="M0,15.933a.864.864,0,0,1-.864-.864V0A.864.864,0,0,1,0-.864.864.864,0,0,1,.864,0V15.07A.864.864,0,0,1,0,15.933Z"
            transform="translate(1970.477 1413.246)" fill="#fff" />
        <path
            d="M1947.159,1377.313l-8.787-4.818q.173-.316.35-.628l8.771,4.846Q1947.322,1377.011,1947.159,1377.313Zm44.607-2.915c-.136-.183-.273-.366-.412-.547l8.151-6.176c.146.189.289.38.431.572Zm-44.734-6.146-3.372-3.126q.244-.264.493-.523l3.349,3.151Q1947.265,1368,1947.032,1368.252Zm44.7-4.182q-.266-.217-.534-.429l1.933-2.418q.282.222.559.45Zm-39.037-1.47-2.107-3.321q.3-.2.6-.385l2.078,3.339C1953.08,1362.353,1952.888,1362.476,1952.7,1362.6Zm29.121,3.656q-.311-.145-.624-.285l4.175-9.441c.22.1.439.2.655.3Zm-20.973-4.594-2.1-6.347c.226-.077.454-.151.682-.224l2.068,6.358Q1961.169,1361.552,1960.845,1361.662Zm15.207-.348c-.224-.043-.448-.083-.674-.122l1.308-7.29c.237.04.472.083.707.128Zm-7.622,2.961-.8-10.781q.357-.029.715-.049l.769,10.784Q1968.771,1364.248,1968.43,1364.275Z"
            fill="#fff" />
        <path
            d="M1947.159,1377.995a.682.682,0,0,1-.328-.084l-8.787-4.818a.682.682,0,0,1-.271-.924c.108-.2.225-.407.356-.638a.682.682,0,0,1,.923-.26l8.771,4.846a.682.682,0,0,1,.262.936c-.107.187-.214.379-.326.586a.682.682,0,0,1-.6.357Zm44.607-2.915a.67.67,0,0,1-.1-.007.681.681,0,0,1-.45-.268c-.119-.16-.26-.348-.406-.538a.682.682,0,0,1,.129-.959l8.151-6.176a.682.682,0,0,1,.951.127c.165.213.321.423.439.583a.682.682,0,0,1-.138.95l-8.17,6.151A.682.682,0,0,1,1991.766,1375.08Zm-44.734-6.146a.683.683,0,0,1-.464-.182l-3.372-3.126a.682.682,0,0,1-.037-.963c.162-.175.331-.354.5-.532a.682.682,0,0,1,.959-.025l3.349,3.151a.682.682,0,0,1,.024.969c-.161.167-.315.331-.46.487a.681.681,0,0,1-.474.219Zm34.786-2a.682.682,0,0,1-.289-.064c-.205-.1-.411-.19-.612-.28a.682.682,0,0,1-.346-.9l4.175-9.441a.682.682,0,0,1,.9-.348c.22.1.446.2.671.306a.682.682,0,0,1,.332.894l-4.206,9.427a.682.682,0,0,1-.623.4Zm-13.388-1.981a.682.682,0,0,1-.68-.631l-.8-10.781a.682.682,0,0,1,.625-.73c.229-.018.467-.035.729-.05a.68.68,0,0,1,.72.632l.769,10.784a.682.682,0,0,1-.641.729c-.24.014-.459.028-.668.045Zm23.3-.205a.682.682,0,0,1-.432-.154c-.176-.144-.353-.286-.524-.421a.682.682,0,0,1-.111-.961l1.933-2.418a.682.682,0,0,1,.954-.11c.183.144.369.294.57.459a.682.682,0,0,1,.1.958l-1.958,2.4a.682.682,0,0,1-.46.247C1991.779,1364.75,1991.757,1364.752,1991.734,1364.752Zm-39.037-1.47a.683.683,0,0,1-.576-.317l-2.107-3.321a.682.682,0,0,1,.2-.935c.191-.125.393-.254.619-.394a.682.682,0,0,1,.938.219l2.078,3.339a.682.682,0,0,1-.219.939c-.169.105-.354.223-.565.36A.681.681,0,0,1,1952.7,1363.282Zm8.148-.938a.682.682,0,0,1-.647-.468l-2.1-6.347a.682.682,0,0,1,.428-.859c.2-.068.414-.138.694-.228a.682.682,0,0,1,.856.438l2.068,6.358a.682.682,0,0,1-.443.861c-.21.066-.425.137-.638.209A.684.684,0,0,1,1960.845,1362.344Zm15.207-.348a.681.681,0,0,1-.128-.012c-.2-.038-.409-.076-.661-.12a.682.682,0,0,1-.555-.792l1.308-7.29a.682.682,0,0,1,.785-.552c.226.038.462.081.722.131a.682.682,0,0,1,.542.793l-1.341,7.284a.682.682,0,0,1-.67.558Z"
            fill="#fff" />
    </g>
</svg>