<?xml version="1.0" encoding="UTF-8"?>
<svg id="labels" xmlns="http://www.w3.org/2000/svg" viewBox="0 0 75 75">
  <path d="m8.867,23.03c-2.205,0-4-1.794-4-4s1.795-4,4-4,4,1.794,4,4-1.795,4-4,4Z" style="fill: #2677bd; stroke-width: 0px;"/>
  <path d="m8.867,41.367c-2.205,0-4-1.794-4-4s1.795-4,4-4,4,1.794,4,4-1.795,4-4,4Z" style="fill: #2677bd; stroke-width: 0px;"/>
  <path d="m8.867,59.359c-2.205,0-4-1.794-4-4s1.795-4,4-4,4,1.794,4,4-1.795,4-4,4Z" style="fill: #2677bd; stroke-width: 0px;"/>
  <path d="m68.867,20.03H17.919c-.553,0-1-.448-1-1s.447-1,1-1h50.947c.553,0,1,.448,1,1s-.447,1-1,1Z" style="fill: #231f20; stroke-width: 0px;"/>
  <path d="m68.867,38.367H17.919c-.553,0-1-.448-1-1s.447-1,1-1h50.947c.553,0,1,.448,1,1s-.447,1-1,1Z" style="fill: #231f20; stroke-width: 0px;"/>
  <path d="m68.867,56.359H17.919c-.553,0-1-.448-1-1s.447-1,1-1h50.947c.553,0,1,.448,1,1s-.447,1-1,1Z" style="fill: #231f20; stroke-width: 0px;"/>
</svg>