<svg xmlns="http://www.w3.org/2000/svg" width="49.443" height="49.443" viewBox="0 0 49.443 49.443">
  <g id="Group_8" data-name="Group 8" transform="translate(1 1)">
    <path id="Ellipse_1" data-name="Ellipse 1" d="M23.722-1a24.728,24.728,0,0,1,9.623,47.5A24.728,24.728,0,0,1,14.1.943,24.568,24.568,0,0,1,23.722-1Zm0,47.443A22.728,22.728,0,0,0,32.565,2.785,22.728,22.728,0,0,0,14.878,44.658,22.578,22.578,0,0,0,23.722,46.443Z" fill="#3378c7"/>
    <path id="Path_7" data-name="Path 7" d="M522.209,513.949a1,1,0,0,1-1-1V494.792a1,1,0,0,1,2,0v16.363l7.8-4.824a1,1,0,0,1,1.052,1.7l-9.323,5.768A1,1,0,0,1,522.209,513.949Z" transform="translate(-498.488 -489.228)" fill="#3378c7"/>
  </g>
</svg>
