<svg enable-background="new 0 0 512 512" viewBox="0 0 512 512" xmlns="http://www.w3.org/2000/svg" style="" role="img">
	<path
		d="m501.5 133.1c-5.9-21.9-23.2-39.2-45.1-45.1-40.1-11-200.4-11-200.4-11s-160.3 0-200.3 10.5c-21.5 5.9-39.2 23.6-45.1 45.5-10.6 40.2-10.6 123.2-10.6 123.2s0 83.5 10.5 123.1c5.9 21.9 23.2 39.2 45.1 45.1 40.5 11 200.3 11 200.3 11s160.3 0 200.3-10.5c21.9-5.9 39.2-23.2 45.1-45.1 10.7-40.1 10.7-123.1 10.7-123.1s.4-83.5-10.5-123.6zm-296.5 199.9v-153.5l133.3 76.8z"
		fill="#f00"></path>
</svg>